NotoAmalgamated-DisplayBoldItalic.ufo
<glyph name="exclam" format="2">
  <advance width="293"/>
  <unicode hex="0021"/>
  <outline>
    <contour>
      <point x="58" y="252" type="line"/>
      <point x="219" y="252" type="line"/>
      <point x="342" y="714" type="line"/>
      <point x="135" y="714" type="line"/>
    </contour>
    <contour>
      <point x="94" y="-12" type="curve" smooth="yes"/>
      <point x="161" y="-12"/>
      <point x="210" y="25"/>
      <point x="210" y="101" type="curve" smooth="yes"/>
      <point x="210" y="148"/>
      <point x="179" y="176"/>
      <point x="124" y="176" type="curve" smooth="yes"/>
      <point x="45" y="176"/>
      <point x="5" y="125"/>
      <point x="5" y="61" type="curve" smooth="yes"/>
      <point x="5" y="23"/>
      <point x="26" y="-12"/>
    </contour>
  </outline>
</glyph>
<glyph name="quotedbl" format="2">
  <advance width="431"/>
  <unicode hex="0022"/>
  <outline>
    <contour>
      <point x="296" y="456" type="line"/>
      <point x="421" y="456" type="line"/>
      <point x="498" y="714" type="line"/>
      <point x="332" y="714" type="line"/>
    </contour>
    <contour>
      <point x="87" y="456" type="line"/>
      <point x="212" y="456" type="line"/>
      <point x="289" y="714" type="line"/>
      <point x="123" y="714" type="line"/>
    </contour>
  </outline>
</glyph>
<glyph name="numbersign" format="2">
  <advance width="614"/>
  <unicode hex="0023"/>
  <outline>
    <contour>
      <point x="51" y="0" type="line"/>
      <point x="183" y="0" type="line"/>
      <point x="237" y="192" type="line"/>
      <point x="312" y="192" type="line"/>
      <point x="258" y="0" type="line"/>
      <point x="389" y="0" type="line"/>
      <point x="442" y="192" type="line"/>
      <point x="577" y="192" type="line"/>
      <point x="588" y="308" type="line"/>
      <point x="477" y="308" type="line"/>
      <point x="503" y="406" type="line"/>
      <point x="627" y="406" type="line"/>
      <point x="638" y="524" type="line"/>
      <point x="538" y="524" type="line"/>
      <point x="590" y="714" type="line"/>
      <point x="459" y="714" type="line"/>
      <point x="406" y="524" type="line"/>
      <point x="332" y="524" type="line"/>
      <point x="384" y="714" type="line"/>
      <point x="253" y="714" type="line"/>
      <point x="201" y="524" type="line"/>
      <point x="69" y="524" type="line"/>
      <point x="58" y="406" type="line"/>
      <point x="166" y="406" type="line"/>
      <point x="139" y="308" type="line"/>
      <point x="17" y="308" type="line"/>
      <point x="6" y="192" type="line"/>
      <point x="106" y="192" type="line"/>
    </contour>
    <contour>
      <point x="271" y="308" type="line"/>
      <point x="297" y="406" type="line"/>
      <point x="372" y="406" type="line"/>
      <point x="345" y="308" type="line"/>
    </contour>
  </outline>
</glyph>
<glyph name="dollar" format="2">
  <advance width="557"/>
  <unicode hex="0024"/>
  <outline>
    <contour>
      <point x="190" y="34" type="curve"/>
      <point x="170" y="-59" type="line"/>
      <point x="251" y="-59" type="line"/>
      <point x="270" y="32" type="line"/>
      <point x="397" y="40"/>
      <point x="506" y="116"/>
      <point x="506" y="242" type="curve" smooth="yes"/>
      <point x="506" y="322"/>
      <point x="468" y="370"/>
      <point x="354" y="421" type="curve"/>
      <point x="382" y="556" type="line"/>
      <point x="426" y="551"/>
      <point x="478" y="538"/>
      <point x="512" y="519" type="curve"/>
      <point x="559" y="650" type="line"/>
      <point x="512" y="674"/>
      <point x="463" y="688"/>
      <point x="412" y="693" type="curve"/>
      <point x="427" y="760" type="line"/>
      <point x="346" y="760" type="line"/>
      <point x="332" y="695" type="line"/>
      <point x="183" y="686"/>
      <point x="91" y="615"/>
      <point x="91" y="490" type="curve" smooth="yes"/>
      <point x="91" y="399"/>
      <point x="150" y="347"/>
      <point x="249" y="308" type="curve"/>
      <point x="221" y="172" type="line"/>
      <point x="168" y="177"/>
      <point x="99" y="196"/>
      <point x="29" y="228" type="curve"/>
      <point x="31" y="79" type="line"/>
      <point x="60" y="58"/>
      <point x="110" y="40"/>
    </contour>
    <contour>
      <point x="301" y="175" type="curve"/>
      <point x="322" y="278" type="line"/>
      <point x="340" y="266"/>
      <point x="351" y="251"/>
      <point x="351" y="228" type="curve" smooth="yes"/>
      <point x="351" y="203"/>
      <point x="340" y="184"/>
    </contour>
    <contour>
      <point x="302" y="554" type="curve"/>
      <point x="281" y="455" type="line"/>
      <point x="267" y="465"/>
      <point x="260" y="477"/>
      <point x="260" y="498" type="curve" smooth="yes"/>
      <point x="260" y="524"/>
      <point x="264" y="546"/>
    </contour>
  </outline>
</glyph>
<glyph name="percent" format="2">
  <advance width="900"/>
  <unicode hex="0025"/>
  <outline>
    <contour>
      <point x="143" y="0" type="line"/>
      <point x="287" y="0" type="line"/>
      <point x="796" y="714" type="line"/>
      <point x="656" y="714" type="line"/>
    </contour>
    <contour>
      <point x="211" y="276" type="curve" smooth="yes"/>
      <point x="369" y="276"/>
      <point x="418" y="444"/>
      <point x="418" y="559" type="curve" smooth="yes"/>
      <point x="418" y="664"/>
      <point x="369" y="724"/>
      <point x="268" y="724" type="curve" smooth="yes"/>
      <point x="114" y="724"/>
      <point x="58" y="558"/>
      <point x="58" y="441" type="curve" smooth="yes"/>
      <point x="58" y="332"/>
      <point x="112" y="276"/>
    </contour>
    <contour>
      <point x="221" y="394" type="curve" smooth="yes"/>
      <point x="204" y="394"/>
      <point x="197" y="408"/>
      <point x="197" y="434" type="curve" smooth="yes"/>
      <point x="197" y="504"/>
      <point x="225" y="606"/>
      <point x="257" y="606" type="curve" smooth="yes"/>
      <point x="275" y="606"/>
      <point x="281" y="593"/>
      <point x="281" y="567" type="curve" smooth="yes"/>
      <point x="281" y="502"/>
      <point x="256" y="394"/>
    </contour>
    <contour>
      <point x="677" y="-10" type="curve" smooth="yes"/>
      <point x="836" y="-10"/>
      <point x="884" y="158"/>
      <point x="884" y="273" type="curve" smooth="yes"/>
      <point x="884" y="378"/>
      <point x="835" y="438"/>
      <point x="734" y="438" type="curve" smooth="yes"/>
      <point x="579" y="438"/>
      <point x="525" y="272"/>
      <point x="525" y="155" type="curve" smooth="yes"/>
      <point x="525" y="46"/>
      <point x="579" y="-10"/>
    </contour>
    <contour>
      <point x="688" y="108" type="curve" smooth="yes"/>
      <point x="671" y="108"/>
      <point x="663" y="122"/>
      <point x="663" y="148" type="curve" smooth="yes"/>
      <point x="663" y="218"/>
      <point x="691" y="320"/>
      <point x="724" y="320" type="curve" smooth="yes"/>
      <point x="742" y="320"/>
      <point x="748" y="307"/>
      <point x="748" y="281" type="curve" smooth="yes"/>
      <point x="748" y="216"/>
      <point x="723" y="108"/>
    </contour>
  </outline>
</glyph>
<glyph name="ampersand" format="2">
  <advance width="702"/>
  <unicode hex="0026"/>
  <outline>
    <contour>
      <point x="248" y="-10" type="curve" smooth="yes"/>
      <point x="308" y="-10"/>
      <point x="365" y="7"/>
      <point x="404" y="30" type="curve"/>
      <point x="420" y="0" type="line"/>
      <point x="636" y="0" type="line"/>
      <point x="550" y="128" type="line"/>
      <point x="611" y="192"/>
      <point x="672" y="288"/>
      <point x="701" y="401" type="curve"/>
      <point x="514" y="401" type="line"/>
      <point x="502" y="352"/>
      <point x="474" y="294"/>
      <point x="451" y="266" type="curve"/>
      <point x="399" y="357" type="line"/>
      <point x="499" y="411"/>
      <point x="557" y="474"/>
      <point x="557" y="569" type="curve" smooth="yes"/>
      <point x="557" y="670"/>
      <point x="467" y="725"/>
      <point x="360" y="725" type="curve" smooth="yes"/>
      <point x="213" y="725"/>
      <point x="130" y="649"/>
      <point x="130" y="519" type="curve" smooth="yes"/>
      <point x="130" y="488"/>
      <point x="143" y="432"/>
      <point x="168" y="398" type="curve"/>
      <point x="62" y="362"/>
      <point x="-1" y="296"/>
      <point x="-1" y="186" type="curve" smooth="yes"/>
      <point x="-1" y="59"/>
      <point x="97" y="-10"/>
    </contour>
    <contour>
      <point x="269" y="140" type="curve" smooth="yes"/>
      <point x="212" y="140"/>
      <point x="189" y="174"/>
      <point x="189" y="206" type="curve" smooth="yes"/>
      <point x="189" y="238"/>
      <point x="197" y="270"/>
      <point x="240" y="289" type="curve"/>
      <point x="324" y="153" type="line"/>
      <point x="310" y="146"/>
      <point x="291" y="140"/>
    </contour>
    <contour>
      <point x="326" y="463" type="curve"/>
      <point x="305" y="488"/>
      <point x="302" y="518"/>
      <point x="302" y="532" type="curve" smooth="yes"/>
      <point x="302" y="572"/>
      <point x="323" y="596"/>
      <point x="350" y="596" type="curve" smooth="yes"/>
      <point x="372" y="596"/>
      <point x="386" y="577"/>
      <point x="386" y="555" type="curve" smooth="yes"/>
      <point x="386" y="508"/>
      <point x="358" y="478"/>
    </contour>
  </outline>
</glyph>
<glyph name="parenleft" format="2">
  <advance width="362"/>
  <unicode hex="0028"/>
  <outline>
    <contour>
      <point x="99" y="-158" type="curve"/>
      <point x="242" y="-158" type="line"/>
      <point x="209" y="-68"/>
      <point x="191" y="53"/>
      <point x="191" y="145" type="curve" smooth="yes"/>
      <point x="191" y="390"/>
      <point x="295" y="578"/>
      <point x="433" y="734" type="curve"/>
      <point x="277" y="734" type="line"/>
      <point x="118" y="565"/>
      <point x="32" y="382"/>
      <point x="32" y="154" type="curve" smooth="yes"/>
      <point x="32" y="51"/>
      <point x="57" y="-77"/>
    </contour>
  </outline>
</glyph>
<glyph name="parenright" format="2">
  <advance width="363"/>
  <unicode hex="0029"/>
  <outline>
    <contour>
      <point x="-62" y="-158" type="curve"/>
      <point x="96" y="-158" type="line"/>
      <point x="255" y="12"/>
      <point x="335" y="194"/>
      <point x="335" y="424" type="curve" smooth="yes"/>
      <point x="335" y="526"/>
      <point x="314" y="647"/>
      <point x="268" y="734" type="curve"/>
      <point x="124" y="734" type="line"/>
      <point x="156" y="644"/>
      <point x="176" y="522"/>
      <point x="176" y="431" type="curve" smooth="yes"/>
      <point x="176" y="186"/>
      <point x="76" y="-2"/>
    </contour>
  </outline>
</glyph>
<glyph name="asterisk" format="2">
  <advance width="514"/>
  <unicode hex="002A"/>
  <outline>
    <contour>
      <point x="321" y="269" type="line"/>
      <point x="458" y="311" type="line"/>
      <point x="393" y="463" type="line"/>
      <point x="533" y="443" type="line"/>
      <point x="545" y="590" type="line"/>
      <point x="376" y="575" type="line"/>
      <point x="433" y="737" type="line"/>
      <point x="285" y="767" type="line"/>
      <point x="269" y="596" type="line"/>
      <point x="124" y="677" type="line"/>
      <point x="74" y="541" type="line"/>
      <point x="209" y="500" type="line"/>
      <point x="93" y="388" type="line"/>
      <point x="212" y="298" type="line"/>
      <point x="287" y="417" type="line"/>
    </contour>
  </outline>
</glyph>
<glyph name="comma" format="2">
  <advance width="296"/>
  <unicode hex="002C"/>
  <outline>
    <contour>
      <point x="-50" y="-129" type="curve"/>
      <point x="91" y="-129" type="line"/>
      <point x="136" y="-56"/>
      <point x="182" y="34"/>
      <point x="212" y="105" type="curve"/>
      <point x="208" y="116" type="line"/>
      <point x="39" y="116" type="line"/>
      <point x="15" y="47"/>
      <point x="-16" y="-50"/>
    </contour>
  </outline>
</glyph>
<glyph name="hyphen" format="2">
  <advance width="314"/>
  <unicode hex="002D"/>
  <outline>
    <contour>
      <point x="10" y="192" type="line"/>
      <point x="270" y="192" type="line"/>
      <point x="302" y="344" type="line"/>
      <point x="42" y="344" type="line"/>
    </contour>
  </outline>
</glyph>
<glyph name="period" format="2">
  <advance width="296"/>
  <unicode hex="002E"/>
  <outline>
    <contour>
      <point x="80" y="-12" type="curve" smooth="yes"/>
      <point x="154" y="-12"/>
      <point x="203" y="14"/>
      <point x="203" y="101" type="curve" smooth="yes"/>
      <point x="203" y="152"/>
      <point x="167" y="176"/>
      <point x="117" y="176" type="curve" smooth="yes"/>
      <point x="57" y="176"/>
      <point x="-2" y="141"/>
      <point x="-2" y="61" type="curve" smooth="yes"/>
      <point x="-2" y="11"/>
      <point x="33" y="-12"/>
    </contour>
  </outline>
</glyph>
<glyph name="slash" format="2">
  <advance width="454"/>
  <unicode hex="002F"/>
  <outline>
    <contour>
      <point x="-42" y="-10" type="line"/>
      <point x="123" y="-10" type="line"/>
      <point x="523" y="724" type="line"/>
      <point x="358" y="724" type="line"/>
    </contour>
  </outline>
</glyph>
<glyph name="zero" format="2">
  <advance width="557"/>
  <unicode hex="0030"/>
  <outline>
    <contour>
      <point x="230" y="-10" type="curve" smooth="yes"/>
      <point x="441" y="-10"/>
      <point x="547" y="226"/>
      <point x="547" y="484" type="curve" smooth="yes"/>
      <point x="547" y="604"/>
      <point x="500" y="725"/>
      <point x="350" y="725" type="curve" smooth="yes"/>
      <point x="124" y="725"/>
      <point x="32" y="463"/>
      <point x="32" y="223" type="curve" smooth="yes"/>
      <point x="32" y="68"/>
      <point x="107" y="-10"/>
    </contour>
    <contour>
      <point x="251" y="144" type="curve" smooth="yes"/>
      <point x="228" y="144"/>
      <point x="222" y="167"/>
      <point x="222" y="217" type="curve" smooth="yes"/>
      <point x="222" y="363"/>
      <point x="278" y="571"/>
      <point x="325" y="571" type="curve" smooth="yes"/>
      <point x="349" y="571"/>
      <point x="357" y="541"/>
      <point x="357" y="488" type="curve" smooth="yes"/>
      <point x="357" y="350"/>
      <point x="309" y="144"/>
    </contour>
  </outline>
</glyph>
<glyph name="one" format="2">
  <advance width="557"/>
  <unicode hex="0031"/>
  <outline>
    <contour>
      <point x="263" y="390" type="curve" smooth="yes"/>
      <point x="179" y="0" type="line"/>
      <point x="368" y="0" type="line"/>
      <point x="518" y="714" type="line"/>
      <point x="367" y="714" type="line"/>
      <point x="71" y="527" type="line"/>
      <point x="143" y="404" type="line"/>
      <point x="238" y="465" type="line" smooth="yes"/>
      <point x="252" y="474"/>
      <point x="279" y="498"/>
      <point x="299" y="515" type="curve"/>
      <point x="287" y="482"/>
      <point x="271" y="427"/>
    </contour>
  </outline>
</glyph>
<glyph name="two" format="2">
  <advance width="557"/>
  <unicode hex="0032"/>
  <outline>
    <contour>
      <point x="-28" y="0" type="line"/>
      <point x="443" y="0" type="line"/>
      <point x="478" y="159" type="line"/>
      <point x="259" y="159" type="line"/>
      <point x="260" y="165" type="line"/>
      <point x="351" y="249" type="line" smooth="yes"/>
      <point x="494" y="382"/>
      <point x="525" y="453"/>
      <point x="525" y="546" type="curve" smooth="yes"/>
      <point x="525" y="657"/>
      <point x="445" y="724"/>
      <point x="338" y="724" type="curve" smooth="yes"/>
      <point x="234" y="724"/>
      <point x="150" y="682"/>
      <point x="82" y="616" type="curve"/>
      <point x="172" y="490" type="line"/>
      <point x="218" y="537"/>
      <point x="261" y="562"/>
      <point x="300" y="562" type="curve" smooth="yes"/>
      <point x="320" y="562"/>
      <point x="335" y="546"/>
      <point x="335" y="515" type="curve" smooth="yes"/>
      <point x="335" y="479"/>
      <point x="314" y="423"/>
      <point x="226" y="339" type="curve" smooth="yes"/>
      <point x="0" y="125" type="line"/>
    </contour>
  </outline>
</glyph>
<glyph name="three" format="2">
  <advance width="557"/>
  <unicode hex="0033"/>
  <outline>
    <contour>
      <point x="185" y="-10" type="curve" smooth="yes"/>
      <point x="344" y="-10"/>
      <point x="498" y="56"/>
      <point x="498" y="212" type="curve" smooth="yes"/>
      <point x="498" y="289"/>
      <point x="458" y="351"/>
      <point x="372" y="368" type="curve"/>
      <point x="372" y="372" type="line"/>
      <point x="462" y="392"/>
      <point x="531" y="451"/>
      <point x="531" y="557" type="curve" smooth="yes"/>
      <point x="531" y="662"/>
      <point x="443" y="724"/>
      <point x="323" y="724" type="curve" smooth="yes"/>
      <point x="218" y="724"/>
      <point x="155" y="696"/>
      <point x="87" y="652" type="curve"/>
      <point x="163" y="531" type="line"/>
      <point x="208" y="555"/>
      <point x="248" y="572"/>
      <point x="287" y="572" type="curve" smooth="yes"/>
      <point x="331" y="572"/>
      <point x="346" y="545"/>
      <point x="346" y="522" type="curve" smooth="yes"/>
      <point x="346" y="468"/>
      <point x="296" y="437"/>
      <point x="206" y="437" type="curve" smooth="yes"/>
      <point x="169" y="437" type="line"/>
      <point x="142" y="295" type="line"/>
      <point x="175" y="295" type="line" smooth="yes"/>
      <point x="286" y="295"/>
      <point x="306" y="272"/>
      <point x="306" y="231" type="curve" smooth="yes"/>
      <point x="306" y="166"/>
      <point x="253" y="142"/>
      <point x="183" y="142" type="curve" smooth="yes"/>
      <point x="123" y="142"/>
      <point x="64" y="156"/>
      <point x="9" y="191" type="curve"/>
      <point x="7" y="29" type="line"/>
      <point x="46" y="4"/>
      <point x="118" y="-10"/>
    </contour>
  </outline>
</glyph>
<glyph name="four" format="2">
  <advance width="557"/>
  <unicode hex="0034"/>
  <outline>
    <contour>
      <point x="219" y="0" type="line"/>
      <point x="404" y="0" type="line"/>
      <point x="432" y="138" type="line"/>
      <point x="499" y="138" type="line"/>
      <point x="530" y="282" type="line"/>
      <point x="463" y="282" type="line"/>
      <point x="553" y="714" type="line"/>
      <point x="381" y="714" type="line"/>
      <point x="24" y="263" type="line"/>
      <point x="-2" y="138" type="line"/>
      <point x="248" y="138" type="line"/>
    </contour>
    <contour>
      <point x="194" y="282" type="line"/>
      <point x="273" y="396" type="line" smooth="yes"/>
      <point x="290" y="420"/>
      <point x="314" y="458"/>
      <point x="325" y="480" type="curve"/>
      <point x="328" y="480" type="line"/>
      <point x="325" y="467"/>
      <point x="311" y="411"/>
      <point x="303" y="377" type="curve" smooth="yes"/>
      <point x="280" y="282" type="line"/>
    </contour>
  </outline>
</glyph>
<glyph name="five" format="2">
  <advance width="557"/>
  <unicode hex="0035"/>
  <outline>
    <contour>
      <point x="204" y="-10" type="curve" smooth="yes"/>
      <point x="377" y="-10"/>
      <point x="499" y="77"/>
      <point x="499" y="259" type="curve" smooth="yes"/>
      <point x="499" y="394"/>
      <point x="417" y="468"/>
      <point x="312" y="468" type="curve" smooth="yes"/>
      <point x="309" y="468"/>
      <point x="299" y="468"/>
      <point x="283" y="466" type="curve"/>
      <point x="308" y="556" type="line"/>
      <point x="525" y="556" type="line"/>
      <point x="559" y="714" type="line"/>
      <point x="176" y="714" type="line"/>
      <point x="71" y="348" type="line"/>
      <point x="130" y="303" type="line"/>
      <point x="153" y="312"/>
      <point x="192" y="319"/>
      <point x="223" y="319" type="curve" smooth="yes"/>
      <point x="275" y="319"/>
      <point x="304" y="281"/>
      <point x="304" y="237" type="curve" smooth="yes"/>
      <point x="304" y="170"/>
      <point x="255" y="142"/>
      <point x="181" y="142" type="curve" smooth="yes"/>
      <point x="129" y="142"/>
      <point x="56" y="161"/>
      <point x="11" y="189" type="curve"/>
      <point x="9" y="31" type="line"/>
      <point x="44" y="3"/>
      <point x="136" y="-10"/>
    </contour>
  </outline>
</glyph>
<glyph name="six" format="2">
  <advance width="557"/>
  <unicode hex="0036"/>
  <outline>
    <contour>
      <point x="254" y="-10" type="curve" smooth="yes"/>
      <point x="419" y="-10"/>
      <point x="521" y="117"/>
      <point x="521" y="285" type="curve" smooth="yes"/>
      <point x="521" y="416"/>
      <point x="463" y="477"/>
      <point x="371" y="477" type="curve" smooth="yes"/>
      <point x="291" y="477"/>
      <point x="252" y="436"/>
      <point x="228" y="394" type="curve"/>
      <point x="225" y="394" type="line"/>
      <point x="264" y="504"/>
      <point x="312" y="573"/>
      <point x="456" y="573" type="curve" smooth="yes"/>
      <point x="479" y="573"/>
      <point x="515" y="568"/>
      <point x="539" y="561" type="curve"/>
      <point x="571" y="709" type="line"/>
      <point x="533" y="718"/>
      <point x="496" y="724"/>
      <point x="462" y="724" type="curve" smooth="yes"/>
      <point x="346" y="724"/>
      <point x="262" y="692"/>
      <point x="202" y="642" type="curve" smooth="yes"/>
      <point x="95" y="553"/>
      <point x="37" y="375"/>
      <point x="37" y="226" type="curve" smooth="yes"/>
      <point x="37" y="86"/>
      <point x="98" y="-10"/>
    </contour>
    <contour>
      <point x="265" y="140" type="curve" smooth="yes"/>
      <point x="238" y="140"/>
      <point x="225" y="162"/>
      <point x="225" y="204" type="curve" smooth="yes"/>
      <point x="225" y="229"/>
      <point x="228" y="250"/>
      <point x="235" y="274" type="curve" smooth="yes"/>
      <point x="246" y="313"/>
      <point x="266" y="329"/>
      <point x="291" y="329" type="curve" smooth="yes"/>
      <point x="317" y="329"/>
      <point x="329" y="306"/>
      <point x="329" y="268" type="curve" smooth="yes"/>
      <point x="329" y="214"/>
      <point x="310" y="140"/>
    </contour>
  </outline>
</glyph>
<glyph name="seven" format="2">
  <advance width="557"/>
  <unicode hex="0037"/>
  <outline>
    <contour>
      <point x="11" y="0" type="line"/>
      <point x="230" y="0" type="line"/>
      <point x="581" y="601" type="line"/>
      <point x="607" y="714" type="line"/>
      <point x="123" y="714" type="line"/>
      <point x="87" y="554" type="line"/>
      <point x="347" y="554" type="line"/>
    </contour>
  </outline>
</glyph>
<glyph name="eight" format="2">
  <advance width="557"/>
  <unicode hex="0038"/>
  <outline>
    <contour>
      <point x="251" y="-10" type="curve" smooth="yes"/>
      <point x="402" y="-10"/>
      <point x="500" y="71"/>
      <point x="500" y="208" type="curve" smooth="yes"/>
      <point x="500" y="282"/>
      <point x="475" y="337"/>
      <point x="418" y="382" type="curve"/>
      <point x="506" y="411"/>
      <point x="546" y="487"/>
      <point x="546" y="564" type="curve" smooth="yes"/>
      <point x="546" y="656"/>
      <point x="474" y="725"/>
      <point x="345" y="725" type="curve" smooth="yes"/>
      <point x="189" y="725"/>
      <point x="109" y="629"/>
      <point x="109" y="518" type="curve" smooth="yes"/>
      <point x="109" y="442"/>
      <point x="141" y="401"/>
      <point x="178" y="369" type="curve"/>
      <point x="78" y="332"/>
      <point x="24" y="263"/>
      <point x="24" y="163" type="curve" smooth="yes"/>
      <point x="24" y="68"/>
      <point x="103" y="-10"/>
    </contour>
    <contour>
      <point x="256" y="128" type="curve" smooth="yes"/>
      <point x="231" y="128"/>
      <point x="201" y="148"/>
      <point x="201" y="187" type="curve" smooth="yes"/>
      <point x="201" y="236"/>
      <point x="235" y="272"/>
      <point x="274" y="297" type="curve"/>
      <point x="306" y="273"/>
      <point x="324" y="242"/>
      <point x="324" y="203" type="curve" smooth="yes"/>
      <point x="324" y="155"/>
      <point x="291" y="128"/>
    </contour>
    <contour>
      <point x="320" y="454" type="curve"/>
      <point x="299" y="466"/>
      <point x="285" y="494"/>
      <point x="285" y="519" type="curve" smooth="yes"/>
      <point x="285" y="558"/>
      <point x="311" y="587"/>
      <point x="335" y="587" type="curve" smooth="yes"/>
      <point x="354" y="587"/>
      <point x="373" y="571"/>
      <point x="373" y="540" type="curve" smooth="yes"/>
      <point x="373" y="509"/>
      <point x="357" y="470"/>
    </contour>
  </outline>
</glyph>
<glyph name="nine" format="2">
  <advance width="557"/>
  <unicode hex="0039"/>
  <outline>
    <contour>
      <point x="147" y="-10" type="curve" smooth="yes"/>
      <point x="258" y="-10"/>
      <point x="342" y="27"/>
      <point x="403" y="86" type="curve" smooth="yes"/>
      <point x="502" y="182"/>
      <point x="537" y="333"/>
      <point x="537" y="470" type="curve" smooth="yes"/>
      <point x="537" y="629"/>
      <point x="478" y="724"/>
      <point x="321" y="724" type="curve" smooth="yes"/>
      <point x="145" y="724"/>
      <point x="54" y="585"/>
      <point x="54" y="430" type="curve" smooth="yes"/>
      <point x="54" y="312"/>
      <point x="111" y="235"/>
      <point x="202" y="235" type="curve" smooth="yes"/>
      <point x="283" y="235"/>
      <point x="319" y="278"/>
      <point x="343" y="320" type="curve"/>
      <point x="347" y="320" type="line"/>
      <point x="321" y="195"/>
      <point x="257" y="140"/>
      <point x="145" y="140" type="curve" smooth="yes"/>
      <point x="111" y="140"/>
      <point x="85" y="145"/>
      <point x="54" y="158" type="curve"/>
      <point x="52" y="5" type="line"/>
      <point x="80" y="-4"/>
      <point x="108" y="-10"/>
    </contour>
    <contour>
      <point x="286" y="385" type="curve" smooth="yes"/>
      <point x="258" y="385"/>
      <point x="246" y="407"/>
      <point x="246" y="448" type="curve" smooth="yes"/>
      <point x="246" y="518"/>
      <point x="273" y="574"/>
      <point x="313" y="574" type="curve" smooth="yes"/>
      <point x="334" y="574"/>
      <point x="350" y="553"/>
      <point x="350" y="516" type="curve" smooth="yes"/>
      <point x="350" y="485"/>
      <point x="346" y="463"/>
      <point x="340" y="440" type="curve" smooth="yes"/>
      <point x="331" y="407"/>
      <point x="312" y="385"/>
    </contour>
  </outline>
</glyph>
<glyph name="colon" format="2">
  <advance width="296"/>
  <unicode hex="003A"/>
  <outline>
    <contour>
      <point x="176" y="372" type="curve" smooth="yes"/>
      <point x="250" y="372"/>
      <point x="299" y="398"/>
      <point x="299" y="486" type="curve" smooth="yes"/>
      <point x="299" y="536"/>
      <point x="263" y="560"/>
      <point x="211" y="560" type="curve" smooth="yes"/>
      <point x="152" y="560"/>
      <point x="94" y="526"/>
      <point x="94" y="446" type="curve" smooth="yes"/>
      <point x="94" y="396"/>
      <point x="129" y="372"/>
    </contour>
    <contour>
      <point x="80" y="-12" type="curve" smooth="yes"/>
      <point x="154" y="-12"/>
      <point x="203" y="14"/>
      <point x="203" y="101" type="curve" smooth="yes"/>
      <point x="203" y="152"/>
      <point x="167" y="176"/>
      <point x="117" y="176" type="curve" smooth="yes"/>
      <point x="57" y="176"/>
      <point x="-2" y="141"/>
      <point x="-2" y="61" type="curve" smooth="yes"/>
      <point x="-2" y="11"/>
      <point x="33" y="-12"/>
    </contour>
  </outline>
</glyph>
<glyph name="semicolon" format="2">
  <advance width="296"/>
  <unicode hex="003B"/>
  <outline>
    <contour>
      <point x="-57" y="-129" type="curve"/>
      <point x="84" y="-129" type="line"/>
      <point x="129" y="-56"/>
      <point x="175" y="34"/>
      <point x="205" y="105" type="curve"/>
      <point x="201" y="116" type="line"/>
      <point x="32" y="116" type="line"/>
      <point x="8" y="47"/>
      <point x="-23" y="-50"/>
    </contour>
    <contour>
      <point x="176" y="372" type="curve" smooth="yes"/>
      <point x="250" y="372"/>
      <point x="299" y="398"/>
      <point x="299" y="486" type="curve" smooth="yes"/>
      <point x="299" y="536"/>
      <point x="263" y="560"/>
      <point x="211" y="560" type="curve" smooth="yes"/>
      <point x="152" y="560"/>
      <point x="94" y="526"/>
      <point x="94" y="446" type="curve" smooth="yes"/>
      <point x="94" y="396"/>
      <point x="129" y="372"/>
    </contour>
  </outline>
</glyph>
<glyph name="less" format="2">
  <advance width="529"/>
  <unicode hex="003C"/>
  <outline>
    <contour>
      <point x="518" y="87" type="line"/>
      <point x="518" y="231" type="line"/>
      <point x="250" y="354" type="line"/>
      <point x="518" y="492" type="line"/>
      <point x="518" y="637" type="line"/>
      <point x="49" y="390" type="line"/>
      <point x="49" y="306" type="line"/>
    </contour>
  </outline>
</glyph>
<glyph name="equal" format="2">
  <advance width="529"/>
  <unicode hex="003D"/>
  <outline>
    <contour>
      <point x="49" y="398" type="line"/>
      <point x="521" y="398" type="line"/>
      <point x="521" y="529" type="line"/>
      <point x="49" y="529" type="line"/>
    </contour>
    <contour>
      <point x="49" y="175" type="line"/>
      <point x="521" y="175" type="line"/>
      <point x="521" y="307" type="line"/>
      <point x="49" y="307" type="line"/>
    </contour>
  </outline>
</glyph>
<glyph name="question" format="2">
  <advance width="470"/>
  <unicode hex="003F"/>
  <outline>
    <contour>
      <point x="116" y="252" type="curve"/>
      <point x="278" y="252" type="line"/>
      <point x="295" y="303"/>
      <point x="304" y="319"/>
      <point x="376" y="364" type="curve" smooth="yes"/>
      <point x="440" y="404"/>
      <point x="504" y="450"/>
      <point x="504" y="561" type="curve" smooth="yes"/>
      <point x="504" y="662"/>
      <point x="424" y="724"/>
      <point x="296" y="724" type="curve" smooth="yes"/>
      <point x="216" y="724"/>
      <point x="140" y="695"/>
      <point x="80" y="658" type="curve"/>
      <point x="137" y="520" type="line"/>
      <point x="197" y="556"/>
      <point x="251" y="573"/>
      <point x="283" y="573" type="curve" smooth="yes"/>
      <point x="312" y="573"/>
      <point x="320" y="559"/>
      <point x="320" y="540" type="curve" smooth="yes"/>
      <point x="320" y="516"/>
      <point x="304" y="495"/>
      <point x="247" y="455" type="curve" smooth="yes"/>
      <point x="159" y="393"/>
      <point x="139" y="364"/>
    </contour>
    <contour>
      <point x="172" y="-12" type="curve" smooth="yes"/>
      <point x="240" y="-12"/>
      <point x="288" y="25"/>
      <point x="288" y="101" type="curve" smooth="yes"/>
      <point x="288" y="148"/>
      <point x="257" y="176"/>
      <point x="202" y="176" type="curve" smooth="yes"/>
      <point x="124" y="176"/>
      <point x="83" y="125"/>
      <point x="83" y="61" type="curve" smooth="yes"/>
      <point x="83" y="23"/>
      <point x="104" y="-12"/>
    </contour>
  </outline>
</glyph>
<glyph name="at" format="2">
  <advance width="861"/>
  <unicode hex="0040"/>
  <outline>
    <contour>
      <point x="358" y="-91" type="curve" smooth="yes"/>
      <point x="439" y="-91"/>
      <point x="530" y="-69"/>
      <point x="580" y="-43" type="curve"/>
      <point x="581" y="67" type="line"/>
      <point x="505" y="36"/>
      <point x="411" y="21"/>
      <point x="354" y="21" type="curve" smooth="yes"/>
      <point x="266" y="21"/>
      <point x="165" y="97"/>
      <point x="165" y="253" type="curve" smooth="yes"/>
      <point x="165" y="471"/>
      <point x="292" y="612"/>
      <point x="464" y="612" type="curve" smooth="yes"/>
      <point x="630" y="612"/>
      <point x="705" y="531"/>
      <point x="705" y="404" type="curve" smooth="yes"/>
      <point x="705" y="270"/>
      <point x="648" y="209"/>
      <point x="600" y="209" type="curve" smooth="yes"/>
      <point x="589" y="209"/>
      <point x="584" y="217"/>
      <point x="584" y="229" type="curve" smooth="yes"/>
      <point x="584" y="247"/>
      <point x="588" y="267"/>
      <point x="595" y="297" type="curve" smooth="yes"/>
      <point x="643" y="498" type="line"/>
      <point x="591" y="518"/>
      <point x="534" y="532"/>
      <point x="487" y="532" type="curve" smooth="yes"/>
      <point x="307" y="532"/>
      <point x="227" y="374"/>
      <point x="227" y="248" type="curve" smooth="yes"/>
      <point x="227" y="159"/>
      <point x="276" y="101"/>
      <point x="348" y="101" type="curve" smooth="yes"/>
      <point x="406" y="101"/>
      <point x="444" y="122"/>
      <point x="474" y="164" type="curve"/>
      <point x="479" y="164" type="line"/>
      <point x="496" y="120"/>
      <point x="531" y="101"/>
      <point x="580" y="101" type="curve" smooth="yes"/>
      <point x="720" y="101"/>
      <point x="831" y="237"/>
      <point x="831" y="408" type="curve" smooth="yes"/>
      <point x="831" y="608"/>
      <point x="696" y="724"/>
      <point x="477" y="724" type="curve" smooth="yes"/>
      <point x="245" y="724"/>
      <point x="39" y="554"/>
      <point x="39" y="240" type="curve" smooth="yes"/>
      <point x="39" y="32"/>
      <point x="174" y="-91"/>
    </contour>
    <contour>
      <point x="396" y="209" type="curve" smooth="yes"/>
      <point x="374" y="209"/>
      <point x="362" y="224"/>
      <point x="362" y="259" type="curve" smooth="yes"/>
      <point x="362" y="321"/>
      <point x="397" y="424"/>
      <point x="475" y="424" type="curve" smooth="yes"/>
      <point x="483" y="424"/>
      <point x="490" y="422"/>
      <point x="496" y="419" type="curve"/>
      <point x="474" y="325" type="line" smooth="yes"/>
      <point x="453" y="235"/>
      <point x="429" y="209"/>
    </contour>
  </outline>
</glyph>
<glyph name="A" format="2">
  <advance width="653"/>
  <unicode hex="0041"/>
  <anchor x="270" y="0" name="bottom"/>
  <anchor x="422" y="714" name="top"/>
  <anchor x="730" y="714" name="topright"/>
  <outline>
    <contour>
      <point x="-56" y="0" type="line"/>
      <point x="142" y="0" type="line"/>
      <point x="196" y="134" type="line"/>
      <point x="401" y="134" type="line"/>
      <point x="403" y="0" type="line"/>
      <point x="589" y="0" type="line"/>
      <point x="542" y="714" type="line"/>
      <point x="294" y="714" type="line"/>
    </contour>
    <contour>
      <point x="267" y="286" type="line"/>
      <point x="361" y="495" type="line" smooth="yes"/>
      <point x="374" y="525"/>
      <point x="383" y="553"/>
      <point x="392" y="583" type="curve"/>
      <point x="395" y="583" type="line"/>
      <point x="394" y="555"/>
      <point x="393" y="523"/>
      <point x="394" y="491" type="curve" smooth="yes"/>
      <point x="397" y="286" type="line"/>
    </contour>
  </outline>
</glyph>
<glyph name="B" format="2">
  <advance width="605"/>
  <unicode hex="0042"/>
  <anchor x="277" y="0" name="bottom"/>
  <anchor x="399" y="714" name="top"/>
  <anchor x="682" y="714" name="topright"/>
  <outline>
    <contour>
      <point x="13" y="0" type="line"/>
      <point x="269" y="0" type="line" smooth="yes"/>
      <point x="422" y="0"/>
      <point x="545" y="68"/>
      <point x="545" y="236" type="curve" smooth="yes"/>
      <point x="545" y="303"/>
      <point x="511" y="351"/>
      <point x="460" y="370" type="curve"/>
      <point x="460" y="374" type="line"/>
      <point x="548" y="402"/>
      <point x="597" y="462"/>
      <point x="597" y="560" type="curve" smooth="yes"/>
      <point x="597" y="650"/>
      <point x="545" y="714"/>
      <point x="397" y="714" type="curve" smooth="yes"/>
      <point x="164" y="714" type="line"/>
    </contour>
    <contour>
      <point x="264" y="149" type="curve" smooth="yes"/>
      <point x="237" y="149" type="line"/>
      <point x="268" y="299" type="line"/>
      <point x="288" y="299" type="line" smooth="yes"/>
      <point x="337" y="299"/>
      <point x="353" y="277"/>
      <point x="353" y="234" type="curve" smooth="yes"/>
      <point x="353" y="186"/>
      <point x="316" y="149"/>
    </contour>
    <contour>
      <point x="322" y="440" type="curve" smooth="yes"/>
      <point x="297" y="440" type="line"/>
      <point x="325" y="568" type="line"/>
      <point x="345" y="568" type="line" smooth="yes"/>
      <point x="381" y="568"/>
      <point x="399" y="550"/>
      <point x="399" y="519" type="curve" smooth="yes"/>
      <point x="399" y="473"/>
      <point x="386" y="440"/>
    </contour>
  </outline>
</glyph>
<glyph name="C" format="2">
  <advance width="603"/>
  <unicode hex="0043"/>
  <anchor x="313" y="0" name="bottom"/>
  <anchor x="415" y="714" name="top"/>
  <anchor x="679" y="714" name="topright"/>
  <outline>
    <contour>
      <point x="297" y="-10" type="curve" smooth="yes"/>
      <point x="365" y="-10"/>
      <point x="433" y="3"/>
      <point x="507" y="34" type="curve"/>
      <point x="508" y="192" type="line"/>
      <point x="437" y="162"/>
      <point x="389" y="148"/>
      <point x="333" y="148" type="curve" smooth="yes"/>
      <point x="276" y="148"/>
      <point x="242" y="190"/>
      <point x="242" y="275" type="curve" smooth="yes"/>
      <point x="242" y="422"/>
      <point x="310" y="566"/>
      <point x="412" y="566" type="curve" smooth="yes"/>
      <point x="460" y="566"/>
      <point x="502" y="548"/>
      <point x="560" y="512" type="curve"/>
      <point x="634" y="661" type="line"/>
      <point x="571" y="701"/>
      <point x="502" y="725"/>
      <point x="413" y="725" type="curve" smooth="yes"/>
      <point x="155" y="725"/>
      <point x="49" y="477"/>
      <point x="49" y="264" type="curve" smooth="yes"/>
      <point x="49" y="100"/>
      <point x="128" y="-10"/>
    </contour>
  </outline>
</glyph>
<glyph name="D" format="2">
  <advance width="652"/>
  <unicode hex="0044"/>
  <anchor x="270" y="0" name="bottom"/>
  <anchor x="370" y="357" name="center"/>
  <anchor x="411" y="714" name="top"/>
  <anchor x="728" y="714" name="topright"/>
  <outline>
    <contour>
      <point x="13" y="0" type="line"/>
      <point x="234" y="0" type="line" smooth="yes"/>
      <point x="478" y="0"/>
      <point x="627" y="170"/>
      <point x="627" y="448" type="curve" smooth="yes"/>
      <point x="627" y="621"/>
      <point x="524" y="714"/>
      <point x="359" y="714" type="curve" smooth="yes"/>
      <point x="164" y="714" type="line"/>
    </contour>
    <contour>
      <point x="268" y="158" type="curve" smooth="yes"/>
      <point x="240" y="158" type="line"/>
      <point x="320" y="558" type="line"/>
      <point x="349" y="558" type="line" smooth="yes"/>
      <point x="403" y="558"/>
      <point x="434" y="516"/>
      <point x="434" y="437" type="curve" smooth="yes"/>
      <point x="434" y="271"/>
      <point x="361" y="158"/>
    </contour>
  </outline>
</glyph>
<glyph name="E" format="2">
  <advance width="539"/>
  <unicode hex="0045"/>
  <anchor x="241" y="0" name="bottom"/>
  <anchor x="376" y="714" name="top"/>
  <anchor x="615" y="714" name="topright"/>
  <outline>
    <contour>
      <point x="13" y="0" type="line"/>
      <point x="421" y="0" type="line"/>
      <point x="456" y="157" type="line"/>
      <point x="239" y="157" type="line"/>
      <point x="264" y="292" type="line"/>
      <point x="467" y="292" type="line"/>
      <point x="503" y="447" type="line"/>
      <point x="301" y="447" type="line"/>
      <point x="322" y="559" type="line"/>
      <point x="539" y="559" type="line"/>
      <point x="573" y="714" type="line"/>
      <point x="164" y="714" type="line"/>
    </contour>
  </outline>
</glyph>
<glyph name="F" format="2">
  <advance width="549"/>
  <unicode hex="0046"/>
  <anchor x="219" y="0" name="bottom"/>
  <anchor x="371" y="714" name="top"/>
  <anchor x="626" y="714" name="topright"/>
  <outline>
    <contour>
      <point x="13" y="0" type="line"/>
      <point x="204" y="0" type="line"/>
      <point x="258" y="267" type="line"/>
      <point x="458" y="267" type="line"/>
      <point x="493" y="423" type="line"/>
      <point x="295" y="423" type="line"/>
      <point x="320" y="559" type="line"/>
      <point x="535" y="559" type="line"/>
      <point x="569" y="714" type="line"/>
      <point x="164" y="714" type="line"/>
    </contour>
  </outline>
</glyph>
<glyph name="G" format="2">
  <advance width="665"/>
  <unicode hex="0047"/>
  <anchor x="315" y="0" name="bottom"/>
  <anchor x="441" y="714" name="top"/>
  <anchor x="741" y="714" name="topright"/>
  <outline>
    <contour>
      <point x="302" y="-10" type="curve" smooth="yes"/>
      <point x="403" y="-10"/>
      <point x="481" y="8"/>
      <point x="546" y="30" type="curve"/>
      <point x="629" y="418" type="line"/>
      <point x="341" y="418" type="line"/>
      <point x="306" y="269" type="line"/>
      <point x="409" y="269" type="line"/>
      <point x="385" y="156" type="line"/>
      <point x="361" y="151"/>
      <point x="351" y="149"/>
      <point x="328" y="149" type="curve" smooth="yes"/>
      <point x="274" y="149"/>
      <point x="242" y="187"/>
      <point x="242" y="275" type="curve" smooth="yes"/>
      <point x="242" y="386"/>
      <point x="290" y="566"/>
      <point x="448" y="566" type="curve" smooth="yes"/>
      <point x="503" y="566"/>
      <point x="552" y="546"/>
      <point x="589" y="522" type="curve"/>
      <point x="663" y="673" type="line"/>
      <point x="609" y="707"/>
      <point x="532" y="725"/>
      <point x="451" y="725" type="curve" smooth="yes"/>
      <point x="176" y="725"/>
      <point x="49" y="501"/>
      <point x="49" y="270" type="curve" smooth="yes"/>
      <point x="49" y="85"/>
      <point x="150" y="-10"/>
    </contour>
  </outline>
</glyph>
<glyph name="H" format="2">
  <advance width="682"/>
  <unicode hex="0048"/>
  <anchor x="282" y="0" name="bottom"/>
  <anchor x="385" y="357" name="center"/>
  <anchor x="426" y="714" name="top"/>
  <anchor x="758" y="714" name="topright"/>
  <outline>
    <contour>
      <point x="13" y="0" type="line"/>
      <point x="204" y="0" type="line"/>
      <point x="265" y="291" type="line"/>
      <point x="412" y="291" type="line"/>
      <point x="352" y="0" type="line"/>
      <point x="543" y="0" type="line"/>
      <point x="694" y="714" type="line"/>
      <point x="503" y="714" type="line"/>
      <point x="449" y="449" type="line"/>
      <point x="301" y="449" type="line"/>
      <point x="355" y="714" type="line"/>
      <point x="164" y="714" type="line"/>
    </contour>
  </outline>
</glyph>
<glyph name="I" format="2">
  <advance width="414"/>
  <unicode hex="0049"/>
  <anchor x="151" y="0" name="bottom"/>
  <anchor x="294" y="714" name="top"/>
  <anchor x="491" y="714" name="topright"/>
  <outline>
    <contour>
      <point x="-36" y="0" type="line"/>
      <point x="321" y="0" type="line"/>
      <point x="345" y="109" type="line"/>
      <point x="270" y="148" type="line"/>
      <point x="355" y="562" type="line"/>
      <point x="450" y="604" type="line"/>
      <point x="474" y="714" type="line"/>
      <point x="114" y="714" type="line"/>
      <point x="90" y="604" type="line"/>
      <point x="164" y="562" type="line"/>
      <point x="79" y="148" type="line"/>
      <point x="-12" y="109" type="line"/>
    </contour>
  </outline>
</glyph>
<glyph name="K" format="2">
  <advance width="648"/>
  <unicode hex="004B"/>
  <anchor x="282" y="0" name="bottom"/>
  <anchor x="437" y="714" name="top"/>
  <anchor x="725" y="714" name="topright"/>
  <outline>
    <contour>
      <point x="13" y="0" type="line"/>
      <point x="204" y="0" type="line"/>
      <point x="257" y="255" type="line"/>
      <point x="299" y="282" type="line"/>
      <point x="372" y="0" type="line"/>
      <point x="587" y="0" type="line"/>
      <point x="468" y="385" type="line"/>
      <point x="722" y="714" type="line"/>
      <point x="498" y="714" type="line"/>
      <point x="359" y="509" type="line"/>
      <point x="291" y="409" type="line"/>
      <point x="355" y="714" type="line"/>
      <point x="164" y="714" type="line"/>
    </contour>
  </outline>
</glyph>
<glyph name="L" format="2">
  <advance width="503"/>
  <unicode hex="004C"/>
  <anchor x="203" y="0" name="bottom"/>
  <anchor x="179" y="357" name="center"/>
  <anchor x="256" y="714" name="top"/>
  <anchor x="456" y="714" name="topright"/>
  <outline>
    <contour>
      <point x="13" y="0" type="line"/>
      <point x="421" y="0" type="line"/>
      <point x="456" y="156" type="line"/>
      <point x="239" y="156" type="line"/>
      <point x="355" y="714" type="line"/>
      <point x="164" y="714" type="line"/>
    </contour>
  </outline>
</glyph>
<glyph name="M" format="2">
  <advance width="871"/>
  <unicode hex="004D"/>
  <anchor x="361" y="0" name="bottom"/>
  <anchor x="518" y="714" name="top"/>
  <anchor x="947" y="714" name="topright"/>
  <outline>
    <contour>
      <point x="13" y="0" type="line"/>
      <point x="183" y="0" type="line"/>
      <point x="234" y="262" type="line" smooth="yes"/>
      <point x="243" y="309"/>
      <point x="265" y="432"/>
      <point x="278" y="512" type="curve" smooth="yes"/>
      <point x="282" y="512" type="line"/>
      <point x="269" y="0" type="line"/>
      <point x="451" y="0" type="line"/>
      <point x="670" y="512" type="line"/>
      <point x="674" y="512" type="line"/>
      <point x="669" y="479"/>
      <point x="647" y="418"/>
      <point x="615" y="268" type="curve" smooth="yes"/>
      <point x="558" y="0" type="line"/>
      <point x="729" y="0" type="line"/>
      <point x="883" y="714" type="line"/>
      <point x="627" y="714" type="line"/>
      <point x="408" y="207" type="line"/>
      <point x="404" y="207" type="line"/>
      <point x="417" y="714" type="line"/>
      <point x="164" y="714" type="line"/>
    </contour>
  </outline>
</glyph>
<glyph name="N" format="2">
  <advance width="759"/>
  <unicode hex="004E"/>
  <anchor x="318" y="0" name="bottom"/>
  <anchor x="470" y="714" name="top"/>
  <anchor x="835" y="714" name="topright"/>
  <outline>
    <contour>
      <point x="13" y="0" type="line"/>
      <point x="182" y="0" type="line"/>
      <point x="244" y="298" type="line" smooth="yes"/>
      <point x="258" y="363"/>
      <point x="270" y="476"/>
      <point x="272" y="502" type="curve"/>
      <point x="275" y="502" type="line"/>
      <point x="396" y="0" type="line"/>
      <point x="620" y="0" type="line"/>
      <point x="771" y="714" type="line"/>
      <point x="601" y="714" type="line"/>
      <point x="539" y="415" type="line" smooth="yes"/>
      <point x="529" y="365"/>
      <point x="516" y="234"/>
      <point x="512" y="234" type="curve" smooth="yes"/>
      <point x="508" y="234" type="line"/>
      <point x="386" y="714" type="line"/>
      <point x="164" y="714" type="line"/>
    </contour>
  </outline>
</glyph>
<glyph name="O" format="2">
  <advance width="702"/>
  <unicode hex="004F"/>
  <anchor x="310" y="0" name="bottom"/>
  <anchor x="372" y="357" name="center"/>
  <anchor x="439" y="714" name="top"/>
  <anchor x="778" y="714" name="topright"/>
  <outline>
    <contour>
      <point x="308" y="-10" type="curve" smooth="yes"/>
      <point x="561" y="-10"/>
      <point x="677" y="232"/>
      <point x="677" y="454" type="curve" smooth="yes"/>
      <point x="677" y="618"/>
      <point x="590" y="725"/>
      <point x="424" y="725" type="curve" smooth="yes"/>
      <point x="168" y="725"/>
      <point x="49" y="483"/>
      <point x="49" y="261" type="curve" smooth="yes"/>
      <point x="49" y="97"/>
      <point x="135" y="-10"/>
    </contour>
    <contour>
      <point x="328" y="148" type="curve" smooth="yes"/>
      <point x="270" y="148"/>
      <point x="242" y="188"/>
      <point x="242" y="263" type="curve" smooth="yes"/>
      <point x="242" y="407"/>
      <point x="307" y="567"/>
      <point x="406" y="567" type="curve" smooth="yes"/>
      <point x="456" y="567"/>
      <point x="484" y="523"/>
      <point x="484" y="450" type="curve" smooth="yes"/>
      <point x="484" y="287"/>
      <point x="415" y="148"/>
    </contour>
  </outline>
</glyph>
<glyph name="P" format="2">
  <advance width="595"/>
  <unicode hex="0050"/>
  <anchor x="242" y="0" name="bottom"/>
  <anchor x="397" y="714" name="top"/>
  <anchor x="672" y="714" name="topright"/>
  <outline>
    <contour>
      <point x="13" y="0" type="line"/>
      <point x="204" y="0" type="line"/>
      <point x="252" y="237" type="line"/>
      <point x="284" y="237" type="line" smooth="yes"/>
      <point x="463" y="237"/>
      <point x="585" y="330"/>
      <point x="585" y="503" type="curve" smooth="yes"/>
      <point x="585" y="621"/>
      <point x="514" y="714"/>
      <point x="333" y="714" type="curve" smooth="yes"/>
      <point x="164" y="714" type="line"/>
    </contour>
    <contour>
      <point x="310" y="393" type="curve" smooth="yes"/>
      <point x="288" y="393" type="line"/>
      <point x="320" y="558" type="line"/>
      <point x="339" y="558" type="line" smooth="yes"/>
      <point x="379" y="558"/>
      <point x="394" y="528"/>
      <point x="394" y="495" type="curve" smooth="yes"/>
      <point x="394" y="437"/>
      <point x="361" y="393"/>
    </contour>
  </outline>
</glyph>
<glyph name="Q" format="2">
  <advance width="702"/>
  <unicode hex="0051"/>
  <anchor x="279" y="-90" name="bottom"/>
  <anchor x="439" y="714" name="top"/>
  <anchor x="778" y="714" name="topright"/>
  <outline>
    <contour>
      <point x="302" y="-10" type="curve"/>
      <point x="373" y="-170" type="line"/>
      <point x="586" y="-170" type="line"/>
      <point x="479" y="36" type="line"/>
      <point x="614" y="117"/>
      <point x="677" y="291"/>
      <point x="677" y="454" type="curve" smooth="yes"/>
      <point x="677" y="618"/>
      <point x="590" y="725"/>
      <point x="427" y="725" type="curve" smooth="yes"/>
      <point x="168" y="725"/>
      <point x="49" y="483"/>
      <point x="49" y="261" type="curve" smooth="yes"/>
      <point x="49" y="97"/>
      <point x="135" y="-10"/>
      <point x="292" y="-10" type="curve" smooth="yes"/>
      <point x="296" y="-10"/>
      <point x="298" y="-10"/>
    </contour>
    <contour>
      <point x="317" y="151" type="curve" smooth="yes"/>
      <point x="270" y="151"/>
      <point x="242" y="188"/>
      <point x="242" y="261" type="curve" smooth="yes"/>
      <point x="242" y="424"/>
      <point x="313" y="565"/>
      <point x="409" y="565" type="curve" smooth="yes"/>
      <point x="456" y="565"/>
      <point x="484" y="527"/>
      <point x="484" y="452" type="curve" smooth="yes"/>
      <point x="484" y="291"/>
      <point x="416" y="151"/>
    </contour>
  </outline>
</glyph>
<glyph name="R" format="2">
  <advance width="627"/>
  <unicode hex="0052"/>
  <anchor x="266" y="0" name="bottom"/>
  <anchor x="404" y="714" name="top"/>
  <anchor x="704" y="714" name="topright"/>
  <outline>
    <contour>
      <point x="13" y="0" type="line"/>
      <point x="204" y="0" type="line"/>
      <point x="258" y="260" type="line"/>
      <point x="288" y="260" type="line"/>
      <point x="374" y="0" type="line"/>
      <point x="582" y="0" type="line"/>
      <point x="462" y="299" type="line"/>
      <point x="515" y="326"/>
      <point x="591" y="388"/>
      <point x="591" y="521" type="curve" smooth="yes"/>
      <point x="591" y="650"/>
      <point x="506" y="714"/>
      <point x="347" y="714" type="curve" smooth="yes"/>
      <point x="164" y="714" type="line"/>
    </contour>
    <contour>
      <point x="311" y="405" type="curve" smooth="yes"/>
      <point x="290" y="405" type="line"/>
      <point x="323" y="568" type="line"/>
      <point x="345" y="568" type="line" smooth="yes"/>
      <point x="387" y="568"/>
      <point x="401" y="541"/>
      <point x="401" y="507" type="curve" smooth="yes"/>
      <point x="401" y="433"/>
      <point x="352" y="405"/>
    </contour>
  </outline>
</glyph>
<glyph name="S" format="2">
  <advance width="525"/>
  <unicode hex="0053"/>
  <anchor x="196" y="0" name="bottom"/>
  <anchor x="348" y="714" name="top"/>
  <anchor x="602" y="714" name="topright"/>
  <outline>
    <contour>
      <point x="198" y="-10" type="curve" smooth="yes"/>
      <point x="370" y="-10"/>
      <point x="459" y="78"/>
      <point x="459" y="222" type="curve" smooth="yes"/>
      <point x="459" y="300"/>
      <point x="428" y="358"/>
      <point x="355" y="416" type="curve" smooth="yes"/>
      <point x="296" y="463"/>
      <point x="283" y="486"/>
      <point x="283" y="515" type="curve" smooth="yes"/>
      <point x="283" y="537"/>
      <point x="286" y="570"/>
      <point x="339" y="570" type="curve" smooth="yes"/>
      <point x="381" y="570"/>
      <point x="433" y="550"/>
      <point x="474" y="527" type="curve"/>
      <point x="541" y="672" type="line"/>
      <point x="486" y="705"/>
      <point x="413" y="724"/>
      <point x="339" y="724" type="curve" smooth="yes"/>
      <point x="194" y="724"/>
      <point x="94" y="630"/>
      <point x="94" y="499" type="curve" smooth="yes"/>
      <point x="94" y="414"/>
      <point x="129" y="357"/>
      <point x="192" y="303" type="curve" smooth="yes"/>
      <point x="233" y="268"/>
      <point x="266" y="241"/>
      <point x="266" y="205" type="curve" smooth="yes"/>
      <point x="266" y="168"/>
      <point x="248" y="147"/>
      <point x="206" y="147" type="curve" smooth="yes"/>
      <point x="149" y="147"/>
      <point x="70" y="176"/>
      <point x="23" y="208" type="curve"/>
      <point x="21" y="37" type="line"/>
      <point x="66" y="7"/>
      <point x="130" y="-10"/>
    </contour>
  </outline>
</glyph>
<glyph name="T" format="2">
  <advance width="530"/>
  <unicode hex="0054"/>
  <anchor x="198" y="0" name="bottom"/>
  <anchor x="279" y="357" name="center"/>
  <anchor x="360" y="714" name="top"/>
  <anchor x="606" y="714" name="topright"/>
  <outline>
    <contour>
      <point x="106" y="0" type="line"/>
      <point x="297" y="0" type="line"/>
      <point x="411" y="556" type="line"/>
      <point x="555" y="556" type="line"/>
      <point x="592" y="714" type="line"/>
      <point x="113" y="714" type="line"/>
      <point x="77" y="556" type="line"/>
      <point x="220" y="556" type="line"/>
    </contour>
  </outline>
</glyph>
<glyph name="U" format="2">
  <advance width="668"/>
  <unicode hex="0055"/>
  <anchor x="270" y="0" name="bottom"/>
  <anchor x="417" y="714" name="top"/>
  <anchor x="745" y="714" name="topright"/>
  <outline>
    <contour>
      <point x="283" y="-10" type="curve" smooth="yes"/>
      <point x="466" y="-10"/>
      <point x="547" y="85"/>
      <point x="585" y="259" type="curve" smooth="yes"/>
      <point x="682" y="714" type="line"/>
      <point x="491" y="714" type="line"/>
      <point x="398" y="278" type="line" smooth="yes"/>
      <point x="378" y="185"/>
      <point x="350" y="150"/>
      <point x="303" y="150" type="curve" smooth="yes"/>
      <point x="269" y="150"/>
      <point x="250" y="173"/>
      <point x="250" y="211" type="curve" smooth="yes"/>
      <point x="250" y="228"/>
      <point x="254" y="248"/>
      <point x="258" y="268" type="curve" smooth="yes"/>
      <point x="353" y="714" type="line"/>
      <point x="161" y="714" type="line"/>
      <point x="65" y="263" type="line" smooth="yes"/>
      <point x="60" y="241"/>
      <point x="58" y="215"/>
      <point x="58" y="195" type="curve" smooth="yes"/>
      <point x="58" y="76"/>
      <point x="143" y="-10"/>
    </contour>
  </outline>
</glyph>
<glyph name="V" format="2">
  <advance width="592"/>
  <unicode hex="0056"/>
  <anchor x="215" y="0" name="bottom"/>
  <anchor x="362" y="714" name="top"/>
  <anchor x="669" y="714" name="topright"/>
  <outline>
    <contour>
      <point x="111" y="0" type="line"/>
      <point x="325" y="0" type="line"/>
      <point x="666" y="714" type="line"/>
      <point x="464" y="714" type="line"/>
      <point x="306" y="321" type="line" smooth="yes"/>
      <point x="294" y="291"/>
      <point x="270" y="225"/>
      <point x="259" y="173" type="curve"/>
      <point x="255" y="173" type="line"/>
      <point x="263" y="213"/>
      <point x="266" y="302"/>
      <point x="265" y="354" type="curve" smooth="yes"/>
      <point x="260" y="714" type="line"/>
      <point x="73" y="714" type="line"/>
    </contour>
  </outline>
</glyph>
<glyph name="W" format="2">
  <advance width="898"/>
  <unicode hex="0057"/>
  <anchor x="381" y="0" name="bottom"/>
  <anchor x="527" y="714" name="top"/>
  <anchor x="974" y="714" name="topright"/>
  <outline>
    <contour>
      <point x="90" y="0" type="line"/>
      <point x="302" y="0" type="line"/>
      <point x="400" y="259" type="line" smooth="yes"/>
      <point x="422" y="318"/>
      <point x="446" y="375"/>
      <point x="466" y="437" type="curve"/>
      <point x="470" y="437" type="line"/>
      <point x="465" y="383"/>
      <point x="462" y="324"/>
      <point x="461" y="274" type="curve" smooth="yes"/>
      <point x="456" y="0" type="line"/>
      <point x="683" y="0" type="line"/>
      <point x="984" y="714" type="line"/>
      <point x="796" y="714" type="line"/>
      <point x="669" y="372" type="line" smooth="yes"/>
      <point x="648" y="316"/>
      <point x="618" y="232"/>
      <point x="604" y="180" type="curve"/>
      <point x="600" y="180" type="line"/>
      <point x="605" y="227"/>
      <point x="606" y="294"/>
      <point x="607" y="327" type="curve" smooth="yes"/>
      <point x="613" y="714" type="line"/>
      <point x="451" y="714" type="line"/>
      <point x="294" y="337" type="line" smooth="yes"/>
      <point x="274" y="290"/>
      <point x="251" y="232"/>
      <point x="238" y="188" type="curve"/>
      <point x="234" y="188" type="line"/>
      <point x="239" y="232"/>
      <point x="243" y="300"/>
      <point x="245" y="356" type="curve" smooth="yes"/>
      <point x="255" y="714" type="line"/>
      <point x="74" y="714" type="line"/>
    </contour>
  </outline>
</glyph>
<glyph name="X" format="2">
  <advance width="643"/>
  <unicode hex="0058"/>
  <anchor x="266" y="0" name="bottom"/>
  <anchor x="401" y="714" name="top"/>
  <anchor x="719" y="714" name="topright"/>
  <outline>
    <contour>
      <point x="-59" y="0" type="line"/>
      <point x="159" y="0" type="line"/>
      <point x="311" y="243" type="line"/>
      <point x="373" y="0" type="line"/>
      <point x="585" y="0" type="line"/>
      <point x="468" y="360" type="line"/>
      <point x="721" y="714" type="line"/>
      <point x="501" y="714" type="line"/>
      <point x="361" y="485" type="line"/>
      <point x="310" y="714" type="line"/>
      <point x="107" y="714" type="line"/>
      <point x="205" y="379" type="line"/>
    </contour>
  </outline>
</glyph>
<glyph name="Y" format="2">
  <advance width="583"/>
  <unicode hex="0059"/>
  <anchor x="225" y="0" name="bottom"/>
  <anchor x="363" y="714" name="top"/>
  <anchor x="660" y="714" name="topright"/>
  <outline>
    <contour>
      <point x="128" y="0" type="line"/>
      <point x="319" y="0" type="line"/>
      <point x="378" y="277" type="line"/>
      <point x="666" y="714" type="line"/>
      <point x="453" y="714" type="line"/>
      <point x="313" y="449" type="line"/>
      <point x="278" y="714" type="line"/>
      <point x="81" y="714" type="line"/>
      <point x="187" y="277" type="line"/>
    </contour>
  </outline>
</glyph>
<glyph name="Z" format="2">
  <advance width="513"/>
  <unicode hex="005A"/>
  <anchor x="187" y="0" name="bottom"/>
  <anchor x="353" y="714" name="top"/>
  <anchor x="590" y="714" name="topright"/>
  <outline>
    <contour>
      <point x="-46" y="0" type="line"/>
      <point x="440" y="0" type="line"/>
      <point x="474" y="156" type="line"/>
      <point x="228" y="156" type="line"/>
      <point x="549" y="594" type="line"/>
      <point x="575" y="714" type="line"/>
      <point x="113" y="714" type="line"/>
      <point x="78" y="558" type="line"/>
      <point x="293" y="558" type="line"/>
      <point x="-22" y="118" type="line"/>
    </contour>
  </outline>
</glyph>
<glyph name="bracketleft" format="2">
  <advance width="349"/>
  <unicode hex="005B"/>
  <outline>
    <contour>
      <point x="-28" y="-168" type="line"/>
      <point x="224" y="-168" type="line"/>
      <point x="251" y="-44" type="line"/>
      <point x="152" y="-44" type="line"/>
      <point x="290" y="610" type="line"/>
      <point x="390" y="610" type="line"/>
      <point x="418" y="734" type="line"/>
      <point x="165" y="734" type="line"/>
    </contour>
  </outline>
</glyph>
<glyph name="backslash" format="2">
  <advance width="454"/>
  <unicode hex="005C"/>
  <outline>
    <contour>
      <point x="215" y="-10" type="line"/>
      <point x="369" y="-10" type="line"/>
      <point x="259" y="724" type="line"/>
      <point x="110" y="724" type="line"/>
    </contour>
  </outline>
</glyph>
<glyph name="bracketright" format="2">
  <advance width="349"/>
  <unicode hex="005D"/>
  <outline>
    <contour>
      <point x="-63" y="-168" type="line"/>
      <point x="187" y="-168" type="line"/>
      <point x="381" y="734" type="line"/>
      <point x="129" y="734" type="line"/>
      <point x="101" y="610" type="line"/>
      <point x="201" y="610" type="line"/>
      <point x="63" y="-44" type="line"/>
      <point x="-36" y="-44" type="line"/>
    </contour>
  </outline>
</glyph>
<glyph name="asciicircum" format="2">
  <advance width="504"/>
  <unicode hex="005E"/>
  <outline>
    <contour>
      <point x="-5" y="245" type="line"/>
      <point x="139" y="245" type="line"/>
      <point x="304" y="523" type="line"/>
      <point x="371" y="245" type="line"/>
      <point x="504" y="245" type="line"/>
      <point x="376" y="714" type="line"/>
      <point x="294" y="714" type="line"/>
    </contour>
  </outline>
</glyph>
<glyph name="grave" format="2">
  <advance width="347"/>
  <unicode hex="0060"/>
  <anchor x="279" y="553" name="_top"/>
  <outline>
    <contour>
      <point x="262" y="606" type="curve"/>
      <point x="377" y="606" type="line"/>
      <point x="377" y="618" type="line"/>
      <point x="356" y="669"/>
      <point x="343" y="723"/>
      <point x="337" y="766" type="curve"/>
      <point x="144" y="766" type="line"/>
      <point x="144" y="756" type="line"/>
      <point x="167" y="707"/>
      <point x="220" y="647"/>
    </contour>
  </outline>
</glyph>
<glyph name="a" format="2">
  <advance width="579"/>
  <unicode hex="0061"/>
  <anchor x="204" y="0" name="bottom"/>
  <anchor x="352" y="553" name="top"/>
  <anchor x="602" y="553" name="topright"/>
  <outline>
    <contour>
      <point x="188" y="-10" type="curve" smooth="yes"/>
      <point x="248" y="-10"/>
      <point x="281" y="19"/>
      <point x="307" y="60" type="curve"/>
      <point x="311" y="60" type="line"/>
      <point x="306" y="0" type="line"/>
      <point x="459" y="0" type="line"/>
      <point x="576" y="553" type="line"/>
      <point x="424" y="553" type="line"/>
      <point x="399" y="485" type="line"/>
      <point x="395" y="485" type="line"/>
      <point x="369" y="532"/>
      <point x="334" y="563"/>
      <point x="276" y="563" type="curve" smooth="yes"/>
      <point x="112" y="563"/>
      <point x="40" y="332"/>
      <point x="40" y="196" type="curve" smooth="yes"/>
      <point x="40" y="43"/>
      <point x="107" y="-10"/>
    </contour>
    <contour>
      <point x="268" y="142" type="curve" smooth="yes"/>
      <point x="245" y="142"/>
      <point x="233" y="166"/>
      <point x="233" y="210" type="curve" smooth="yes"/>
      <point x="233" y="305"/>
      <point x="275" y="411"/>
      <point x="320" y="411" type="curve" smooth="yes"/>
      <point x="342" y="411"/>
      <point x="351" y="384"/>
      <point x="351" y="343" type="curve" smooth="yes"/>
      <point x="351" y="323"/>
      <point x="350" y="302"/>
      <point x="346" y="280" type="curve" smooth="yes"/>
      <point x="333" y="209"/>
      <point x="305" y="142"/>
    </contour>
  </outline>
</glyph>
<glyph name="b" format="2">
  <advance width="579"/>
  <unicode hex="0062"/>
  <anchor x="239" y="0" name="bottom"/>
  <anchor x="393" y="760" name="top"/>
  <anchor x="606" y="760" name="topright"/>
  <outline>
    <contour>
      <point x="310" y="-10" type="curve" smooth="yes"/>
      <point x="475" y="-10"/>
      <point x="545" y="221"/>
      <point x="545" y="357" type="curve" smooth="yes"/>
      <point x="545" y="510"/>
      <point x="479" y="563"/>
      <point x="397" y="563" type="curve"/>
      <point x="340" y="563"/>
      <point x="319" y="532"/>
      <point x="296" y="500" type="curve"/>
      <point x="292" y="500" type="line"/>
      <point x="289" y="500"/>
      <point x="319" y="564"/>
      <point x="336" y="647" type="curve" smooth="yes"/>
      <point x="359" y="760" type="line"/>
      <point x="170" y="760" type="line"/>
      <point x="9" y="0" type="line"/>
      <point x="160" y="0" type="line"/>
      <point x="182" y="61" type="line"/>
      <point x="186" y="61" type="line"/>
      <point x="226" y="10"/>
      <point x="260" y="-10"/>
    </contour>
    <contour>
      <point x="263" y="142" type="curve"/>
      <point x="243" y="142"/>
      <point x="235" y="169"/>
      <point x="235" y="209" type="curve" smooth="yes"/>
      <point x="235" y="292"/>
      <point x="269" y="411"/>
      <point x="317" y="411" type="curve" smooth="yes"/>
      <point x="340" y="411"/>
      <point x="352" y="387"/>
      <point x="352" y="343" type="curve" smooth="yes"/>
      <point x="352" y="248"/>
      <point x="309" y="142"/>
    </contour>
  </outline>
</glyph>
<glyph name="c" format="2">
  <advance width="484"/>
  <unicode hex="0063"/>
  <anchor x="240" y="0" name="bottom"/>
  <anchor x="331" y="553" name="top"/>
  <anchor x="507" y="553" name="topright"/>
  <outline>
    <contour>
      <point x="235" y="-10" type="curve" smooth="yes"/>
      <point x="310" y="-10"/>
      <point x="363" y="6"/>
      <point x="414" y="34" type="curve"/>
      <point x="415" y="184" type="line"/>
      <point x="368" y="158"/>
      <point x="327" y="142"/>
      <point x="283" y="142" type="curve" smooth="yes"/>
      <point x="251" y="142"/>
      <point x="231" y="162"/>
      <point x="231" y="225" type="curve" smooth="yes"/>
      <point x="231" y="298"/>
      <point x="264" y="413"/>
      <point x="335" y="413" type="curve" smooth="yes"/>
      <point x="368" y="413"/>
      <point x="403" y="399"/>
      <point x="434" y="384" type="curve"/>
      <point x="495" y="524" type="line"/>
      <point x="440" y="550"/>
      <point x="387" y="563"/>
      <point x="328" y="563" type="curve" smooth="yes"/>
      <point x="156" y="563"/>
      <point x="41" y="409"/>
      <point x="41" y="212" type="curve" smooth="yes"/>
      <point x="41" y="54"/>
      <point x="130" y="-10"/>
    </contour>
  </outline>
</glyph>
<glyph name="e" format="2">
  <advance width="555"/>
  <unicode hex="0065"/>
  <anchor x="250" y="0" name="bottom"/>
  <anchor x="342" y="553" name="top"/>
  <anchor x="598" y="553" name="topright"/>
  <outline>
    <contour>
      <point x="246" y="-10" type="curve" smooth="yes"/>
      <point x="342" y="-10"/>
      <point x="395" y="10"/>
      <point x="452" y="40" type="curve"/>
      <point x="454" y="174" type="line"/>
      <point x="401" y="144"/>
      <point x="354" y="126"/>
      <point x="301" y="126" type="curve" smooth="yes"/>
      <point x="253" y="126"/>
      <point x="230" y="149"/>
      <point x="230" y="198" type="curve" smooth="yes"/>
      <point x="230" y="201"/>
      <point x="230" y="203"/>
      <point x="230" y="206" type="curve"/>
      <point x="258" y="206" type="line" smooth="yes"/>
      <point x="454" y="206"/>
      <point x="539" y="288"/>
      <point x="539" y="411" type="curve" smooth="yes"/>
      <point x="539" y="503"/>
      <point x="465" y="563"/>
      <point x="348" y="563" type="curve" smooth="yes"/>
      <point x="138" y="563"/>
      <point x="40" y="387"/>
      <point x="40" y="206" type="curve" smooth="yes"/>
      <point x="40" y="72"/>
      <point x="112" y="-10"/>
    </contour>
    <contour>
      <point x="261" y="324" type="curve" smooth="yes"/>
      <point x="250" y="324" type="line"/>
      <point x="255" y="375"/>
      <point x="284" y="435"/>
      <point x="324" y="435" type="curve" smooth="yes"/>
      <point x="349" y="435"/>
      <point x="360" y="419"/>
      <point x="360" y="399" type="curve" smooth="yes"/>
      <point x="360" y="364"/>
      <point x="336" y="324"/>
    </contour>
  </outline>
</glyph>
<glyph name="f" format="2">
  <advance width="398"/>
  <unicode hex="0066"/>
  <anchor x="1" y="-240" name="bottom"/>
  <anchor x="356" y="765" name="top"/>
  <anchor x="524" y="765" name="topright"/>
  <outline>
    <contour>
      <point x="1" y="-240" type="curve" smooth="yes"/>
      <point x="132" y="-240"/>
      <point x="193" y="-163"/>
      <point x="215" y="-57" type="curve" smooth="yes"/>
      <point x="314" y="411" type="line"/>
      <point x="410" y="411" type="line"/>
      <point x="444" y="553" type="line"/>
      <point x="347" y="553" type="line"/>
      <point x="355" y="588" type="line" smooth="yes"/>
      <point x="360" y="611"/>
      <point x="374" y="623"/>
      <point x="393" y="623" type="curve" smooth="yes"/>
      <point x="412" y="623"/>
      <point x="434" y="617"/>
      <point x="452" y="608" type="curve"/>
      <point x="501" y="737" type="line"/>
      <point x="469" y="754"/>
      <point x="416" y="765"/>
      <point x="365" y="765" type="curve" smooth="yes"/>
      <point x="258" y="765"/>
      <point x="194" y="712"/>
      <point x="166" y="587" type="curve" smooth="yes"/>
      <point x="158" y="551" type="line"/>
      <point x="70" y="504" type="line"/>
      <point x="48" y="411" type="line"/>
      <point x="125" y="411" type="line"/>
      <point x="34" y="-27" type="line" smooth="yes"/>
      <point x="25" y="-69"/>
      <point x="5" y="-88"/>
      <point x="-42" y="-88" type="curve" smooth="yes"/>
      <point x="-59" y="-88"/>
      <point x="-80" y="-84"/>
      <point x="-96" y="-79" type="curve"/>
      <point x="-98" y="-227" type="line"/>
      <point x="-76" y="-234"/>
      <point x="-33" y="-240"/>
    </contour>
  </outline>
</glyph>
<glyph name="h" format="2">
  <advance width="595"/>
  <unicode hex="0068"/>
  <anchor x="248" y="0" name="bottom"/>
  <anchor x="305" y="277" name="center"/>
  <anchor x="261" y="760" name="top"/>
  <anchor x="626" y="760" name="topright"/>
  <outline>
    <contour>
      <point x="9" y="0" type="line"/>
      <point x="198" y="0" type="line"/>
      <point x="256" y="270" type="line" smooth="yes"/>
      <point x="278" y="372"/>
      <point x="305" y="413"/>
      <point x="333" y="413" type="curve" smooth="yes"/>
      <point x="348" y="413"/>
      <point x="364" y="399"/>
      <point x="364" y="372" type="curve" smooth="yes"/>
      <point x="364" y="349"/>
      <point x="359" y="319"/>
      <point x="355" y="302" type="curve" smooth="yes"/>
      <point x="293" y="0" type="line"/>
      <point x="482" y="0" type="line"/>
      <point x="543" y="294" type="line" smooth="yes"/>
      <point x="551" y="330"/>
      <point x="556" y="371"/>
      <point x="556" y="408" type="curve" smooth="yes"/>
      <point x="556" y="492"/>
      <point x="516" y="563"/>
      <point x="418" y="563" type="curve" smooth="yes"/>
      <point x="368" y="563"/>
      <point x="326" y="544"/>
      <point x="295" y="500" type="curve"/>
      <point x="291" y="500" type="line"/>
      <point x="308" y="534"/>
      <point x="324" y="591"/>
      <point x="334" y="638" type="curve" smooth="yes"/>
      <point x="359" y="760" type="line"/>
      <point x="170" y="760" type="line"/>
    </contour>
  </outline>
</glyph>
<glyph name="i" format="2">
  <advance width="315"/>
  <unicode hex="0069"/>
  <anchor x="102" y="0" name="bottom"/>
  <anchor x="269" y="777" name="top"/>
  <anchor x="407" y="777" name="topright"/>
  <outline>
    <contour>
      <point x="9" y="0" type="line"/>
      <point x="198" y="0" type="line"/>
      <point x="317" y="553" type="line"/>
      <point x="126" y="553" type="line"/>
    </contour>
    <contour>
      <point x="241" y="606" type="curve" smooth="yes"/>
      <point x="317" y="606"/>
      <point x="352" y="648"/>
      <point x="352" y="709" type="curve" smooth="yes"/>
      <point x="352" y="759"/>
      <point x="309" y="777"/>
      <point x="260" y="777" type="curve" smooth="yes"/>
      <point x="191" y="777"/>
      <point x="149" y="741"/>
      <point x="149" y="674" type="curve" smooth="yes"/>
      <point x="149" y="624"/>
      <point x="189" y="606"/>
    </contour>
  </outline>
</glyph>
<glyph name="j" format="2">
  <advance width="315"/>
  <unicode hex="006A"/>
  <anchor x="-26" y="-240" name="bottom"/>
  <anchor x="269" y="777" name="top"/>
  <anchor x="412" y="777" name="topright"/>
  <outline>
    <contour>
      <point x="-26" y="-240" type="curve" smooth="yes"/>
      <point x="111" y="-240"/>
      <point x="172" y="-146"/>
      <point x="193" y="-46" type="curve" smooth="yes"/>
      <point x="319" y="553" type="line"/>
      <point x="130" y="553" type="line"/>
      <point x="10" y="-16" type="line" smooth="yes"/>
      <point x="-1" y="-68"/>
      <point x="-34" y="-88"/>
      <point x="-72" y="-88" type="curve" smooth="yes"/>
      <point x="-87" y="-88"/>
      <point x="-100" y="-87"/>
      <point x="-123" y="-79" type="curve"/>
      <point x="-125" y="-227" type="line"/>
      <point x="-103" y="-234"/>
      <point x="-60" y="-240"/>
    </contour>
    <contour>
      <point x="246" y="606" type="curve" smooth="yes"/>
      <point x="321" y="606"/>
      <point x="356" y="648"/>
      <point x="356" y="709" type="curve" smooth="yes"/>
      <point x="356" y="759"/>
      <point x="314" y="777"/>
      <point x="264" y="777" type="curve" smooth="yes"/>
      <point x="195" y="777"/>
      <point x="154" y="741"/>
      <point x="154" y="674" type="curve" smooth="yes"/>
      <point x="154" y="624"/>
      <point x="193" y="606"/>
    </contour>
  </outline>
</glyph>
<glyph name="k" format="2">
  <advance width="598"/>
  <unicode hex="006B"/>
  <anchor x="262" y="0" name="bottom"/>
  <anchor x="258" y="760" name="top"/>
  <anchor x="587" y="890" name="topright"/>
  <outline>
    <contour>
      <point x="9" y="0" type="line"/>
      <point x="198" y="0" type="line"/>
      <point x="232" y="165" type="line"/>
      <point x="276" y="191" type="line"/>
      <point x="334" y="0" type="line"/>
      <point x="549" y="0" type="line"/>
      <point x="426" y="303" type="line"/>
      <point x="656" y="553" type="line"/>
      <point x="440" y="553" type="line"/>
      <point x="263" y="326" type="line"/>
      <point x="259" y="326" type="line"/>
      <point x="267" y="348"/>
      <point x="281" y="399"/>
      <point x="289" y="436" type="curve" smooth="yes"/>
      <point x="357" y="760" type="line"/>
      <point x="168" y="760" type="line"/>
    </contour>
  </outline>
</glyph>
<glyph name="m" format="2">
  <advance width="884"/>
  <unicode hex="006D"/>
  <anchor x="383" y="0" name="bottom"/>
  <anchor x="501" y="553" name="top"/>
  <anchor x="923" y="553" name="topright"/>
  <outline>
    <contour>
      <point x="9" y="0" type="line"/>
      <point x="198" y="0" type="line"/>
      <point x="258" y="269" type="line" smooth="yes"/>
      <point x="283" y="383"/>
      <point x="309" y="413"/>
      <point x="338" y="413" type="curve" smooth="yes"/>
      <point x="354" y="413"/>
      <point x="368" y="400"/>
      <point x="368" y="368" type="curve" smooth="yes"/>
      <point x="368" y="352"/>
      <point x="363" y="323"/>
      <point x="360" y="308" type="curve" smooth="yes"/>
      <point x="297" y="0" type="line"/>
      <point x="486" y="0" type="line"/>
      <point x="541" y="265" type="line" smooth="yes"/>
      <point x="561" y="363"/>
      <point x="584" y="413"/>
      <point x="625" y="413" type="curve" smooth="yes"/>
      <point x="642" y="413"/>
      <point x="654" y="399"/>
      <point x="654" y="374" type="curve" smooth="yes"/>
      <point x="654" y="346"/>
      <point x="649" y="321"/>
      <point x="646" y="308" type="curve" smooth="yes"/>
      <point x="584" y="0" type="line"/>
      <point x="773" y="0" type="line"/>
      <point x="833" y="300" type="line" smooth="yes"/>
      <point x="840" y="335"/>
      <point x="845" y="372"/>
      <point x="845" y="403" type="curve" smooth="yes"/>
      <point x="845" y="508"/>
      <point x="798" y="563"/>
      <point x="713" y="563" type="curve" smooth="yes"/>
      <point x="645" y="563"/>
      <point x="595" y="531"/>
      <point x="554" y="462" type="curve"/>
      <point x="550" y="462" type="line"/>
      <point x="533" y="527"/>
      <point x="497" y="563"/>
      <point x="425" y="563" type="curve" smooth="yes"/>
      <point x="352" y="563"/>
      <point x="311" y="535"/>
      <point x="274" y="462" type="curve"/>
      <point x="270" y="462" type="line"/>
      <point x="279" y="553" type="line"/>
      <point x="126" y="553" type="line"/>
    </contour>
  </outline>
</glyph>
<glyph name="n" format="2">
  <advance width="595"/>
  <unicode hex="006E"/>
  <anchor x="239" y="0" name="bottom"/>
  <anchor x="357" y="553" name="top"/>
  <anchor x="634" y="553" name="topright"/>
  <outline>
    <contour>
      <point x="9" y="0" type="line"/>
      <point x="198" y="0" type="line"/>
      <point x="256" y="270" type="line" smooth="yes"/>
      <point x="277" y="368"/>
      <point x="305" y="413"/>
      <point x="333" y="413" type="curve" smooth="yes"/>
      <point x="348" y="413"/>
      <point x="364" y="399"/>
      <point x="364" y="372" type="curve" smooth="yes"/>
      <point x="364" y="349"/>
      <point x="359" y="319"/>
      <point x="355" y="302" type="curve" smooth="yes"/>
      <point x="293" y="0" type="line"/>
      <point x="482" y="0" type="line"/>
      <point x="543" y="294" type="line" smooth="yes"/>
      <point x="551" y="330"/>
      <point x="556" y="371"/>
      <point x="556" y="408" type="curve" smooth="yes"/>
      <point x="556" y="492"/>
      <point x="516" y="563"/>
      <point x="418" y="563" type="curve" smooth="yes"/>
      <point x="352" y="563"/>
      <point x="310" y="538"/>
      <point x="277" y="476" type="curve"/>
      <point x="273" y="476" type="line"/>
      <point x="279" y="553" type="line"/>
      <point x="126" y="553" type="line"/>
    </contour>
  </outline>
</glyph>
<glyph name="o" format="2">
  <advance width="582"/>
  <unicode hex="006F"/>
  <anchor x="232" y="0" name="bottom"/>
  <anchor x="291" y="277" name="center"/>
  <anchor x="350" y="553" name="top"/>
  <anchor x="621" y="553" name="topright"/>
  <outline>
    <contour>
      <point x="241" y="-10" type="curve" smooth="yes"/>
      <point x="439" y="-10"/>
      <point x="547" y="163"/>
      <point x="547" y="353" type="curve" smooth="yes"/>
      <point x="547" y="487"/>
      <point x="475" y="563"/>
      <point x="345" y="563" type="curve" smooth="yes"/>
      <point x="146" y="563"/>
      <point x="40" y="389"/>
      <point x="40" y="200" type="curve" smooth="yes"/>
      <point x="40" y="66"/>
      <point x="110" y="-10"/>
    </contour>
    <contour>
      <point x="265" y="132" type="curve" smooth="yes"/>
      <point x="245" y="132"/>
      <point x="234" y="153"/>
      <point x="234" y="195" type="curve" smooth="yes"/>
      <point x="234" y="303"/>
      <point x="274" y="421"/>
      <point x="320" y="421" type="curve" smooth="yes"/>
      <point x="339" y="421"/>
      <point x="353" y="400"/>
      <point x="353" y="358" type="curve" smooth="yes"/>
      <point x="353" y="250"/>
      <point x="313" y="132"/>
    </contour>
  </outline>
</glyph>
<glyph name="p" format="2">
  <advance width="579"/>
  <unicode hex="0070"/>
  <anchor x="44" y="-240" name="bottom"/>
  <anchor x="349" y="553" name="top"/>
  <anchor x="618" y="553" name="topright"/>
  <outline>
    <contour>
      <point x="-42" y="-240" type="line"/>
      <point x="146" y="-240" type="line"/>
      <point x="170" y="-120" type="line" smooth="yes"/>
      <point x="188" y="-34"/>
      <point x="194" y="9"/>
      <point x="199" y="61" type="curve"/>
      <point x="203" y="61" type="line"/>
      <point x="227" y="18"/>
      <point x="263" y="-10"/>
      <point x="307" y="-10" type="curve" smooth="yes"/>
      <point x="452" y="-10"/>
      <point x="545" y="179"/>
      <point x="545" y="363" type="curve" smooth="yes"/>
      <point x="545" y="490"/>
      <point x="488" y="563"/>
      <point x="390" y="563" type="curve" smooth="yes"/>
      <point x="341" y="563"/>
      <point x="305" y="538"/>
      <point x="276" y="491" type="curve"/>
      <point x="273" y="491" type="line"/>
      <point x="279" y="553" type="line"/>
      <point x="126" y="553" type="line"/>
    </contour>
    <contour>
      <point x="269" y="142" type="curve" smooth="yes"/>
      <point x="247" y="142"/>
      <point x="235" y="169"/>
      <point x="235" y="210" type="curve" smooth="yes"/>
      <point x="235" y="295"/>
      <point x="270" y="411"/>
      <point x="317" y="411" type="curve" smooth="yes"/>
      <point x="340" y="411"/>
      <point x="352" y="387"/>
      <point x="352" y="343" type="curve" smooth="yes"/>
      <point x="352" y="248"/>
      <point x="315" y="142"/>
    </contour>
  </outline>
</glyph>
<glyph name="r" format="2">
  <advance width="419"/>
  <unicode hex="0072"/>
  <anchor x="100" y="0" name="bottom"/>
  <anchor x="309" y="553" name="top"/>
  <anchor x="478" y="553" name="topright"/>
  <outline>
    <contour>
      <point x="9" y="0" type="line"/>
      <point x="198" y="0" type="line"/>
      <point x="250" y="243" type="line" smooth="yes"/>
      <point x="273" y="349"/>
      <point x="311" y="383"/>
      <point x="364" y="383" type="curve" smooth="yes"/>
      <point x="387" y="383"/>
      <point x="409" y="378"/>
      <point x="423" y="372" type="curve"/>
      <point x="466" y="559" type="line"/>
      <point x="461" y="561"/>
      <point x="444" y="563"/>
      <point x="431" y="563" type="curve" smooth="yes"/>
      <point x="359" y="563"/>
      <point x="318" y="539"/>
      <point x="273" y="461" type="curve"/>
      <point x="269" y="461" type="line"/>
      <point x="279" y="553" type="line"/>
      <point x="126" y="553" type="line"/>
    </contour>
  </outline>
</glyph>
<glyph name="s" format="2">
  <advance width="484"/>
  <unicode hex="0073"/>
  <anchor x="183" y="0" name="bottom"/>
  <anchor x="301" y="553" name="top"/>
  <anchor x="503" y="553" name="topright"/>
  <outline>
    <contour>
      <point x="182" y="-10" type="curve" smooth="yes"/>
      <point x="328" y="-10"/>
      <point x="422" y="56"/>
      <point x="422" y="194" type="curve" smooth="yes"/>
      <point x="422" y="261"/>
      <point x="392" y="311"/>
      <point x="320" y="348" type="curve" smooth="yes"/>
      <point x="278" y="370"/>
      <point x="261" y="382"/>
      <point x="261" y="401" type="curve" smooth="yes"/>
      <point x="261" y="423"/>
      <point x="270" y="434"/>
      <point x="290" y="434" type="curve" smooth="yes"/>
      <point x="325" y="434"/>
      <point x="375" y="412"/>
      <point x="410" y="388" type="curve"/>
      <point x="470" y="511" type="line"/>
      <point x="417" y="546"/>
      <point x="361" y="563"/>
      <point x="290" y="563" type="curve" smooth="yes"/>
      <point x="136" y="563"/>
      <point x="68" y="491"/>
      <point x="68" y="386" type="curve" smooth="yes"/>
      <point x="68" y="317"/>
      <point x="95" y="272"/>
      <point x="160" y="234" type="curve" smooth="yes"/>
      <point x="222" y="198"/>
      <point x="229" y="185"/>
      <point x="229" y="164" type="curve" smooth="yes"/>
      <point x="229" y="133"/>
      <point x="188" y="129"/>
      <point x="171" y="129" type="curve" smooth="yes"/>
      <point x="122" y="129"/>
      <point x="76" y="140"/>
      <point x="17" y="173" type="curve"/>
      <point x="15" y="21" type="line"/>
      <point x="55" y="1"/>
      <point x="111" y="-10"/>
    </contour>
  </outline>
</glyph>
<glyph name="t" format="2">
  <advance width="445"/>
  <unicode hex="0074"/>
  <anchor x="184" y="0" name="bottom"/>
  <anchor x="173" y="277" name="center"/>
  <anchor x="276" y="664" name="top"/>
  <anchor x="428" y="890" name="topright"/>
  <outline>
    <contour>
      <point x="189" y="-10" type="curve" smooth="yes"/>
      <point x="262" y="-10"/>
      <point x="314" y="3"/>
      <point x="356" y="23" type="curve"/>
      <point x="357" y="165" type="line"/>
      <point x="326" y="152"/>
      <point x="293" y="142"/>
      <point x="270" y="142" type="curve" smooth="yes"/>
      <point x="255" y="142"/>
      <point x="244" y="151"/>
      <point x="244" y="172" type="curve" smooth="yes"/>
      <point x="244" y="184"/>
      <point x="249" y="205"/>
      <point x="253" y="224" type="curve" smooth="yes"/>
      <point x="291" y="411" type="line"/>
      <point x="425" y="411" type="line"/>
      <point x="458" y="553" type="line"/>
      <point x="323" y="553" type="line"/>
      <point x="347" y="664" type="line"/>
      <point x="220" y="664" type="line"/>
      <point x="155" y="547" type="line"/>
      <point x="51" y="504" type="line"/>
      <point x="30" y="411" type="line"/>
      <point x="102" y="411" type="line"/>
      <point x="64" y="215" type="line" smooth="yes"/>
      <point x="58" y="187"/>
      <point x="50" y="149"/>
      <point x="50" y="121" type="curve" smooth="yes"/>
      <point x="50" y="28"/>
      <point x="97" y="-10"/>
    </contour>
  </outline>
</glyph>
<glyph name="u" format="2">
  <advance width="595"/>
  <unicode hex="0075"/>
  <anchor x="200" y="0" name="bottom"/>
  <anchor x="357" y="553" name="top"/>
  <anchor x="634" y="553" name="topright"/>
  <outline>
    <contour>
      <point x="184" y="-10" type="curve" smooth="yes"/>
      <point x="249" y="-10"/>
      <point x="291" y="15"/>
      <point x="325" y="77" type="curve"/>
      <point x="328" y="77" type="line"/>
      <point x="323" y="0" type="line"/>
      <point x="475" y="0" type="line"/>
      <point x="592" y="553" type="line"/>
      <point x="402" y="553" type="line"/>
      <point x="344" y="284" type="line" smooth="yes"/>
      <point x="323" y="185"/>
      <point x="292" y="141"/>
      <point x="268" y="141" type="curve" smooth="yes"/>
      <point x="253" y="141"/>
      <point x="237" y="155"/>
      <point x="237" y="182" type="curve" smooth="yes"/>
      <point x="237" y="205"/>
      <point x="243" y="235"/>
      <point x="246" y="252" type="curve" smooth="yes"/>
      <point x="308" y="553" type="line"/>
      <point x="119" y="553" type="line"/>
      <point x="57" y="259" type="line" smooth="yes"/>
      <point x="50" y="223"/>
      <point x="45" y="182"/>
      <point x="45" y="145" type="curve" smooth="yes"/>
      <point x="45" y="61"/>
      <point x="85" y="-10"/>
    </contour>
  </outline>
</glyph>
<glyph name="v" format="2">
  <advance width="524"/>
  <unicode hex="0076"/>
  <anchor x="203" y="0" name="bottom"/>
  <anchor x="321" y="553" name="top"/>
  <anchor x="563" y="553" name="topright"/>
  <outline>
    <contour>
      <point x="107" y="0" type="line"/>
      <point x="294" y="0" type="line"/>
      <point x="585" y="553" type="line"/>
      <point x="383" y="553" type="line"/>
      <point x="259" y="267" type="line" smooth="yes"/>
      <point x="252" y="250"/>
      <point x="242" y="220"/>
      <point x="238" y="201" type="curve"/>
      <point x="235" y="201" type="line"/>
      <point x="237" y="222"/>
      <point x="238" y="249"/>
      <point x="238" y="275" type="curve" smooth="yes"/>
      <point x="234" y="553" type="line"/>
      <point x="45" y="553" type="line"/>
    </contour>
  </outline>
</glyph>
<glyph name="w" format="2">
  <advance width="790"/>
  <unicode hex="0077"/>
  <anchor x="336" y="0" name="bottom"/>
  <anchor x="444" y="553" name="top"/>
  <anchor x="829" y="553" name="topright"/>
  <outline>
    <contour>
      <point x="77" y="0" type="line"/>
      <point x="275" y="0" type="line"/>
      <point x="359" y="237" type="line" smooth="yes"/>
      <point x="373" y="277"/>
      <point x="397" y="345"/>
      <point x="410" y="400" type="curve"/>
      <point x="414" y="400" type="line"/>
      <point x="407" y="347"/>
      <point x="402" y="270"/>
      <point x="399" y="219" type="curve" smooth="yes"/>
      <point x="388" y="0" type="line"/>
      <point x="594" y="0" type="line"/>
      <point x="850" y="553" type="line"/>
      <point x="662" y="553" type="line"/>
      <point x="554" y="284" type="line" smooth="yes"/>
      <point x="539" y="247"/>
      <point x="534" y="217"/>
      <point x="522" y="177" type="curve"/>
      <point x="519" y="177" type="line"/>
      <point x="524" y="221"/>
      <point x="526" y="261"/>
      <point x="527" y="281" type="curve" smooth="yes"/>
      <point x="546" y="553" type="line"/>
      <point x="348" y="553" type="line"/>
      <point x="246" y="271" type="line" smooth="yes"/>
      <point x="236" y="243"/>
      <point x="229" y="209"/>
      <point x="223" y="177" type="curve"/>
      <point x="219" y="177" type="line"/>
      <point x="222" y="208"/>
      <point x="226" y="247"/>
      <point x="226" y="283" type="curve" smooth="yes"/>
      <point x="229" y="553" type="line"/>
      <point x="51" y="553" type="line"/>
    </contour>
  </outline>
</glyph>
<glyph name="x" format="2">
  <advance width="546"/>
  <unicode hex="0078"/>
  <anchor x="214" y="0" name="bottom"/>
  <anchor x="332" y="553" name="top"/>
  <anchor x="595" y="553" name="topright"/>
  <outline>
    <contour>
      <point x="-57" y="0" type="line"/>
      <point x="164" y="0" type="line"/>
      <point x="258" y="160" type="line"/>
      <point x="288" y="0" type="line"/>
      <point x="498" y="0" type="line"/>
      <point x="397" y="272" type="line"/>
      <point x="616" y="553" type="line"/>
      <point x="391" y="553" type="line"/>
      <point x="310" y="400" type="line"/>
      <point x="281" y="553" type="line"/>
      <point x="74" y="553" type="line"/>
      <point x="165" y="282" type="line"/>
    </contour>
  </outline>
</glyph>
<glyph name="y" format="2">
  <advance width="522"/>
  <unicode hex="0079"/>
  <anchor x="11" y="-240" name="bottom"/>
  <anchor x="320" y="553" name="top"/>
  <anchor x="561" y="553" name="topright"/>
  <outline>
    <contour>
      <point x="11" y="-240" type="curve" smooth="yes"/>
      <point x="137" y="-240"/>
      <point x="208" y="-185"/>
      <point x="266" y="-70" type="curve" smooth="yes"/>
      <point x="582" y="553" type="line"/>
      <point x="379" y="553" type="line"/>
      <point x="279" y="301" type="line" smooth="yes"/>
      <point x="270" y="278"/>
      <point x="257" y="236"/>
      <point x="249" y="206" type="curve"/>
      <point x="245" y="206" type="line"/>
      <point x="246" y="235"/>
      <point x="248" y="265"/>
      <point x="246" y="299" type="curve" smooth="yes"/>
      <point x="232" y="553" type="line"/>
      <point x="42" y="553" type="line"/>
      <point x="111" y="6" type="line"/>
      <point x="100" y="-14" type="line" smooth="yes"/>
      <point x="73" y="-64"/>
      <point x="44" y="-88"/>
      <point x="-10" y="-88" type="curve" smooth="yes"/>
      <point x="-31" y="-88"/>
      <point x="-49" y="-85"/>
      <point x="-59" y="-82" type="curve"/>
      <point x="-61" y="-232" type="line"/>
      <point x="-48" y="-236"/>
      <point x="-26" y="-240"/>
    </contour>
  </outline>
</glyph>
<glyph name="braceleft" format="2">
  <advance width="342"/>
  <unicode hex="007B"/>
  <outline>
    <contour>
      <point x="212" y="-158" type="curve" smooth="yes"/>
      <point x="253" y="-158" type="line"/>
      <point x="255" y="-21" type="line"/>
      <point x="223" y="-21"/>
      <point x="204" y="-9"/>
      <point x="204" y="21" type="curve" smooth="yes"/>
      <point x="204" y="29"/>
      <point x="205" y="36"/>
      <point x="207" y="46" type="curve" smooth="yes"/>
      <point x="224" y="126" type="line" smooth="yes"/>
      <point x="226" y="137"/>
      <point x="229" y="150"/>
      <point x="229" y="164" type="curve" smooth="yes"/>
      <point x="229" y="220"/>
      <point x="206" y="257"/>
      <point x="151" y="276" type="curve"/>
      <point x="151" y="280" type="line"/>
      <point x="214" y="287"/>
      <point x="266" y="313"/>
      <point x="281" y="388" type="curve" smooth="yes"/>
      <point x="306" y="514" type="line" smooth="yes"/>
      <point x="316" y="564"/>
      <point x="342" y="576"/>
      <point x="388" y="577" type="curve"/>
      <point x="419" y="714" type="line"/>
      <point x="354" y="714" type="line" smooth="yes"/>
      <point x="226" y="714"/>
      <point x="183" y="654"/>
      <point x="161" y="556" type="curve" smooth="yes"/>
      <point x="135" y="436" type="line" smooth="yes"/>
      <point x="122" y="376"/>
      <point x="97" y="352"/>
      <point x="21" y="352" type="curve"/>
      <point x="-6" y="212" type="line"/>
      <point x="57" y="212"/>
      <point x="71" y="189"/>
      <point x="71" y="147" type="curve" smooth="yes"/>
      <point x="71" y="141"/>
      <point x="71" y="133"/>
      <point x="69" y="124" type="curve" smooth="yes"/>
      <point x="51" y="39" type="line" smooth="yes"/>
      <point x="46" y="15"/>
      <point x="44" y="-4"/>
      <point x="44" y="-25" type="curve" smooth="yes"/>
      <point x="44" y="-108"/>
      <point x="90" y="-158"/>
    </contour>
  </outline>
</glyph>
<glyph name="bar" format="2">
  <advance width="541"/>
  <unicode hex="007C"/>
  <outline>
    <contour>
      <point x="201" y="-227" type="line"/>
      <point x="332" y="-227" type="line"/>
      <point x="332" y="756" type="line"/>
      <point x="201" y="756" type="line"/>
    </contour>
  </outline>
</glyph>
<glyph name="braceright" format="2">
  <advance width="342"/>
  <unicode hex="007D"/>
  <outline>
    <contour>
      <point x="-60" y="-21" type="curve"/>
      <point x="-61" y="-158" type="line"/>
      <point x="-24" y="-158" type="line" smooth="yes"/>
      <point x="104" y="-158"/>
      <point x="154" y="-98"/>
      <point x="175" y="0" type="curve" smooth="yes"/>
      <point x="201" y="120" type="line" smooth="yes"/>
      <point x="214" y="180"/>
      <point x="246" y="205"/>
      <point x="322" y="205" type="curve"/>
      <point x="352" y="345" type="line"/>
      <point x="289" y="345"/>
      <point x="265" y="368"/>
      <point x="265" y="410" type="curve" smooth="yes"/>
      <point x="265" y="415"/>
      <point x="265" y="423"/>
      <point x="267" y="432" type="curve" smooth="yes"/>
      <point x="285" y="517" type="line" smooth="yes"/>
      <point x="290" y="541"/>
      <point x="292" y="561"/>
      <point x="292" y="582" type="curve" smooth="yes"/>
      <point x="292" y="654"/>
      <point x="251" y="714"/>
      <point x="130" y="714" type="curve" smooth="yes"/>
      <point x="98" y="714" type="line"/>
      <point x="71" y="577" type="line"/>
      <point x="114" y="577"/>
      <point x="132" y="562"/>
      <point x="132" y="535" type="curve" smooth="yes"/>
      <point x="132" y="527"/>
      <point x="131" y="520"/>
      <point x="129" y="510" type="curve" smooth="yes"/>
      <point x="112" y="430" type="line" smooth="yes"/>
      <point x="110" y="419"/>
      <point x="107" y="406"/>
      <point x="107" y="392" type="curve" smooth="yes"/>
      <point x="107" y="336"/>
      <point x="130" y="299"/>
      <point x="185" y="280" type="curve"/>
      <point x="185" y="276" type="line"/>
      <point x="121" y="269"/>
      <point x="70" y="243"/>
      <point x="55" y="168" type="curve" smooth="yes"/>
      <point x="30" y="42" type="line" smooth="yes"/>
      <point x="20" y="-7"/>
      <point x="13" y="-18"/>
    </contour>
  </outline>
</glyph>
<glyph name="exclamdown" format="2">
  <advance width="293"/>
  <unicode hex="00A1"/>
  <outline>
    <contour>
      <point x="-56" y="-165" type="line"/>
      <point x="151" y="-165" type="line"/>
      <point x="228" y="297" type="line"/>
      <point x="66" y="297" type="line"/>
    </contour>
    <contour>
      <point x="162" y="375" type="curve" smooth="yes"/>
      <point x="240" y="375"/>
      <point x="281" y="426"/>
      <point x="281" y="490" type="curve" smooth="yes"/>
      <point x="281" y="528"/>
      <point x="260" y="563"/>
      <point x="192" y="563" type="curve" smooth="yes"/>
      <point x="125" y="563"/>
      <point x="76" y="526"/>
      <point x="76" y="450" type="curve" smooth="yes"/>
      <point x="76" y="403"/>
      <point x="107" y="375"/>
    </contour>
  </outline>
</glyph>
<glyph name="cent" format="2">
  <advance width="558"/>
  <unicode hex="00A2"/>
  <outline>
    <contour>
      <point x="196" y="92" type="curve"/>
      <point x="171" y="-10" type="line"/>
      <point x="282" y="-10" type="line"/>
      <point x="302" y="82" type="line"/>
      <point x="359" y="87"/>
      <point x="402" y="102"/>
      <point x="446" y="126" type="curve"/>
      <point x="447" y="278" type="line"/>
      <point x="401" y="252"/>
      <point x="359" y="234"/>
      <point x="315" y="234" type="curve" smooth="yes"/>
      <point x="283" y="234"/>
      <point x="265" y="255"/>
      <point x="265" y="304" type="curve" smooth="yes"/>
      <point x="265" y="388"/>
      <point x="296" y="503"/>
      <point x="367" y="503" type="curve" smooth="yes"/>
      <point x="403" y="503"/>
      <point x="430" y="494"/>
      <point x="472" y="474" type="curve"/>
      <point x="534" y="614" type="line"/>
      <point x="500" y="632"/>
      <point x="469" y="644"/>
      <point x="426" y="651" type="curve"/>
      <point x="442" y="724" type="line"/>
      <point x="331" y="724" type="line"/>
      <point x="315" y="652" type="line"/>
      <point x="170" y="628"/>
      <point x="73" y="482"/>
      <point x="73" y="283" type="curve" smooth="yes"/>
      <point x="73" y="167"/>
      <point x="127" y="113"/>
    </contour>
  </outline>
</glyph>
<glyph name="sterling" format="2">
  <advance width="558"/>
  <unicode hex="00A3"/>
  <outline>
    <contour>
      <point x="24" y="153" type="curve"/>
      <point x="-9" y="0" type="line"/>
      <point x="467" y="0" type="line"/>
      <point x="504" y="161" type="line"/>
      <point x="229" y="161" type="line"/>
      <point x="264" y="178"/>
      <point x="311" y="212"/>
      <point x="324" y="272" type="curve" smooth="yes"/>
      <point x="334" y="318" type="line"/>
      <point x="446" y="318" type="line"/>
      <point x="475" y="454" type="line"/>
      <point x="363" y="454" type="line"/>
      <point x="373" y="510" type="line" smooth="yes"/>
      <point x="381" y="554"/>
      <point x="389" y="567"/>
      <point x="405" y="567" type="curve" smooth="yes"/>
      <point x="436" y="567"/>
      <point x="460" y="556"/>
      <point x="501" y="536" type="curve"/>
      <point x="573" y="682" type="line"/>
      <point x="521" y="705"/>
      <point x="472" y="724"/>
      <point x="400" y="724" type="curve" smooth="yes"/>
      <point x="295" y="724"/>
      <point x="206" y="685"/>
      <point x="179" y="517" type="curve" smooth="yes"/>
      <point x="169" y="454" type="line"/>
      <point x="83" y="454" type="line"/>
      <point x="54" y="318" type="line"/>
      <point x="140" y="318" type="line"/>
      <point x="131" y="271" type="line" smooth="yes"/>
      <point x="118" y="202"/>
      <point x="100" y="174"/>
    </contour>
  </outline>
</glyph>
<glyph name="currency" format="2">
  <advance width="558"/>
  <unicode hex="00A4"/>
  <outline>
    <contour>
      <point x="366" y="173" type="curve"/>
      <point x="423" y="113" type="line"/>
      <point x="513" y="202" type="line"/>
      <point x="457" y="262" type="line"/>
      <point x="470" y="292"/>
      <point x="477" y="320"/>
      <point x="477" y="355" type="curve" smooth="yes"/>
      <point x="477" y="386"/>
      <point x="470" y="420"/>
      <point x="459" y="444" type="curve"/>
      <point x="519" y="507" type="line"/>
      <point x="429" y="594" type="line"/>
      <point x="370" y="531" type="line"/>
      <point x="342" y="547"/>
      <point x="316" y="554"/>
      <point x="286" y="554" type="curve" smooth="yes"/>
      <point x="261" y="554"/>
      <point x="227" y="545"/>
      <point x="203" y="533" type="curve"/>
      <point x="145" y="594" type="line"/>
      <point x="54" y="504" type="line"/>
      <point x="113" y="443" type="line"/>
      <point x="101" y="416"/>
      <point x="92" y="385"/>
      <point x="92" y="351" type="curve" smooth="yes"/>
      <point x="92" y="320"/>
      <point x="98" y="291"/>
      <point x="112" y="263" type="curve"/>
      <point x="52" y="203" type="line"/>
      <point x="140" y="114" type="line"/>
      <point x="197" y="172" type="line"/>
      <point x="222" y="158"/>
      <point x="250" y="153"/>
      <point x="282" y="153" type="curve" smooth="yes"/>
      <point x="312" y="153"/>
      <point x="342" y="162"/>
    </contour>
    <contour>
      <point x="283" y="279" type="curve" smooth="yes"/>
      <point x="247" y="279"/>
      <point x="219" y="312"/>
      <point x="219" y="352" type="curve" smooth="yes"/>
      <point x="219" y="395"/>
      <point x="248" y="427"/>
      <point x="285" y="427" type="curve" smooth="yes"/>
      <point x="322" y="427"/>
      <point x="352" y="395"/>
      <point x="352" y="354" type="curve" smooth="yes"/>
      <point x="352" y="312"/>
      <point x="321" y="279"/>
    </contour>
  </outline>
</glyph>
<glyph name="yen" format="2">
  <advance width="557"/>
  <unicode hex="00A5"/>
  <outline>
    <contour>
      <point x="118" y="0" type="line"/>
      <point x="304" y="0" type="line"/>
      <point x="323" y="93" type="line"/>
      <point x="424" y="93" type="line"/>
      <point x="445" y="193" type="line"/>
      <point x="345" y="193" type="line"/>
      <point x="358" y="256" type="line"/>
      <point x="458" y="256" type="line"/>
      <point x="481" y="356" type="line"/>
      <point x="397" y="356" type="line"/>
      <point x="626" y="714" type="line"/>
      <point x="435" y="714" type="line"/>
      <point x="305" y="476" type="line"/>
      <point x="279" y="714" type="line"/>
      <point x="91" y="714" type="line"/>
      <point x="173" y="356" type="line"/>
      <point x="92" y="356" type="line"/>
      <point x="69" y="256" type="line"/>
      <point x="171" y="256" type="line"/>
      <point x="159" y="193" type="line"/>
      <point x="57" y="193" type="line"/>
      <point x="35" y="93" type="line"/>
      <point x="138" y="93" type="line"/>
    </contour>
  </outline>
</glyph>
<glyph name="brokenbar" format="2">
  <advance width="541"/>
  <unicode hex="00A6"/>
  <outline>
    <contour>
      <point x="208" y="344" type="line"/>
      <point x="339" y="344" type="line"/>
      <point x="339" y="755" type="line"/>
      <point x="208" y="755" type="line"/>
    </contour>
    <contour>
      <point x="208" y="-217" type="line"/>
      <point x="339" y="-217" type="line"/>
      <point x="339" y="193" type="line"/>
      <point x="208" y="193" type="line"/>
    </contour>
  </outline>
</glyph>
<glyph name="section" format="2">
  <advance width="485"/>
  <unicode hex="00A7"/>
  <outline>
    <contour>
      <point x="177" y="-12" type="curve" smooth="yes"/>
      <point x="330" y="-12"/>
      <point x="405" y="53"/>
      <point x="405" y="161" type="curve" smooth="yes"/>
      <point x="405" y="197"/>
      <point x="395" y="232"/>
      <point x="376" y="257" type="curve"/>
      <point x="419" y="282"/>
      <point x="453" y="320"/>
      <point x="453" y="403" type="curve" smooth="yes"/>
      <point x="453" y="461"/>
      <point x="428" y="512"/>
      <point x="342" y="553" type="curve" smooth="yes"/>
      <point x="280" y="582"/>
      <point x="275" y="600"/>
      <point x="275" y="622" type="curve" smooth="yes"/>
      <point x="275" y="643"/>
      <point x="286" y="660"/>
      <point x="323" y="660" type="curve" smooth="yes"/>
      <point x="380" y="660"/>
      <point x="425" y="635"/>
      <point x="459" y="611" type="curve"/>
      <point x="509" y="720" type="line"/>
      <point x="457" y="751"/>
      <point x="405" y="770"/>
      <point x="341" y="770" type="curve" smooth="yes"/>
      <point x="210" y="770"/>
      <point x="125" y="721"/>
      <point x="125" y="609" type="curve" smooth="yes"/>
      <point x="125" y="576"/>
      <point x="137" y="541"/>
      <point x="159" y="516" type="curve"/>
      <point x="97" y="478"/>
      <point x="78" y="425"/>
      <point x="78" y="378" type="curve" smooth="yes"/>
      <point x="78" y="306"/>
      <point x="125" y="259"/>
      <point x="194" y="218" type="curve" smooth="yes"/>
      <point x="237" y="192"/>
      <point x="253" y="173"/>
      <point x="253" y="148" type="curve" smooth="yes"/>
      <point x="253" y="126"/>
      <point x="239" y="97"/>
      <point x="188" y="97" type="curve" smooth="yes"/>
      <point x="128" y="97"/>
      <point x="74" y="122"/>
      <point x="20" y="156" type="curve"/>
      <point x="19" y="34" type="line"/>
      <point x="52" y="6"/>
      <point x="109" y="-12"/>
    </contour>
    <contour>
      <point x="286" y="314" type="curve"/>
      <point x="252" y="338"/>
      <point x="215" y="364"/>
      <point x="215" y="399" type="curve" smooth="yes"/>
      <point x="215" y="421"/>
      <point x="229" y="447"/>
      <point x="250" y="459" type="curve"/>
      <point x="298" y="437"/>
      <point x="318" y="411"/>
      <point x="318" y="377" type="curve" smooth="yes"/>
      <point x="318" y="347"/>
      <point x="303" y="327"/>
    </contour>
  </outline>
</glyph>
<glyph name="dieresis" format="2">
  <advance width="526"/>
  <unicode hex="00A8"/>
  <outline>
    <contour>
      <point x="475" y="614" type="curve" smooth="yes"/>
      <point x="550" y="614"/>
      <point x="573" y="652"/>
      <point x="573" y="707" type="curve" smooth="yes"/>
      <point x="573" y="757"/>
      <point x="531" y="767"/>
      <point x="491" y="767" type="curve" smooth="yes"/>
      <point x="428" y="767"/>
      <point x="392" y="740"/>
      <point x="392" y="675" type="curve" smooth="yes"/>
      <point x="392" y="627"/>
      <point x="427" y="614"/>
    </contour>
    <contour>
      <point x="237" y="614" type="curve" smooth="yes"/>
      <point x="312" y="614"/>
      <point x="337" y="652"/>
      <point x="337" y="707" type="curve" smooth="yes"/>
      <point x="337" y="757"/>
      <point x="293" y="767"/>
      <point x="254" y="767" type="curve" smooth="yes"/>
      <point x="191" y="767"/>
      <point x="154" y="740"/>
      <point x="154" y="675" type="curve" smooth="yes"/>
      <point x="154" y="627"/>
      <point x="189" y="614"/>
    </contour>
  </outline>
</glyph>
<glyph name="copyright" format="2">
  <advance width="780"/>
  <unicode hex="00A9"/>
  <outline>
    <contour>
      <point x="398" y="-10" type="curve" smooth="yes"/>
      <point x="592" y="-10"/>
      <point x="750" y="156"/>
      <point x="750" y="360" type="curve" smooth="yes"/>
      <point x="750" y="562"/>
      <point x="597" y="724"/>
      <point x="406" y="724" type="curve" smooth="yes"/>
      <point x="211" y="724"/>
      <point x="53" y="558"/>
      <point x="53" y="354" type="curve" smooth="yes"/>
      <point x="53" y="152"/>
      <point x="206" y="-10"/>
    </contour>
    <contour>
      <point x="419" y="128" type="curve" smooth="yes"/>
      <point x="470" y="128"/>
      <point x="510" y="138"/>
      <point x="552" y="159" type="curve"/>
      <point x="553" y="272" type="line"/>
      <point x="513" y="249"/>
      <point x="471" y="239"/>
      <point x="428" y="239" type="curve" smooth="yes"/>
      <point x="379" y="239"/>
      <point x="355" y="273"/>
      <point x="355" y="353" type="curve" smooth="yes"/>
      <point x="355" y="432"/>
      <point x="383" y="474"/>
      <point x="427" y="474" type="curve"/>
      <point x="465" y="474"/>
      <point x="500" y="463"/>
      <point x="532" y="445" type="curve"/>
      <point x="580" y="545" type="line"/>
      <point x="532" y="569"/>
      <point x="479" y="585"/>
      <point x="417" y="585" type="curve" smooth="yes"/>
      <point x="280" y="585"/>
      <point x="211" y="494"/>
      <point x="211" y="355" type="curve" smooth="yes"/>
      <point x="211" y="218"/>
      <point x="281" y="128"/>
    </contour>
    <contour>
      <point x="399" y="70" type="curve" smooth="yes"/>
      <point x="252" y="70"/>
      <point x="135" y="197"/>
      <point x="135" y="354" type="curve" smooth="yes"/>
      <point x="135" y="515"/>
      <point x="256" y="644"/>
      <point x="405" y="644" type="curve" smooth="yes"/>
      <point x="551" y="644"/>
      <point x="668" y="517"/>
      <point x="668" y="360" type="curve" smooth="yes"/>
      <point x="668" y="199"/>
      <point x="547" y="70"/>
    </contour>
  </outline>
</glyph>
<glyph name="ordfeminine" format="2">
  <advance width="389"/>
  <unicode hex="00AA"/>
  <anchor x="209" y="357" name="bottom"/>
  <anchor x="281" y="719" name="top"/>
  <outline>
    <contour>
      <point x="165" y="356" type="curve" smooth="yes"/>
      <point x="213" y="356"/>
      <point x="247" y="377"/>
      <point x="271" y="404" type="curve"/>
      <point x="275" y="404" type="line"/>
      <point x="271" y="362" type="line"/>
      <point x="366" y="362" type="line"/>
      <point x="450" y="714" type="line"/>
      <point x="353" y="714" type="line"/>
      <point x="336" y="672" type="line"/>
      <point x="332" y="672" type="line"/>
      <point x="306" y="701"/>
      <point x="282" y="720"/>
      <point x="230" y="720" type="curve" smooth="yes"/>
      <point x="128" y="720"/>
      <point x="68" y="591"/>
      <point x="68" y="487" type="curve" smooth="yes"/>
      <point x="68" y="386"/>
      <point x="127" y="356"/>
    </contour>
    <contour>
      <point x="232" y="445" type="curve" smooth="yes"/>
      <point x="215" y="445"/>
      <point x="202" y="463"/>
      <point x="202" y="493" type="curve" smooth="yes"/>
      <point x="202" y="549"/>
      <point x="227" y="631"/>
      <point x="268" y="631" type="curve" smooth="yes"/>
      <point x="290" y="631"/>
      <point x="298" y="605"/>
      <point x="298" y="576" type="curve" smooth="yes"/>
      <point x="298" y="535"/>
      <point x="284" y="445"/>
    </contour>
  </outline>
</glyph>
<glyph name="logicalnot" format="2">
  <advance width="530"/>
  <unicode hex="00AC"/>
  <outline>
    <contour>
      <point x="520" y="418" type="line"/>
      <point x="49" y="418" type="line"/>
      <point x="49" y="287" type="line"/>
      <point x="382" y="287" type="line"/>
      <point x="382" y="116" type="line"/>
      <point x="520" y="116" type="line"/>
    </contour>
  </outline>
</glyph>
<glyph name="registered" format="2">
  <advance width="780"/>
  <unicode hex="00AE"/>
  <outline>
    <contour>
      <point x="248" y="153" type="line"/>
      <point x="385" y="153" type="line"/>
      <point x="385" y="309" type="line"/>
      <point x="391" y="309" type="line"/>
      <point x="469" y="153" type="line"/>
      <point x="608" y="153" type="line"/>
      <point x="505" y="326" type="line"/>
      <point x="559" y="346"/>
      <point x="595" y="380"/>
      <point x="595" y="448" type="curve" smooth="yes"/>
      <point x="595" y="532"/>
      <point x="529" y="580"/>
      <point x="390" y="580" type="curve" smooth="yes"/>
      <point x="248" y="580" type="line"/>
    </contour>
    <contour>
      <point x="390" y="395" type="curve" smooth="yes"/>
      <point x="385" y="395" type="line"/>
      <point x="385" y="485" type="line"/>
      <point x="389" y="485" type="line" smooth="yes"/>
      <point x="434" y="485"/>
      <point x="457" y="478"/>
      <point x="457" y="443" type="curve" smooth="yes"/>
      <point x="457" y="403"/>
      <point x="434" y="395"/>
    </contour>
    <contour>
      <point x="409" y="-10" type="curve" smooth="yes"/>
      <point x="612" y="-10"/>
      <point x="776" y="154"/>
      <point x="776" y="357" type="curve" smooth="yes"/>
      <point x="776" y="560"/>
      <point x="612" y="724"/>
      <point x="409" y="724" type="curve" smooth="yes"/>
      <point x="206" y="724"/>
      <point x="42" y="560"/>
      <point x="42" y="357" type="curve" smooth="yes"/>
      <point x="42" y="154"/>
      <point x="206" y="-10"/>
    </contour>
    <contour>
      <point x="409" y="70" type="curve" smooth="yes"/>
      <point x="250" y="70"/>
      <point x="122" y="198"/>
      <point x="122" y="357" type="curve" smooth="yes"/>
      <point x="122" y="516"/>
      <point x="250" y="644"/>
      <point x="409" y="644" type="curve" smooth="yes"/>
      <point x="568" y="644"/>
      <point x="696" y="516"/>
      <point x="696" y="357" type="curve" smooth="yes"/>
      <point x="696" y="198"/>
      <point x="568" y="70"/>
    </contour>
  </outline>
</glyph>
<glyph name="overscore" format="2">
  <advance width="416"/>
  <unicode hex="00AF"/>
  <outline>
    <contour>
      <point x="107" y="759" type="line"/>
      <point x="526" y="759" type="line"/>
      <point x="556" y="879" type="line"/>
      <point x="136" y="879" type="line"/>
    </contour>
  </outline>
</glyph>
<glyph name="degree" format="2">
  <advance width="400"/>
  <unicode hex="00B0"/>
  <outline>
    <contour>
      <point x="255" y="366" type="curve" smooth="yes"/>
      <point x="352" y="366"/>
      <point x="430" y="446"/>
      <point x="430" y="546" type="curve" smooth="yes"/>
      <point x="430" y="643"/>
      <point x="354" y="724"/>
      <point x="258" y="724" type="curve" smooth="yes"/>
      <point x="161" y="724"/>
      <point x="83" y="641"/>
      <point x="83" y="542" type="curve" smooth="yes"/>
      <point x="83" y="444"/>
      <point x="159" y="366"/>
    </contour>
    <contour>
      <point x="256" y="482" type="curve" smooth="yes"/>
      <point x="224" y="482"/>
      <point x="198" y="511"/>
      <point x="198" y="543" type="curve" smooth="yes"/>
      <point x="198" y="579"/>
      <point x="225" y="609"/>
      <point x="257" y="609" type="curve" smooth="yes"/>
      <point x="289" y="609"/>
      <point x="315" y="579"/>
      <point x="315" y="545" type="curve" smooth="yes"/>
      <point x="315" y="511"/>
      <point x="288" y="482"/>
    </contour>
  </outline>
</glyph>
<glyph name="plusminus" format="2">
  <advance width="530"/>
  <unicode hex="00B1"/>
  <outline>
    <contour>
      <point x="69" y="0" type="line"/>
      <point x="540" y="0" type="line"/>
      <point x="540" y="131" type="line"/>
      <point x="69" y="131" type="line"/>
    </contour>
    <component base="plus" xOffset="20" yOffset="43"/>
  </outline>
</glyph>
<glyph name="twosuperior" format="2">
  <advance width="401"/>
  <unicode hex="00B2"/>
  <outline>
    <contour>
      <point x="66" y="415" type="line"/>
      <point x="399" y="415" type="line"/>
      <point x="425" y="540" type="line"/>
      <point x="280" y="540" type="line"/>
      <point x="312" y="563" type="line" smooth="yes"/>
      <point x="409" y="632"/>
      <point x="458" y="677"/>
      <point x="458" y="749" type="curve" smooth="yes"/>
      <point x="458" y="813"/>
      <point x="394" y="854"/>
      <point x="315" y="854" type="curve" smooth="yes"/>
      <point x="229" y="854"/>
      <point x="181" y="834"/>
      <point x="129" y="794" type="curve"/>
      <point x="186" y="701" type="line"/>
      <point x="219" y="729"/>
      <point x="253" y="740"/>
      <point x="273" y="740" type="curve" smooth="yes"/>
      <point x="288" y="740"/>
      <point x="300" y="733"/>
      <point x="300" y="715" type="curve" smooth="yes"/>
      <point x="300" y="692"/>
      <point x="281" y="669"/>
      <point x="218" y="618" type="curve" smooth="yes"/>
      <point x="89" y="515" type="line"/>
    </contour>
  </outline>
</glyph>
<glyph name="threesuperior" format="2">
  <advance width="401"/>
  <unicode hex="00B3"/>
  <outline>
    <contour>
      <point x="238" y="409" type="curve"/>
      <point x="358" y="409"/>
      <point x="414" y="473"/>
      <point x="414" y="548" type="curve" smooth="yes"/>
      <point x="414" y="591"/>
      <point x="394" y="621"/>
      <point x="337" y="636" type="curve"/>
      <point x="337" y="640" type="line"/>
      <point x="402" y="656"/>
      <point x="447" y="684"/>
      <point x="447" y="753" type="curve" smooth="yes"/>
      <point x="447" y="820"/>
      <point x="377" y="854"/>
      <point x="305" y="854" type="curve" smooth="yes"/>
      <point x="236" y="854"/>
      <point x="194" y="840"/>
      <point x="143" y="808" type="curve"/>
      <point x="190" y="719" type="line"/>
      <point x="233" y="745"/>
      <point x="253" y="751"/>
      <point x="276" y="751" type="curve" smooth="yes"/>
      <point x="294" y="751"/>
      <point x="308" y="741"/>
      <point x="308" y="723" type="curve" smooth="yes"/>
      <point x="308" y="694"/>
      <point x="279" y="680"/>
      <point x="237" y="680" type="curve" smooth="yes"/>
      <point x="192" y="680" type="line"/>
      <point x="170" y="585" type="line"/>
      <point x="225" y="585" type="line" smooth="yes"/>
      <point x="267" y="585"/>
      <point x="277" y="568"/>
      <point x="277" y="552" type="curve" smooth="yes"/>
      <point x="277" y="526"/>
      <point x="256" y="513"/>
      <point x="209" y="513" type="curve" smooth="yes"/>
      <point x="177" y="513"/>
      <point x="130" y="525"/>
      <point x="90" y="553" type="curve"/>
      <point x="89" y="443" type="line"/>
      <point x="129" y="419"/>
      <point x="167" y="409"/>
    </contour>
  </outline>
</glyph>
<glyph name="acute" format="2">
  <advance width="403"/>
  <unicode hex="00B4"/>
  <anchor x="200" y="553" name="_top"/>
  <outline>
    <contour>
      <point x="112" y="617" type="curve"/>
      <point x="112" y="606" type="line"/>
      <point x="252" y="606" type="line"/>
      <point x="314" y="639"/>
      <point x="438" y="723"/>
      <point x="466" y="759" type="curve"/>
      <point x="466" y="766" type="line"/>
      <point x="252" y="766" type="line"/>
      <point x="215" y="718"/>
      <point x="159" y="655"/>
    </contour>
  </outline>
</glyph>
<glyph name="micro" format="2">
  <advance width="602"/>
  <unicode hex="00B5"/>
  <outline>
    <contour>
      <point x="-42" y="-240" type="line"/>
      <point x="146" y="-240" type="line"/>
      <point x="171" y="-120" type="line" smooth="yes"/>
      <point x="182" y="-68"/>
      <point x="192" y="-24"/>
      <point x="196" y="28" type="curve"/>
      <point x="200" y="28" type="line"/>
      <point x="208" y="2"/>
      <point x="227" y="-10"/>
      <point x="258" y="-10" type="curve" smooth="yes"/>
      <point x="293" y="-10"/>
      <point x="321" y="13"/>
      <point x="339" y="60" type="curve"/>
      <point x="343" y="60" type="line"/>
      <point x="341" y="0" type="line"/>
      <point x="482" y="0" type="line"/>
      <point x="599" y="553" type="line"/>
      <point x="409" y="553" type="line"/>
      <point x="351" y="284" type="line" smooth="yes"/>
      <point x="327" y="173"/>
      <point x="315" y="141"/>
      <point x="274" y="141" type="curve" smooth="yes"/>
      <point x="258" y="141"/>
      <point x="243" y="155"/>
      <point x="243" y="182" type="curve" smooth="yes"/>
      <point x="243" y="205"/>
      <point x="250" y="235"/>
      <point x="253" y="252" type="curve" smooth="yes"/>
      <point x="316" y="553" type="line"/>
      <point x="126" y="553" type="line"/>
    </contour>
  </outline>
</glyph>
<glyph name="paragraph" format="2">
  <advance width="608"/>
  <unicode hex="00B6"/>
  <outline>
    <contour>
      <point x="296" y="273" type="curve"/>
      <point x="296" y="-127" type="line"/>
      <point x="387" y="-127" type="line"/>
      <point x="387" y="648" type="line"/>
      <point x="459" y="648" type="line"/>
      <point x="459" y="-127" type="line"/>
      <point x="551" y="-127" type="line"/>
      <point x="551" y="760" type="line"/>
      <point x="260" y="760" type="line" smooth="yes"/>
      <point x="134" y="760"/>
      <point x="48" y="699"/>
      <point x="48" y="503" type="curve" smooth="yes"/>
      <point x="48" y="325"/>
      <point x="124" y="264"/>
      <point x="240" y="264" type="curve" smooth="yes"/>
      <point x="267" y="264"/>
      <point x="277" y="267"/>
    </contour>
  </outline>
</glyph>
<glyph name="cedilla" format="2">
  <advance width="173"/>
  <unicode hex="00B8"/>
  <outline>
    <contour>
      <point x="-13" y="-240" type="curve" smooth="yes"/>
      <point x="78" y="-240"/>
      <point x="134" y="-193"/>
      <point x="134" y="-114" type="curve" smooth="yes"/>
      <point x="134" y="-57"/>
      <point x="99" y="-31"/>
      <point x="48" y="-20" type="curve"/>
      <point x="58" y="0" type="line"/>
      <point x="-39" y="0" type="line"/>
      <point x="-72" y="-66" type="line"/>
      <point x="-14" y="-78"/>
      <point x="-5" y="-97"/>
      <point x="-5" y="-115" type="curve" smooth="yes"/>
      <point x="-5" y="-133"/>
      <point x="-15" y="-139"/>
      <point x="-33" y="-139" type="curve" smooth="yes"/>
      <point x="-42" y="-139"/>
      <point x="-83" y="-133"/>
      <point x="-106" y="-126" type="curve"/>
      <point x="-107" y="-226" type="line"/>
      <point x="-82" y="-235"/>
      <point x="-53" y="-240"/>
    </contour>
  </outline>
</glyph>
<glyph name="onesuperior" format="2">
  <advance width="401"/>
  <unicode hex="00B9"/>
  <outline>
    <contour>
      <point x="214" y="593" type="curve" smooth="yes"/>
      <point x="174" y="415" type="line"/>
      <point x="329" y="415" type="line"/>
      <point x="420" y="844" type="line"/>
      <point x="298" y="844" type="line"/>
      <point x="96" y="717" type="line"/>
      <point x="153" y="627" type="line"/>
      <point x="207" y="665" type="line" smooth="yes"/>
      <point x="209" y="667"/>
      <point x="227" y="683"/>
      <point x="240" y="694" type="curve"/>
      <point x="234" y="676"/>
      <point x="224" y="640"/>
    </contour>
  </outline>
</glyph>
<glyph name="ordmasculine" format="2">
  <advance width="387"/>
  <unicode hex="00BA"/>
  <anchor x="220" y="356" name="bottom"/>
  <anchor x="286" y="721" name="top"/>
  <outline>
    <contour>
      <point x="222" y="355" type="curve" smooth="yes"/>
      <point x="362" y="355"/>
      <point x="428" y="461"/>
      <point x="428" y="573" type="curve" smooth="yes"/>
      <point x="428" y="671"/>
      <point x="366" y="722"/>
      <point x="282" y="722" type="curve" smooth="yes"/>
      <point x="142" y="722"/>
      <point x="76" y="614"/>
      <point x="76" y="498" type="curve" smooth="yes"/>
      <point x="76" y="407"/>
      <point x="132" y="355"/>
    </contour>
    <contour>
      <point x="235" y="455" type="curve" smooth="yes"/>
      <point x="219" y="455"/>
      <point x="209" y="468"/>
      <point x="209" y="501" type="curve" smooth="yes"/>
      <point x="209" y="544"/>
      <point x="228" y="622"/>
      <point x="269" y="622" type="curve" smooth="yes"/>
      <point x="288" y="622"/>
      <point x="296" y="604"/>
      <point x="296" y="575" type="curve" smooth="yes"/>
      <point x="296" y="523"/>
      <point x="276" y="455"/>
    </contour>
  </outline>
</glyph>
<glyph name="AE" format="2">
  <advance width="910"/>
  <unicode hex="00C6"/>
  <anchor x="399" y="0" name="bottom"/>
  <anchor x="561" y="714" name="top"/>
  <outline>
    <contour>
      <point x="-58" y="0" type="line"/>
      <point x="143" y="0" type="line"/>
      <point x="218" y="134" type="line"/>
      <point x="411" y="134" type="line"/>
      <point x="385" y="0" type="line"/>
      <point x="793" y="0" type="line"/>
      <point x="828" y="157" type="line"/>
      <point x="611" y="157" type="line"/>
      <point x="636" y="292" type="line"/>
      <point x="839" y="292" type="line"/>
      <point x="875" y="447" type="line"/>
      <point x="673" y="447" type="line"/>
      <point x="694" y="559" type="line"/>
      <point x="911" y="559" type="line"/>
      <point x="944" y="714" type="line"/>
      <point x="370" y="714" type="line"/>
    </contour>
    <contour>
      <point x="318" y="294" type="line"/>
      <point x="471" y="559" type="line"/>
      <point x="501" y="559" type="line"/>
      <point x="448" y="294" type="line"/>
    </contour>
  </outline>
</glyph>
<glyph name="Eth" format="2">
  <advance width="652"/>
  <unicode hex="00D0"/>
  <anchor x="270" y="0" name="bottom"/>
  <anchor x="411" y="714" name="top"/>
  <outline>
    <contour>
      <point x="372" y="431" type="line"/>
      <point x="41" y="431" type="line"/>
      <point x="5" y="275" type="line"/>
      <point x="336" y="275" type="line"/>
    </contour>
    <component base="D"/>
  </outline>
</glyph>
<glyph name="Oslash" format="2">
  <advance width="702"/>
  <unicode hex="00D8"/>
  <anchor x="286" y="-42" name="bottom"/>
  <anchor x="454" y="746" name="top"/>
  <outline>
    <contour>
      <point x="117" y="-42" type="line"/>
      <point x="167" y="24" type="line"/>
      <point x="207" y="2"/>
      <point x="257" y="-10"/>
      <point x="319" y="-10" type="curve" smooth="yes"/>
      <point x="556" y="-10"/>
      <point x="677" y="232"/>
      <point x="677" y="454" type="curve" smooth="yes"/>
      <point x="677" y="522"/>
      <point x="661" y="582"/>
      <point x="630" y="627" type="curve"/>
      <point x="674" y="688" type="line"/>
      <point x="602" y="746" type="line"/>
      <point x="560" y="690" type="line"/>
      <point x="521" y="712"/>
      <point x="472" y="725"/>
      <point x="413" y="725" type="curve" smooth="yes"/>
      <point x="168" y="725"/>
      <point x="49" y="483"/>
      <point x="49" y="261" type="curve" smooth="yes"/>
      <point x="49" y="191"/>
      <point x="65" y="131"/>
      <point x="97" y="86" type="curve"/>
      <point x="43" y="15" type="line"/>
    </contour>
    <contour>
      <point x="327" y="148" type="curve" smooth="yes"/>
      <point x="307" y="148"/>
      <point x="292" y="153"/>
      <point x="278" y="162" type="curve"/>
      <point x="482" y="447" type="line"/>
      <point x="482" y="440"/>
      <point x="482" y="433"/>
      <point x="482" y="425" type="curve" smooth="yes"/>
      <point x="482" y="272"/>
      <point x="416" y="148"/>
    </contour>
    <contour>
      <point x="447" y="551" type="curve"/>
      <point x="243" y="263" type="line"/>
      <point x="244" y="271"/>
      <point x="244" y="280"/>
      <point x="244" y="287" type="curve" smooth="yes"/>
      <point x="244" y="435"/>
      <point x="312" y="567"/>
      <point x="399" y="567" type="curve" smooth="yes"/>
      <point x="419" y="567"/>
      <point x="435" y="561"/>
    </contour>
  </outline>
</glyph>
<glyph name="Thorn" format="2">
  <advance width="596"/>
  <unicode hex="00DE"/>
  <anchor x="242" y="0" name="bottom"/>
  <anchor x="394" y="714" name="top"/>
  <outline>
    <contour>
      <point x="13" y="0" type="line"/>
      <point x="204" y="0" type="line"/>
      <point x="232" y="134" type="line"/>
      <point x="266" y="134" type="line" smooth="yes"/>
      <point x="445" y="134"/>
      <point x="567" y="226"/>
      <point x="567" y="399" type="curve" smooth="yes"/>
      <point x="567" y="515"/>
      <point x="505" y="610"/>
      <point x="339" y="610" type="curve" smooth="yes"/>
      <point x="335" y="610" type="line"/>
      <point x="355" y="714" type="line"/>
      <point x="164" y="714" type="line"/>
    </contour>
    <contour>
      <point x="292" y="290" type="curve" smooth="yes"/>
      <point x="267" y="290" type="line"/>
      <point x="300" y="455" type="line"/>
      <point x="312" y="455" type="line" smooth="yes"/>
      <point x="353" y="455"/>
      <point x="376" y="425"/>
      <point x="376" y="391" type="curve" smooth="yes"/>
      <point x="376" y="322"/>
      <point x="344" y="290"/>
    </contour>
  </outline>
</glyph>
<glyph name="germandbls" format="2">
  <advance width="690"/>
  <unicode hex="00DF"/>
  <anchor x="238" y="-240" name="bottom"/>
  <anchor x="452" y="765" name="top"/>
  <outline>
    <contour>
      <point x="-22" y="-240" type="curve" smooth="yes"/>
      <point x="107" y="-240"/>
      <point x="166" y="-163"/>
      <point x="189" y="-57" type="curve" smooth="yes"/>
      <point x="312" y="521" type="line" smooth="yes"/>
      <point x="325" y="583"/>
      <point x="364" y="617"/>
      <point x="405" y="617" type="curve" smooth="yes"/>
      <point x="465" y="617"/>
      <point x="477" y="587"/>
      <point x="477" y="560" type="curve" smooth="yes"/>
      <point x="477" y="531"/>
      <point x="463" y="509"/>
      <point x="418" y="483" type="curve" smooth="yes"/>
      <point x="351" y="444"/>
      <point x="321" y="416"/>
      <point x="321" y="346" type="curve" smooth="yes"/>
      <point x="321" y="308"/>
      <point x="331" y="273"/>
      <point x="397" y="230" type="curve" smooth="yes"/>
      <point x="452" y="194"/>
      <point x="458" y="184"/>
      <point x="458" y="164" type="curve" smooth="yes"/>
      <point x="458" y="145"/>
      <point x="443" y="128"/>
      <point x="413" y="128" type="curve" smooth="yes"/>
      <point x="376" y="128"/>
      <point x="319" y="141"/>
      <point x="286" y="158" type="curve"/>
      <point x="285" y="12" type="line"/>
      <point x="315" y="-1"/>
      <point x="350" y="-10"/>
      <point x="409" y="-10" type="curve" smooth="yes"/>
      <point x="588" y="-10"/>
      <point x="648" y="88"/>
      <point x="648" y="184" type="curve" smooth="yes"/>
      <point x="648" y="237"/>
      <point x="631" y="274"/>
      <point x="599" y="300" type="curve" smooth="yes"/>
      <point x="559" y="332"/>
      <point x="513" y="338"/>
      <point x="513" y="372" type="curve" smooth="yes"/>
      <point x="513" y="391"/>
      <point x="520" y="400"/>
      <point x="567" y="422" type="curve" smooth="yes"/>
      <point x="634" y="454"/>
      <point x="666" y="503"/>
      <point x="666" y="585" type="curve" smooth="yes"/>
      <point x="666" y="689"/>
      <point x="590" y="765"/>
      <point x="422" y="765" type="curve" smooth="yes"/>
      <point x="234" y="765"/>
      <point x="158" y="682"/>
      <point x="127" y="535" type="curve" smooth="yes"/>
      <point x="9" y="-27" type="line" smooth="yes"/>
      <point x="0" y="-69"/>
      <point x="-20" y="-88"/>
      <point x="-67" y="-88" type="curve" smooth="yes"/>
      <point x="-84" y="-88"/>
      <point x="-105" y="-84"/>
      <point x="-121" y="-79" type="curve"/>
      <point x="-123" y="-227" type="line"/>
      <point x="-101" y="-234"/>
      <point x="-58" y="-240"/>
    </contour>
  </outline>
</glyph>
<glyph name="ae" format="2">
  <advance width="829"/>
  <unicode hex="00E6"/>
  <anchor x="359" y="0" name="bottom"/>
  <anchor x="477" y="553" name="top"/>
  <outline>
    <contour>
      <point x="188" y="-10" type="curve" smooth="yes"/>
      <point x="249" y="-10"/>
      <point x="283" y="19"/>
      <point x="309" y="60" type="curve"/>
      <point x="313" y="60" type="line"/>
      <point x="308" y="0" type="line"/>
      <point x="417" y="0" type="line"/>
      <point x="434" y="45" type="line"/>
      <point x="458" y="9"/>
      <point x="498" y="-10"/>
      <point x="551" y="-10" type="curve" smooth="yes"/>
      <point x="635" y="-10"/>
      <point x="678" y="10"/>
      <point x="727" y="40" type="curve"/>
      <point x="728" y="174" type="line"/>
      <point x="671" y="144"/>
      <point x="629" y="126"/>
      <point x="574" y="126" type="curve" smooth="yes"/>
      <point x="530" y="126"/>
      <point x="505" y="149"/>
      <point x="505" y="198" type="curve" smooth="yes"/>
      <point x="505" y="201"/>
      <point x="505" y="203"/>
      <point x="504" y="206" type="curve"/>
      <point x="533" y="206" type="line" smooth="yes"/>
      <point x="729" y="206"/>
      <point x="813" y="288"/>
      <point x="813" y="411" type="curve" smooth="yes"/>
      <point x="813" y="503"/>
      <point x="749" y="563"/>
      <point x="653" y="563" type="curve" smooth="yes"/>
      <point x="601" y="563"/>
      <point x="554" y="537"/>
      <point x="525" y="507" type="curve"/>
      <point x="523" y="553" type="line"/>
      <point x="425" y="553" type="line"/>
      <point x="400" y="485" type="line"/>
      <point x="397" y="485" type="line"/>
      <point x="369" y="536"/>
      <point x="336" y="563"/>
      <point x="277" y="563" type="curve" smooth="yes"/>
      <point x="111" y="563"/>
      <point x="40" y="332"/>
      <point x="40" y="197" type="curve" smooth="yes"/>
      <point x="40" y="43"/>
      <point x="110" y="-10"/>
    </contour>
    <contour>
      <point x="269" y="142" type="curve" smooth="yes"/>
      <point x="243" y="142"/>
      <point x="233" y="166"/>
      <point x="233" y="209" type="curve" smooth="yes"/>
      <point x="233" y="305"/>
      <point x="271" y="411"/>
      <point x="316" y="411" type="curve" smooth="yes"/>
      <point x="338" y="411"/>
      <point x="351" y="384"/>
      <point x="351" y="343" type="curve" smooth="yes"/>
      <point x="351" y="321"/>
      <point x="351" y="300"/>
      <point x="348" y="280" type="curve" smooth="yes"/>
      <point x="337" y="209"/>
      <point x="306" y="142"/>
    </contour>
    <contour>
      <point x="536" y="324" type="curve" smooth="yes"/>
      <point x="524" y="324" type="line"/>
      <point x="529" y="375"/>
      <point x="559" y="435"/>
      <point x="598" y="435" type="curve" smooth="yes"/>
      <point x="624" y="435"/>
      <point x="635" y="419"/>
      <point x="635" y="399" type="curve" smooth="yes"/>
      <point x="635" y="364"/>
      <point x="611" y="324"/>
    </contour>
  </outline>
</glyph>
<glyph name="eth" format="2">
  <advance width="533"/>
  <unicode hex="00F0"/>
  <anchor x="211" y="0" name="bottom"/>
  <anchor x="375" y="768" name="top"/>
  <outline>
    <contour>
      <point x="242" y="-10" type="curve" smooth="yes"/>
      <point x="454" y="-10"/>
      <point x="527" y="152"/>
      <point x="527" y="355" type="curve" smooth="yes"/>
      <point x="527" y="456"/>
      <point x="499" y="571"/>
      <point x="456" y="630" type="curve"/>
      <point x="541" y="674" type="line"/>
      <point x="503" y="755" type="line"/>
      <point x="392" y="701" type="line"/>
      <point x="359" y="728"/>
      <point x="324" y="750"/>
      <point x="286" y="768" type="curve"/>
      <point x="232" y="680" type="line"/>
      <point x="244" y="669"/>
      <point x="258" y="657"/>
      <point x="272" y="644" type="curve"/>
      <point x="168" y="594" type="line"/>
      <point x="204" y="512" type="line"/>
      <point x="336" y="574" type="line"/>
      <point x="355" y="539"/>
      <point x="369" y="493"/>
      <point x="373" y="454" type="curve"/>
      <point x="368" y="452" type="line"/>
      <point x="352" y="475"/>
      <point x="325" y="495"/>
      <point x="281" y="495" type="curve" smooth="yes"/>
      <point x="128" y="495"/>
      <point x="43" y="365"/>
      <point x="43" y="205" type="curve" smooth="yes"/>
      <point x="43" y="71"/>
      <point x="119" y="-10"/>
    </contour>
    <contour>
      <point x="262" y="127" type="curve" smooth="yes"/>
      <point x="242" y="127"/>
      <point x="232" y="150"/>
      <point x="232" y="196" type="curve" smooth="yes"/>
      <point x="232" y="253"/>
      <point x="252" y="358"/>
      <point x="309" y="358" type="curve" smooth="yes"/>
      <point x="333" y="358"/>
      <point x="340" y="329"/>
      <point x="340" y="283" type="curve" smooth="yes"/>
      <point x="340" y="226"/>
      <point x="320" y="127"/>
    </contour>
  </outline>
</glyph>
<glyph name="divide" format="2">
  <advance width="530"/>
  <unicode hex="00F7"/>
  <outline>
    <contour>
      <point x="49" y="287" type="line"/>
      <point x="520" y="287" type="line"/>
      <point x="520" y="418" type="line"/>
      <point x="49" y="418" type="line"/>
    </contour>
    <contour>
      <point x="284" y="79" type="curve" smooth="yes"/>
      <point x="324" y="79"/>
      <point x="361" y="104"/>
      <point x="361" y="162" type="curve" smooth="yes"/>
      <point x="361" y="224"/>
      <point x="324" y="245"/>
      <point x="284" y="245" type="curve" smooth="yes"/>
      <point x="243" y="245"/>
      <point x="208" y="224"/>
      <point x="208" y="162" type="curve" smooth="yes"/>
      <point x="208" y="104"/>
      <point x="243" y="79"/>
    </contour>
    <contour>
      <point x="284" y="460" type="curve" smooth="yes"/>
      <point x="324" y="460"/>
      <point x="361" y="485"/>
      <point x="361" y="543" type="curve" smooth="yes"/>
      <point x="361" y="605"/>
      <point x="324" y="626"/>
      <point x="284" y="626" type="curve" smooth="yes"/>
      <point x="243" y="626"/>
      <point x="208" y="605"/>
      <point x="208" y="543" type="curve" smooth="yes"/>
      <point x="208" y="485"/>
      <point x="243" y="460"/>
    </contour>
  </outline>
</glyph>
<glyph name="oslash" format="2">
  <advance width="607"/>
  <unicode hex="00F8"/>
  <anchor x="236" y="-54" name="bottom"/>
  <anchor x="374" y="594" name="top"/>
  <outline>
    <contour>
      <point x="90" y="-54" type="line"/>
      <point x="147" y="14" type="line"/>
      <point x="177" y="0"/>
      <point x="213" y="-10"/>
      <point x="258" y="-10" type="curve" smooth="yes"/>
      <point x="460" y="-10"/>
      <point x="572" y="163"/>
      <point x="572" y="352" type="curve" smooth="yes"/>
      <point x="572" y="405"/>
      <point x="557" y="448"/>
      <point x="534" y="481" type="curve"/>
      <point x="585" y="541" type="line"/>
      <point x="529" y="594" type="line"/>
      <point x="476" y="535" type="line"/>
      <point x="443" y="552"/>
      <point x="406" y="563"/>
      <point x="358" y="563" type="curve" smooth="yes"/>
      <point x="151" y="563"/>
      <point x="41" y="390"/>
      <point x="41" y="200" type="curve" smooth="yes"/>
      <point x="41" y="143"/>
      <point x="57" y="98"/>
      <point x="85" y="63" type="curve"/>
      <point x="33" y="-1" type="line"/>
    </contour>
    <contour>
      <point x="280" y="127" type="curve" smooth="yes"/>
      <point x="268" y="127"/>
      <point x="259" y="129"/>
      <point x="249" y="134" type="curve"/>
      <point x="393" y="317" type="line"/>
      <point x="393" y="310"/>
      <point x="392" y="304"/>
      <point x="392" y="297" type="curve" smooth="yes"/>
      <point x="392" y="188"/>
      <point x="334" y="127"/>
    </contour>
    <contour>
      <point x="372" y="414" type="curve"/>
      <point x="218" y="220" type="line"/>
      <point x="218" y="227"/>
      <point x="218" y="233"/>
      <point x="218" y="239" type="curve" smooth="yes"/>
      <point x="222" y="358"/>
      <point x="287" y="428"/>
      <point x="335" y="428" type="curve" smooth="yes"/>
      <point x="350" y="428"/>
      <point x="361" y="423"/>
    </contour>
  </outline>
</glyph>
<glyph name="thorn" format="2">
  <advance width="579"/>
  <unicode hex="00FE"/>
  <anchor x="183" y="-240" name="bottom"/>
  <anchor x="396" y="760" name="top"/>
  <outline>
    <contour>
      <point x="-42" y="-240" type="line"/>
      <point x="146" y="-240" type="line"/>
      <point x="170" y="-120" type="line" smooth="yes"/>
      <point x="188" y="-34"/>
      <point x="194" y="9"/>
      <point x="199" y="61" type="curve"/>
      <point x="203" y="61" type="line"/>
      <point x="227" y="18"/>
      <point x="261" y="-10"/>
      <point x="305" y="-10" type="curve" smooth="yes"/>
      <point x="448" y="-10"/>
      <point x="545" y="179"/>
      <point x="545" y="363" type="curve" smooth="yes"/>
      <point x="545" y="490"/>
      <point x="487" y="563"/>
      <point x="396" y="563" type="curve" smooth="yes"/>
      <point x="347" y="563"/>
      <point x="320" y="538"/>
      <point x="296" y="500" type="curve"/>
      <point x="292" y="500" type="line"/>
      <point x="289" y="500"/>
      <point x="319" y="564"/>
      <point x="336" y="647" type="curve" smooth="yes"/>
      <point x="359" y="760" type="line"/>
      <point x="170" y="760" type="line"/>
    </contour>
    <contour>
      <point x="269" y="142" type="curve" smooth="yes"/>
      <point x="248" y="142"/>
      <point x="235" y="169"/>
      <point x="235" y="210" type="curve" smooth="yes"/>
      <point x="235" y="232"/>
      <point x="236" y="253"/>
      <point x="239" y="273" type="curve" smooth="yes"/>
      <point x="250" y="344"/>
      <point x="282" y="411"/>
      <point x="319" y="411" type="curve" smooth="yes"/>
      <point x="341" y="411"/>
      <point x="352" y="387"/>
      <point x="352" y="343" type="curve" smooth="yes"/>
      <point x="352" y="248"/>
      <point x="314" y="142"/>
    </contour>
  </outline>
</glyph>
<glyph name="dcroat" format="2">
  <advance width="576"/>
  <unicode hex="0111"/>
  <anchor x="231" y="0" name="bottom"/>
  <anchor x="394" y="760" name="top"/>
  <outline>
    <contour>
      <point x="186" y="-10" type="curve" smooth="yes"/>
      <point x="262" y="-10"/>
      <point x="283" y="22"/>
      <point x="307" y="60" type="curve"/>
      <point x="311" y="60" type="line"/>
      <point x="306" y="0" type="line"/>
      <point x="459" y="0" type="line"/>
      <point x="578" y="570" type="line"/>
      <point x="652" y="570" type="line"/>
      <point x="678" y="688" type="line"/>
      <point x="604" y="688" type="line"/>
      <point x="620" y="760" type="line"/>
      <point x="428" y="760" type="line"/>
      <point x="414" y="688" type="line"/>
      <point x="306" y="688" type="line"/>
      <point x="281" y="570" type="line"/>
      <point x="390" y="570" type="line"/>
      <point x="389" y="563" type="line" smooth="yes"/>
      <point x="381" y="516"/>
      <point x="375" y="451"/>
      <point x="375" y="439" type="curve"/>
      <point x="371" y="439" type="line"/>
      <point x="341" y="484"/>
      <point x="310" y="513"/>
      <point x="254" y="513" type="curve" smooth="yes"/>
      <point x="126" y="513"/>
      <point x="40" y="351"/>
      <point x="40" y="196" type="curve" smooth="yes"/>
      <point x="40" y="43"/>
      <point x="108" y="-10"/>
    </contour>
    <contour>
      <point x="267" y="142" type="curve" smooth="yes"/>
      <point x="244" y="142"/>
      <point x="233" y="166"/>
      <point x="233" y="210" type="curve" smooth="yes"/>
      <point x="233" y="272"/>
      <point x="257" y="361"/>
      <point x="303" y="361" type="curve" smooth="yes"/>
      <point x="324" y="361"/>
      <point x="338" y="334"/>
      <point x="338" y="293" type="curve" smooth="yes"/>
      <point x="338" y="213"/>
      <point x="310" y="142"/>
    </contour>
  </outline>
</glyph>
<glyph name="Hbar" format="2">
  <advance width="682"/>
  <unicode hex="0126"/>
  <anchor x="285" y="0" name="bottom"/>
  <anchor x="437" y="714" name="top"/>
  <outline>
    <contour>
      <point x="13" y="0" type="line"/>
      <point x="204" y="0" type="line"/>
      <point x="265" y="290" type="line"/>
      <point x="412" y="290" type="line"/>
      <point x="352" y="0" type="line"/>
      <point x="543" y="0" type="line"/>
      <point x="653" y="522" type="line"/>
      <point x="733" y="522" type="line"/>
      <point x="758" y="637" type="line"/>
      <point x="679" y="637" type="line"/>
      <point x="694" y="714" type="line"/>
      <point x="503" y="714" type="line"/>
      <point x="488" y="637" type="line"/>
      <point x="341" y="637" type="line"/>
      <point x="355" y="714" type="line"/>
      <point x="164" y="714" type="line"/>
      <point x="148" y="637" type="line"/>
      <point x="69" y="637" type="line"/>
      <point x="45" y="522" type="line"/>
      <point x="123" y="522" type="line"/>
    </contour>
    <contour>
      <point x="301" y="449" type="line"/>
      <point x="314" y="522" type="line"/>
      <point x="462" y="522" type="line"/>
      <point x="449" y="449" type="line"/>
    </contour>
  </outline>
</glyph>
<glyph name="hbar" format="2">
  <advance width="595"/>
  <unicode hex="0127"/>
  <anchor x="241" y="0" name="bottom"/>
  <anchor x="404" y="760" name="top"/>
  <outline>
    <contour>
      <point x="9" y="0" type="line"/>
      <point x="198" y="0" type="line"/>
      <point x="245" y="220" type="line" smooth="yes"/>
      <point x="264" y="312"/>
      <point x="285" y="363"/>
      <point x="322" y="363" type="curve" smooth="yes"/>
      <point x="337" y="363"/>
      <point x="353" y="349"/>
      <point x="353" y="322" type="curve" smooth="yes"/>
      <point x="353" y="299"/>
      <point x="348" y="269"/>
      <point x="344" y="252" type="curve" smooth="yes"/>
      <point x="293" y="0" type="line"/>
      <point x="482" y="0" type="line"/>
      <point x="532" y="244" type="line" smooth="yes"/>
      <point x="540" y="280"/>
      <point x="545" y="321"/>
      <point x="545" y="358" type="curve" smooth="yes"/>
      <point x="545" y="442"/>
      <point x="505" y="513"/>
      <point x="407" y="513" type="curve" smooth="yes"/>
      <point x="357" y="513"/>
      <point x="315" y="494"/>
      <point x="284" y="450" type="curve"/>
      <point x="280" y="450" type="line"/>
      <point x="292" y="479"/>
      <point x="308" y="527"/>
      <point x="318" y="570" type="curve"/>
      <point x="439" y="570" type="line"/>
      <point x="465" y="688" type="line"/>
      <point x="344" y="688" type="line"/>
      <point x="359" y="760" type="line"/>
      <point x="170" y="760" type="line"/>
      <point x="154" y="688" type="line"/>
      <point x="75" y="688" type="line"/>
      <point x="50" y="570" type="line"/>
      <point x="128" y="570" type="line"/>
    </contour>
  </outline>
</glyph>
<glyph name="kgreenlandic" format="2">
  <advance width="597"/>
  <unicode hex="0138"/>
  <anchor x="243" y="0" name="bottom"/>
  <anchor x="362" y="553" name="top"/>
  <outline>
    <contour>
      <point x="9" y="0" type="line"/>
      <point x="198" y="0" type="line"/>
      <point x="232" y="165" type="line"/>
      <point x="276" y="191" type="line"/>
      <point x="334" y="0" type="line"/>
      <point x="549" y="0" type="line"/>
      <point x="426" y="303" type="line"/>
      <point x="653" y="553" type="line"/>
      <point x="435" y="553" type="line"/>
      <point x="262" y="331" type="line"/>
      <point x="258" y="331" type="line"/>
      <point x="269" y="359"/>
      <point x="281" y="400"/>
      <point x="289" y="436" type="curve" smooth="yes"/>
      <point x="314" y="553" type="line"/>
      <point x="125" y="553" type="line"/>
    </contour>
  </outline>
</glyph>
<glyph name="Lslash" format="2">
  <advance width="515"/>
  <unicode hex="0141"/>
  <anchor x="202" y="0" name="bottom"/>
  <anchor x="354" y="714" name="top"/>
  <outline>
    <contour>
      <point x="25" y="0" type="line"/>
      <point x="433" y="0" type="line"/>
      <point x="468" y="156" type="line"/>
      <point x="251" y="156" type="line"/>
      <point x="288" y="338" type="line"/>
      <point x="471" y="434" type="line"/>
      <point x="409" y="553" type="line"/>
      <point x="325" y="509" type="line"/>
      <point x="367" y="714" type="line"/>
      <point x="176" y="714" type="line"/>
      <point x="111" y="407" type="line"/>
      <point x="-23" y="336" type="line"/>
      <point x="36" y="218" type="line"/>
      <point x="75" y="237" type="line"/>
    </contour>
  </outline>
</glyph>
<glyph name="lslash" format="2">
  <advance width="344"/>
  <unicode hex="0142"/>
  <anchor x="116" y="0" name="bottom"/>
  <anchor x="278" y="760" name="top"/>
  <outline>
    <contour>
      <point x="24" y="0" type="line"/>
      <point x="213" y="0" type="line"/>
      <point x="275" y="300" type="line"/>
      <point x="406" y="366" type="line"/>
      <point x="352" y="475" type="line"/>
      <point x="309" y="454" type="line"/>
      <point x="374" y="760" type="line"/>
      <point x="185" y="760" type="line"/>
      <point x="99" y="358" type="line"/>
      <point x="-25" y="293" type="line"/>
      <point x="24" y="184" type="line"/>
      <point x="67" y="205" type="line"/>
    </contour>
  </outline>
</glyph>
<glyph name="Eng" format="2">
  <advance width="758"/>
  <unicode hex="014A"/>
  <anchor x="274" y="-225" name="bottom"/>
  <anchor x="475" y="714" name="top"/>
  <outline>
    <contour>
      <point x="346" y="-225" type="curve" smooth="yes"/>
      <point x="518" y="-225"/>
      <point x="588" y="-152"/>
      <point x="620" y="0" type="curve" smooth="yes"/>
      <point x="771" y="714" type="line"/>
      <point x="601" y="714" type="line"/>
      <point x="549" y="461" type="line" smooth="yes"/>
      <point x="539" y="411"/>
      <point x="524" y="331"/>
      <point x="519" y="288" type="curve"/>
      <point x="515" y="288" type="line"/>
      <point x="375" y="714" type="line"/>
      <point x="164" y="714" type="line"/>
      <point x="13" y="0" type="line"/>
      <point x="182" y="0" type="line"/>
      <point x="244" y="298" type="line" smooth="yes"/>
      <point x="258" y="363"/>
      <point x="269" y="476"/>
      <point x="272" y="502" type="curve"/>
      <point x="275" y="502" type="line"/>
      <point x="445" y="4" type="line"/>
      <point x="430" y="-53"/>
      <point x="381" y="-73"/>
      <point x="337" y="-73" type="curve" smooth="yes"/>
      <point x="292" y="-73"/>
      <point x="269" y="-67"/>
      <point x="246" y="-61" type="curve"/>
      <point x="244" y="-211" type="line"/>
      <point x="276" y="-219"/>
      <point x="315" y="-225"/>
    </contour>
  </outline>
</glyph>
<glyph name="eng" format="2">
  <advance width="595"/>
  <unicode hex="014B"/>
  <anchor x="190" y="-240" name="bottom"/>
  <anchor x="360" y="553" name="top"/>
  <anchor x="634" y="553" name="topright"/>
  <outline>
    <contour>
      <point x="254" y="-240" type="curve" smooth="yes"/>
      <point x="390" y="-240"/>
      <point x="451" y="-146"/>
      <point x="472" y="-46" type="curve" smooth="yes"/>
      <point x="543" y="294" type="line" smooth="yes"/>
      <point x="551" y="330"/>
      <point x="556" y="371"/>
      <point x="556" y="408" type="curve" smooth="yes"/>
      <point x="556" y="492"/>
      <point x="516" y="563"/>
      <point x="418" y="563" type="curve" smooth="yes"/>
      <point x="352" y="563"/>
      <point x="310" y="538"/>
      <point x="277" y="476" type="curve"/>
      <point x="273" y="476" type="line"/>
      <point x="279" y="553" type="line"/>
      <point x="126" y="553" type="line"/>
      <point x="9" y="0" type="line"/>
      <point x="198" y="0" type="line"/>
      <point x="256" y="270" type="line" smooth="yes"/>
      <point x="277" y="367"/>
      <point x="304" y="413"/>
      <point x="333" y="413" type="curve" smooth="yes"/>
      <point x="348" y="413"/>
      <point x="364" y="399"/>
      <point x="364" y="372" type="curve" smooth="yes"/>
      <point x="364" y="349"/>
      <point x="359" y="319"/>
      <point x="355" y="302" type="curve" smooth="yes"/>
      <point x="289" y="-16" type="line" smooth="yes"/>
      <point x="278" y="-68"/>
      <point x="246" y="-88"/>
      <point x="208" y="-88" type="curve" smooth="yes"/>
      <point x="192" y="-88"/>
      <point x="179" y="-87"/>
      <point x="156" y="-79" type="curve"/>
      <point x="154" y="-227" type="line"/>
      <point x="177" y="-234"/>
      <point x="219" y="-240"/>
    </contour>
  </outline>
</glyph>
<glyph name="OE" format="2">
  <advance width="892"/>
  <unicode hex="0152"/>
  <anchor x="390" y="0" name="bottom"/>
  <anchor x="542" y="714" name="top"/>
  <outline>
    <contour>
      <point x="298" y="-10" type="curve" smooth="yes"/>
      <point x="330" y="-10"/>
      <point x="362" y="-6"/>
      <point x="391" y="0" type="curve"/>
      <point x="775" y="0" type="line"/>
      <point x="809" y="158" type="line"/>
      <point x="591" y="158" type="line"/>
      <point x="617" y="291" type="line"/>
      <point x="819" y="291" type="line"/>
      <point x="856" y="448" type="line"/>
      <point x="653" y="448" type="line"/>
      <point x="674" y="558" type="line"/>
      <point x="892" y="558" type="line"/>
      <point x="926" y="714" type="line"/>
      <point x="513" y="714" type="line"/>
      <point x="488" y="720"/>
      <point x="454" y="725"/>
      <point x="427" y="725" type="curve" smooth="yes"/>
      <point x="149" y="725"/>
      <point x="49" y="460"/>
      <point x="49" y="254" type="curve" smooth="yes"/>
      <point x="49" y="97"/>
      <point x="134" y="-10"/>
    </contour>
    <contour>
      <point x="317" y="151" type="curve" smooth="yes"/>
      <point x="270" y="151"/>
      <point x="242" y="183"/>
      <point x="242" y="255" type="curve" smooth="yes"/>
      <point x="242" y="419"/>
      <point x="321" y="567"/>
      <point x="409" y="567" type="curve" smooth="yes"/>
      <point x="436" y="567"/>
      <point x="463" y="560"/>
      <point x="479" y="543" type="curve"/>
      <point x="403" y="171" type="line"/>
      <point x="376" y="157"/>
      <point x="344" y="151"/>
    </contour>
  </outline>
</glyph>
<glyph name="oe" format="2">
  <advance width="835"/>
  <unicode hex="0153"/>
  <anchor x="361" y="0" name="bottom"/>
  <anchor x="480" y="553" name="top"/>
  <outline>
    <contour>
      <point x="243" y="-10" type="curve" smooth="yes"/>
      <point x="308" y="-10"/>
      <point x="359" y="10"/>
      <point x="396" y="45" type="curve"/>
      <point x="424" y="9"/>
      <point x="463" y="-10"/>
      <point x="527" y="-10" type="curve" smooth="yes"/>
      <point x="622" y="-10"/>
      <point x="676" y="10"/>
      <point x="733" y="40" type="curve"/>
      <point x="734" y="174" type="line"/>
      <point x="681" y="144"/>
      <point x="635" y="126"/>
      <point x="582" y="126" type="curve" smooth="yes"/>
      <point x="534" y="126"/>
      <point x="511" y="149"/>
      <point x="511" y="197" type="curve" smooth="yes"/>
      <point x="511" y="201"/>
      <point x="511" y="203"/>
      <point x="510" y="206" type="curve"/>
      <point x="539" y="206" type="line" smooth="yes"/>
      <point x="735" y="206"/>
      <point x="819" y="288"/>
      <point x="819" y="411" type="curve" smooth="yes"/>
      <point x="819" y="503"/>
      <point x="746" y="563"/>
      <point x="628" y="563" type="curve" smooth="yes"/>
      <point x="555" y="563"/>
      <point x="499" y="540"/>
      <point x="458" y="502" type="curve"/>
      <point x="432" y="541"/>
      <point x="393" y="563"/>
      <point x="334" y="563" type="curve" smooth="yes"/>
      <point x="147" y="563"/>
      <point x="40" y="390"/>
      <point x="40" y="200" type="curve" smooth="yes"/>
      <point x="40" y="66"/>
      <point x="112" y="-10"/>
    </contour>
    <contour>
      <point x="265" y="132" type="curve" smooth="yes"/>
      <point x="245" y="132"/>
      <point x="234" y="153"/>
      <point x="234" y="195" type="curve" smooth="yes"/>
      <point x="234" y="303"/>
      <point x="275" y="421"/>
      <point x="322" y="421" type="curve" smooth="yes"/>
      <point x="341" y="421"/>
      <point x="355" y="400"/>
      <point x="355" y="358" type="curve" smooth="yes"/>
      <point x="355" y="250"/>
      <point x="314" y="132"/>
    </contour>
    <contour>
      <point x="542" y="324" type="curve" smooth="yes"/>
      <point x="530" y="324" type="line"/>
      <point x="535" y="375"/>
      <point x="565" y="435"/>
      <point x="604" y="435" type="curve" smooth="yes"/>
      <point x="630" y="435"/>
      <point x="640" y="419"/>
      <point x="640" y="399" type="curve" smooth="yes"/>
      <point x="640" y="364"/>
      <point x="617" y="324"/>
    </contour>
  </outline>
</glyph>
<glyph name="Tbar" format="2">
  <advance width="529"/>
  <unicode hex="0166"/>
  <anchor x="208" y="0" name="bottom"/>
  <anchor x="360" y="714" name="top"/>
  <outline>
    <contour>
      <point x="106" y="0" type="line"/>
      <point x="297" y="0" type="line"/>
      <point x="351" y="265" type="line"/>
      <point x="443" y="265" type="line"/>
      <point x="478" y="421" type="line"/>
      <point x="385" y="421" type="line"/>
      <point x="411" y="556" type="line"/>
      <point x="555" y="556" type="line"/>
      <point x="591" y="714" type="line"/>
      <point x="113" y="714" type="line"/>
      <point x="77" y="556" type="line"/>
      <point x="220" y="556" type="line"/>
      <point x="194" y="421" type="line"/>
      <point x="101" y="421" type="line"/>
      <point x="67" y="265" type="line"/>
      <point x="160" y="265" type="line"/>
    </contour>
  </outline>
</glyph>
<glyph name="tbar" format="2">
  <advance width="445"/>
  <unicode hex="0167"/>
  <anchor x="167" y="0" name="bottom"/>
  <anchor x="308" y="663" name="top"/>
  <outline>
    <contour>
      <point x="192" y="-10" type="curve" smooth="yes"/>
      <point x="265" y="-10"/>
      <point x="312" y="2"/>
      <point x="354" y="22" type="curve"/>
      <point x="355" y="162" type="line"/>
      <point x="324" y="149"/>
      <point x="286" y="141"/>
      <point x="268" y="141" type="curve" smooth="yes"/>
      <point x="253" y="141"/>
      <point x="242" y="143"/>
      <point x="242" y="164" type="curve" smooth="yes"/>
      <point x="242" y="176"/>
      <point x="249" y="190"/>
      <point x="248" y="209" type="curve" smooth="yes"/>
      <point x="248" y="216" type="line"/>
      <point x="365" y="216" type="line"/>
      <point x="391" y="334" type="line"/>
      <point x="275" y="334" type="line"/>
      <point x="291" y="410" type="line"/>
      <point x="426" y="410" type="line"/>
      <point x="458" y="553" type="line"/>
      <point x="324" y="553" type="line"/>
      <point x="346" y="663" type="line"/>
      <point x="220" y="663" type="line"/>
      <point x="155" y="547" type="line"/>
      <point x="52" y="504" type="line"/>
      <point x="31" y="410" type="line"/>
      <point x="102" y="410" type="line"/>
      <point x="86" y="334" type="line"/>
      <point x="38" y="334" type="line"/>
      <point x="12" y="216" type="line"/>
      <point x="60" y="216" type="line"/>
      <point x="54" y="180" type="line" smooth="yes"/>
      <point x="51" y="158"/>
      <point x="47" y="134"/>
      <point x="47" y="114" type="curve" smooth="yes"/>
      <point x="47" y="22"/>
      <point x="100" y="-10"/>
    </contour>
  </outline>
</glyph>
<glyph name="longs" format="2">
  <advance width="351"/>
  <unicode hex="017F"/>
  <anchor x="-21" y="-240" name="bottom"/>
  <anchor x="343" y="765" name="top"/>
  <outline>
    <contour>
      <point x="-16" y="-240" type="curve" smooth="yes"/>
      <point x="115" y="-240"/>
      <point x="175" y="-163"/>
      <point x="198" y="-57" type="curve" smooth="yes"/>
      <point x="330" y="564" type="line" smooth="yes"/>
      <point x="337" y="595"/>
      <point x="355" y="613"/>
      <point x="376" y="613" type="curve" smooth="yes"/>
      <point x="395" y="613"/>
      <point x="412" y="607"/>
      <point x="430" y="598" type="curve"/>
      <point x="484" y="737" type="line"/>
      <point x="452" y="754"/>
      <point x="399" y="765"/>
      <point x="348" y="765" type="curve" smooth="yes"/>
      <point x="241" y="765"/>
      <point x="176" y="712"/>
      <point x="149" y="587" type="curve" smooth="yes"/>
      <point x="16" y="-27" type="line" smooth="yes"/>
      <point x="8" y="-69"/>
      <point x="-12" y="-88"/>
      <point x="-59" y="-88" type="curve" smooth="yes"/>
      <point x="-76" y="-88"/>
      <point x="-97" y="-84"/>
      <point x="-113" y="-79" type="curve"/>
      <point x="-115" y="-227" type="line"/>
      <point x="-93" y="-234"/>
      <point x="-50" y="-240"/>
    </contour>
  </outline>
</glyph>
<glyph name="Ohorn" format="2">
  <advance width="769"/>
  <unicode hex="01A0"/>
  <anchor x="329" y="0" name="bottom"/>
  <anchor x="423" y="714" name="top"/>
  <outline>
    <contour>
      <point x="308" y="-10" type="curve" smooth="yes"/>
      <point x="561" y="-10"/>
      <point x="677" y="232"/>
      <point x="677" y="454" type="curve" smooth="yes"/>
      <point x="677" y="477"/>
      <point x="675" y="499"/>
      <point x="673" y="519" type="curve"/>
      <point x="756" y="553"/>
      <point x="829" y="621"/>
      <point x="871" y="747" type="curve"/>
      <point x="865" y="760" type="line"/>
      <point x="681" y="760" type="line"/>
      <point x="671" y="697"/>
      <point x="641" y="649"/>
      <point x="630" y="628" type="curve"/>
      <point x="589" y="689"/>
      <point x="518" y="725"/>
      <point x="424" y="725" type="curve" smooth="yes"/>
      <point x="168" y="725"/>
      <point x="49" y="483"/>
      <point x="49" y="261" type="curve" smooth="yes"/>
      <point x="49" y="97"/>
      <point x="135" y="-10"/>
    </contour>
    <contour>
      <point x="328" y="148" type="curve" smooth="yes"/>
      <point x="270" y="148"/>
      <point x="242" y="188"/>
      <point x="242" y="263" type="curve" smooth="yes"/>
      <point x="242" y="407"/>
      <point x="307" y="567"/>
      <point x="406" y="567" type="curve" smooth="yes"/>
      <point x="456" y="567"/>
      <point x="484" y="523"/>
      <point x="484" y="450" type="curve" smooth="yes"/>
      <point x="484" y="287"/>
      <point x="415" y="148"/>
    </contour>
  </outline>
</glyph>
<glyph name="ohorn" format="2">
  <advance width="686"/>
  <unicode hex="01A1"/>
  <anchor x="287" y="0" name="bottom"/>
  <anchor x="347" y="553" name="top"/>
  <outline>
    <contour>
      <point x="241" y="-10" type="curve" smooth="yes"/>
      <point x="439" y="-10"/>
      <point x="547" y="163"/>
      <point x="547" y="353" type="curve" smooth="yes"/>
      <point x="547" y="364"/>
      <point x="546" y="375"/>
      <point x="546" y="386" type="curve"/>
      <point x="676" y="426"/>
      <point x="732" y="502"/>
      <point x="767" y="623" type="curve"/>
      <point x="761" y="635" type="line"/>
      <point x="584" y="635" type="line"/>
      <point x="574" y="581"/>
      <point x="554" y="513"/>
      <point x="508" y="493" type="curve"/>
      <point x="474" y="538"/>
      <point x="419" y="563"/>
      <point x="345" y="563" type="curve" smooth="yes"/>
      <point x="146" y="563"/>
      <point x="40" y="389"/>
      <point x="40" y="200" type="curve" smooth="yes"/>
      <point x="40" y="66"/>
      <point x="110" y="-10"/>
    </contour>
    <contour>
      <point x="265" y="132" type="curve" smooth="yes"/>
      <point x="245" y="132"/>
      <point x="234" y="153"/>
      <point x="234" y="195" type="curve" smooth="yes"/>
      <point x="234" y="303"/>
      <point x="274" y="421"/>
      <point x="320" y="421" type="curve" smooth="yes"/>
      <point x="339" y="421"/>
      <point x="353" y="400"/>
      <point x="353" y="358" type="curve" smooth="yes"/>
      <point x="353" y="250"/>
      <point x="313" y="132"/>
    </contour>
  </outline>
</glyph>
<glyph name="Uhorn" format="2">
  <advance width="777"/>
  <unicode hex="01AF"/>
  <anchor x="260" y="0" name="bottom"/>
  <anchor x="422" y="714" name="top"/>
  <outline>
    <contour>
      <point x="264" y="-10" type="curve" smooth="yes"/>
      <point x="451" y="-10"/>
      <point x="548" y="85"/>
      <point x="585" y="259" type="curve" smooth="yes"/>
      <point x="639" y="514" type="line"/>
      <point x="819" y="519"/>
      <point x="888" y="633"/>
      <point x="928" y="747" type="curve"/>
      <point x="923" y="760" type="line"/>
      <point x="738" y="760" type="line"/>
      <point x="733" y="693"/>
      <point x="715" y="648"/>
      <point x="664" y="628" type="curve"/>
      <point x="682" y="714" type="line"/>
      <point x="491" y="714" type="line"/>
      <point x="398" y="278" type="line" smooth="yes"/>
      <point x="378" y="185"/>
      <point x="347" y="150"/>
      <point x="298" y="150" type="curve" smooth="yes"/>
      <point x="265" y="150"/>
      <point x="250" y="173"/>
      <point x="250" y="211" type="curve" smooth="yes"/>
      <point x="250" y="228"/>
      <point x="254" y="248"/>
      <point x="258" y="268" type="curve" smooth="yes"/>
      <point x="353" y="714" type="line"/>
      <point x="161" y="714" type="line"/>
      <point x="65" y="263" type="line" smooth="yes"/>
      <point x="60" y="241"/>
      <point x="58" y="218"/>
      <point x="58" y="198" type="curve" smooth="yes"/>
      <point x="58" y="82"/>
      <point x="134" y="-10"/>
    </contour>
  </outline>
</glyph>
<glyph name="uhorn" format="2">
  <advance width="742"/>
  <unicode hex="01B0"/>
  <anchor x="265" y="0" name="bottom"/>
  <anchor x="350" y="553" name="top"/>
  <outline>
    <contour>
      <point x="183" y="-10" type="curve" smooth="yes"/>
      <point x="248" y="-10"/>
      <point x="290" y="15"/>
      <point x="324" y="77" type="curve"/>
      <point x="328" y="77" type="line"/>
      <point x="322" y="0" type="line"/>
      <point x="474" y="0" type="line"/>
      <point x="556" y="388" type="line"/>
      <point x="737" y="394"/>
      <point x="804" y="506"/>
      <point x="845" y="621" type="curve"/>
      <point x="839" y="634" type="line"/>
      <point x="654" y="634" type="line"/>
      <point x="642" y="562"/>
      <point x="633" y="521"/>
      <point x="581" y="504" type="curve"/>
      <point x="592" y="553" type="line"/>
      <point x="402" y="553" type="line"/>
      <point x="344" y="284" type="line" smooth="yes"/>
      <point x="323" y="185"/>
      <point x="291" y="141"/>
      <point x="268" y="141" type="curve" smooth="yes"/>
      <point x="252" y="141"/>
      <point x="237" y="155"/>
      <point x="237" y="182" type="curve" smooth="yes"/>
      <point x="237" y="205"/>
      <point x="242" y="235"/>
      <point x="246" y="252" type="curve" smooth="yes"/>
      <point x="308" y="553" type="line"/>
      <point x="119" y="553" type="line"/>
      <point x="57" y="259" type="line" smooth="yes"/>
      <point x="49" y="223"/>
      <point x="45" y="181"/>
      <point x="45" y="145" type="curve" smooth="yes"/>
      <point x="45" y="61"/>
      <point x="84" y="-10"/>
    </contour>
  </outline>
</glyph>
<glyph name="Aringacute" format="2">
  <advance width="653"/>
  <unicode hex="01FA"/>
  <anchor x="270" y="0" name="bottom"/>
  <anchor x="474" y="958" name="top"/>
  <outline>
    <contour>
      <point x="297" y="682" type="curve"/>
      <point x="-56" y="0" type="line"/>
      <point x="142" y="0" type="line"/>
      <point x="196" y="134" type="line"/>
      <point x="397" y="134" type="line"/>
      <point x="403" y="0" type="line"/>
      <point x="589" y="0" type="line"/>
      <point x="520" y="652" type="line"/>
      <point x="534" y="667"/>
      <point x="546" y="699"/>
      <point x="546" y="728" type="curve" smooth="yes"/>
      <point x="546" y="804"/>
      <point x="491" y="850"/>
      <point x="422" y="850" type="curve" smooth="yes"/>
      <point x="347" y="850"/>
      <point x="294" y="802"/>
      <point x="294" y="724" type="curve" smooth="yes"/>
      <point x="294" y="709"/>
      <point x="295" y="694"/>
    </contour>
    <contour>
      <point x="266" y="286" type="line"/>
      <point x="359" y="477" type="line" smooth="yes"/>
      <point x="363" y="487"/>
      <point x="371" y="516"/>
      <point x="377" y="538" type="curve"/>
      <point x="382" y="538" type="line"/>
      <point x="381" y="501"/>
      <point x="381" y="465"/>
      <point x="383" y="435" type="curve" smooth="yes"/>
      <point x="393" y="286" type="line"/>
    </contour>
    <contour>
      <point x="419" y="685" type="curve" smooth="yes"/>
      <point x="394" y="685"/>
      <point x="380" y="702"/>
      <point x="380" y="725" type="curve" smooth="yes"/>
      <point x="380" y="751"/>
      <point x="400" y="768"/>
      <point x="421" y="768" type="curve" smooth="yes"/>
      <point x="442" y="768"/>
      <point x="460" y="751"/>
      <point x="460" y="726" type="curve" smooth="yes"/>
      <point x="460" y="702"/>
      <point x="440" y="685"/>
    </contour>
    <contour>
      <point x="362" y="880" type="curve"/>
      <point x="362" y="875" type="line"/>
      <point x="498" y="875" type="line"/>
      <point x="539" y="889"/>
      <point x="613" y="916"/>
      <point x="662" y="954" type="curve"/>
      <point x="662" y="958" type="line"/>
      <point x="455" y="958" type="line"/>
      <point x="432" y="934"/>
      <point x="390" y="901"/>
    </contour>
  </outline>
</glyph>
<glyph name="aringacute" format="2">
  <advance width="579"/>
  <unicode hex="01FB"/>
  <anchor x="234" y="0" name="bottom"/>
  <anchor x="438" y="958" name="top"/>
  <outline>
    <contour>
      <point x="188" y="-10" type="curve" smooth="yes"/>
      <point x="248" y="-10"/>
      <point x="281" y="19"/>
      <point x="307" y="60" type="curve"/>
      <point x="311" y="60" type="line"/>
      <point x="306" y="0" type="line"/>
      <point x="459" y="0" type="line"/>
      <point x="576" y="553" type="line"/>
      <point x="424" y="553" type="line"/>
      <point x="399" y="485" type="line"/>
      <point x="395" y="485" type="line"/>
      <point x="369" y="532"/>
      <point x="334" y="563"/>
      <point x="276" y="563" type="curve" smooth="yes"/>
      <point x="112" y="563"/>
      <point x="40" y="332"/>
      <point x="40" y="196" type="curve" smooth="yes"/>
      <point x="40" y="43"/>
      <point x="107" y="-10"/>
    </contour>
    <contour>
      <point x="268" y="142" type="curve" smooth="yes"/>
      <point x="245" y="142"/>
      <point x="233" y="166"/>
      <point x="233" y="210" type="curve" smooth="yes"/>
      <point x="233" y="305"/>
      <point x="275" y="411"/>
      <point x="320" y="411" type="curve" smooth="yes"/>
      <point x="342" y="411"/>
      <point x="351" y="384"/>
      <point x="351" y="343" type="curve" smooth="yes"/>
      <point x="351" y="323"/>
      <point x="350" y="302"/>
      <point x="346" y="280" type="curve" smooth="yes"/>
      <point x="333" y="209"/>
      <point x="305" y="142"/>
    </contour>
    <contour>
      <point x="358" y="586" type="curve" smooth="yes"/>
      <point x="430" y="586"/>
      <point x="485" y="634"/>
      <point x="485" y="711" type="curve" smooth="yes"/>
      <point x="485" y="787"/>
      <point x="430" y="833"/>
      <point x="361" y="833" type="curve" smooth="yes"/>
      <point x="286" y="833"/>
      <point x="233" y="785"/>
      <point x="233" y="708" type="curve" smooth="yes"/>
      <point x="233" y="632"/>
      <point x="284" y="586"/>
    </contour>
    <contour>
      <point x="359" y="668" type="curve" smooth="yes"/>
      <point x="334" y="668"/>
      <point x="319" y="685"/>
      <point x="319" y="709" type="curve" smooth="yes"/>
      <point x="319" y="734"/>
      <point x="339" y="751"/>
      <point x="360" y="751" type="curve" smooth="yes"/>
      <point x="381" y="751"/>
      <point x="399" y="734"/>
      <point x="399" y="709" type="curve" smooth="yes"/>
      <point x="399" y="685"/>
      <point x="380" y="668"/>
    </contour>
    <contour>
      <point x="322" y="869" type="curve"/>
      <point x="322" y="864" type="line"/>
      <point x="458" y="864" type="line"/>
      <point x="498" y="878"/>
      <point x="582" y="914"/>
      <point x="632" y="952" type="curve"/>
      <point x="632" y="958" type="line"/>
      <point x="424" y="958" type="line"/>
      <point x="403" y="934"/>
      <point x="349" y="890"/>
    </contour>
  </outline>
</glyph>
<glyph name="jdotless" format="2">
  <advance width="315"/>
  <unicode hex="0237"/>
  <anchor x="51" y="-240" name="bottom"/>
  <anchor x="220" y="553" name="top"/>
  <outline>
    <contour>
      <point x="-26" y="-240" type="curve" smooth="yes"/>
      <point x="111" y="-240"/>
      <point x="172" y="-146"/>
      <point x="193" y="-46" type="curve" smooth="yes"/>
      <point x="319" y="553" type="line"/>
      <point x="130" y="553" type="line"/>
      <point x="10" y="-16" type="line" smooth="yes"/>
      <point x="-1" y="-68"/>
      <point x="-34" y="-88"/>
      <point x="-72" y="-88" type="curve" smooth="yes"/>
      <point x="-87" y="-88"/>
      <point x="-100" y="-87"/>
      <point x="-123" y="-79" type="curve"/>
      <point x="-125" y="-227" type="line"/>
      <point x="-103" y="-234"/>
      <point x="-60" y="-240"/>
    </contour>
  </outline>
</glyph>
<glyph name="Astroke" format="2">
  <advance width="653"/>
  <unicode hex="023A"/>
  <anchor x="254" y="-75" name="bottom"/>
  <anchor x="432" y="760" name="top"/>
  <outline>
    <contour>
      <point x="132" y="-75" type="line"/>
      <point x="226" y="-75" type="line"/>
      <point x="616" y="760" type="line"/>
      <point x="523" y="760" type="line"/>
    </contour>
    <component base="A"/>
  </outline>
</glyph>
<glyph name="Cstroke" format="2">
  <advance width="603"/>
  <unicode hex="023B"/>
  <anchor x="297" y="-75" name="bottom"/>
  <anchor x="425" y="760" name="top"/>
  <outline>
    <contour>
      <point x="149" y="-75" type="line"/>
      <point x="243" y="-75" type="line"/>
      <point x="633" y="760" type="line"/>
      <point x="540" y="760" type="line"/>
    </contour>
    <component base="C"/>
  </outline>
</glyph>
<glyph name="ystroke" format="2">
  <advance width="522"/>
  <unicode hex="024F"/>
  <anchor x="11" y="-240" name="bottom"/>
  <anchor x="320" y="553" name="top"/>
  <outline>
    <contour>
      <point x="-2" y="288" type="line"/>
      <point x="547" y="288" type="line"/>
      <point x="570" y="400" type="line"/>
      <point x="23" y="400" type="line"/>
    </contour>
    <component base="y"/>
  </outline>
</glyph>
<glyph name="schwahook" format="2">
  <advance width="792"/>
  <unicode hex="025A"/>
  <anchor x="214" y="-10" name="bottom"/>
  <anchor x="317" y="562" name="top"/>
  <outline>
    <contour>
      <point x="214" y="-10" type="curve" smooth="yes"/>
      <point x="403" y="-10"/>
      <point x="492" y="134"/>
      <point x="514" y="264" type="curve"/>
      <point x="547" y="276" type="line"/>
      <point x="557" y="200"/>
      <point x="604" y="163"/>
      <point x="665" y="163" type="curve" smooth="yes"/>
      <point x="713" y="163"/>
      <point x="751" y="182"/>
      <point x="785" y="206" type="curve"/>
      <point x="741" y="301" type="line"/>
      <point x="730" y="290"/>
      <point x="715" y="280"/>
      <point x="694" y="280" type="curve" smooth="yes"/>
      <point x="665" y="280"/>
      <point x="659" y="300"/>
      <point x="652" y="363" type="curve" smooth="yes"/>
      <point x="647" y="409" type="line"/>
      <point x="521" y="378" type="line"/>
      <point x="509" y="508"/>
      <point x="426" y="562"/>
      <point x="317" y="562" type="curve" smooth="yes"/>
      <point x="233" y="562"/>
      <point x="172" y="547"/>
      <point x="110" y="513" type="curve"/>
      <point x="108" y="379" type="line"/>
      <point x="181" y="417"/>
      <point x="216" y="427"/>
      <point x="275" y="427" type="curve" smooth="yes"/>
      <point x="324" y="427"/>
      <point x="340" y="395"/>
      <point x="339" y="340" type="curve"/>
      <point x="282" y="328" type="line" smooth="yes"/>
      <point x="115" y="293"/>
      <point x="16" y="255"/>
      <point x="16" y="132" type="curve" smooth="yes"/>
      <point x="16" y="50"/>
      <point x="87" y="-10"/>
    </contour>
    <contour>
      <point x="235" y="116" type="curve" smooth="yes"/>
      <point x="214" y="116"/>
      <point x="203" y="129"/>
      <point x="203" y="149" type="curve" smooth="yes"/>
      <point x="203" y="176"/>
      <point x="207" y="191"/>
      <point x="303" y="219" type="curve" smooth="yes"/>
      <point x="313" y="222" type="line"/>
      <point x="308" y="179"/>
      <point x="278" y="116"/>
    </contour>
  </outline>
</glyph>
<glyph name="rlongleg" format="2">
  <advance width="419"/>
  <unicode hex="027C"/>
  <anchor x="103" y="-240" name="bottom"/>
  <anchor x="272" y="553" name="top"/>
  <outline>
    <contour>
      <point x="-41" y="-240" type="line"/>
      <point x="149" y="-240" type="line"/>
      <point x="250" y="243" type="line" smooth="yes"/>
      <point x="272" y="349"/>
      <point x="310" y="383"/>
      <point x="363" y="383" type="curve" smooth="yes"/>
      <point x="387" y="383"/>
      <point x="409" y="378"/>
      <point x="423" y="372" type="curve"/>
      <point x="466" y="559" type="line"/>
      <point x="461" y="561"/>
      <point x="443" y="563"/>
      <point x="431" y="563" type="curve" smooth="yes"/>
      <point x="358" y="563"/>
      <point x="318" y="539"/>
      <point x="273" y="461" type="curve"/>
      <point x="269" y="461" type="line"/>
      <point x="278" y="553" type="line"/>
      <point x="126" y="553" type="line"/>
    </contour>
  </outline>
</glyph>
<glyph name="rfishhookreversed" format="2">
  <advance width="378"/>
  <unicode hex="027F"/>
  <anchor x="82" y="-240" name="bottom"/>
  <anchor x="252" y="553" name="top"/>
  <outline>
    <contour>
      <point x="141" y="312" type="curve" smooth="yes"/>
      <point x="26" y="-240" type="line"/>
      <point x="213" y="-240" type="line"/>
      <point x="324" y="292" type="line" smooth="yes"/>
      <point x="332" y="331"/>
      <point x="340" y="370"/>
      <point x="340" y="408" type="curve" smooth="yes"/>
      <point x="340" y="512"/>
      <point x="273" y="565"/>
      <point x="180" y="565" type="curve" smooth="yes"/>
      <point x="119" y="565"/>
      <point x="93" y="557"/>
      <point x="50" y="545" type="curve"/>
      <point x="48" y="401" type="line"/>
      <point x="70" y="407"/>
      <point x="83" y="409"/>
      <point x="99" y="409" type="curve" smooth="yes"/>
      <point x="132" y="409"/>
      <point x="149" y="388"/>
      <point x="149" y="361" type="curve" smooth="yes"/>
      <point x="149" y="345"/>
      <point x="144" y="326"/>
    </contour>
  </outline>
</glyph>
<glyph name="eshsquatreversed" format="2">
  <advance width="328"/>
  <unicode hex="0285"/>
  <anchor x="57" y="-240" name="bottom"/>
  <anchor x="226" y="553" name="top"/>
  <outline>
    <contour>
      <point x="178" y="-240" type="curve" smooth="yes"/>
      <point x="210" y="-240"/>
      <point x="248" y="-231"/>
      <point x="279" y="-221" type="curve"/>
      <point x="281" y="-72" type="line"/>
      <point x="265" y="-79"/>
      <point x="253" y="-82"/>
      <point x="241" y="-82" type="curve" smooth="yes"/>
      <point x="223" y="-82"/>
      <point x="211" y="-68"/>
      <point x="211" y="-44" type="curve" smooth="yes"/>
      <point x="211" y="-23"/>
      <point x="214" y="-2"/>
      <point x="218" y="14" type="curve" smooth="yes"/>
      <point x="273" y="298" type="line" smooth="yes"/>
      <point x="279" y="329"/>
      <point x="291" y="373"/>
      <point x="291" y="417" type="curve" smooth="yes"/>
      <point x="291" y="499"/>
      <point x="236" y="565"/>
      <point x="143" y="565" type="curve" smooth="yes"/>
      <point x="94" y="565"/>
      <point x="69" y="558"/>
      <point x="26" y="546" type="curve"/>
      <point x="24" y="397" type="line"/>
      <point x="41" y="404"/>
      <point x="53" y="407"/>
      <point x="63" y="407" type="curve" smooth="yes"/>
      <point x="79" y="407"/>
      <point x="95" y="397"/>
      <point x="95" y="369" type="curve" smooth="yes"/>
      <point x="95" y="348"/>
      <point x="87" y="312"/>
      <point x="81" y="282" type="curve" smooth="yes"/>
      <point x="26" y="4" type="line" smooth="yes"/>
      <point x="20" y="-27"/>
      <point x="15" y="-59"/>
      <point x="15" y="-88" type="curve" smooth="yes"/>
      <point x="15" y="-182"/>
      <point x="67" y="-240"/>
    </contour>
  </outline>
</glyph>
<glyph name="eshcurl" format="2">
  <advance width="370"/>
  <unicode hex="0286"/>
  <anchor x="78" y="-240" name="bottom"/>
  <anchor x="292" y="767" name="top"/>
  <outline>
    <contour>
      <point x="6" y="-240" type="curve" smooth="yes"/>
      <point x="141" y="-240"/>
      <point x="187" y="-171"/>
      <point x="213" y="-84" type="curve"/>
      <point x="283" y="-84" type="line"/>
      <point x="303" y="0" type="line"/>
      <point x="233" y="0" type="line"/>
      <point x="352" y="564" type="line" smooth="yes"/>
      <point x="361" y="605"/>
      <point x="381" y="622"/>
      <point x="411" y="622" type="curve" smooth="yes"/>
      <point x="431" y="622"/>
      <point x="455" y="615"/>
      <point x="464" y="611" type="curve"/>
      <point x="472" y="754" type="line"/>
      <point x="458" y="758"/>
      <point x="422" y="767"/>
      <point x="370" y="767" type="curve" smooth="yes"/>
      <point x="248" y="767"/>
      <point x="195" y="703"/>
      <point x="173" y="598" type="curve" smooth="yes"/>
      <point x="46" y="0" type="line"/>
      <point x="27" y="0" type="line"/>
      <point x="-77" y="0"/>
      <point x="-138" y="-49"/>
      <point x="-138" y="-135" type="curve" smooth="yes"/>
      <point x="-138" y="-193"/>
      <point x="-95" y="-240"/>
    </contour>
    <contour>
      <point x="-17" y="-143" type="curve" smooth="yes"/>
      <point x="-32" y="-143"/>
      <point x="-40" y="-131"/>
      <point x="-40" y="-117" type="curve" smooth="yes"/>
      <point x="-40" y="-96"/>
      <point x="-22" y="-84"/>
      <point x="8" y="-84" type="curve" smooth="yes"/>
      <point x="27" y="-84" type="line"/>
      <point x="21" y="-114"/>
      <point x="14" y="-143"/>
    </contour>
  </outline>
</glyph>
<glyph name="ezhcurl" format="2">
  <advance width="582"/>
  <unicode hex="0293"/>
  <anchor x="182" y="-250" name="bottom"/>
  <anchor x="353" y="553" name="top"/>
  <outline>
    <contour>
      <point x="125" y="-240" type="curve" smooth="yes"/>
      <point x="197" y="-240"/>
      <point x="249" y="-226"/>
      <point x="281" y="-209" type="curve"/>
      <point x="287" y="-221"/>
      <point x="296" y="-238"/>
      <point x="303" y="-250" type="curve"/>
      <point x="410" y="-195" type="line"/>
      <point x="402" y="-178"/>
      <point x="390" y="-156"/>
      <point x="383" y="-143" type="curve"/>
      <point x="432" y="-102"/>
      <point x="476" y="-28"/>
      <point x="477" y="46" type="curve"/>
      <point x="478" y="150"/>
      <point x="446" y="219"/>
      <point x="329" y="254" type="curve"/>
      <point x="531" y="435" type="line"/>
      <point x="556" y="553" type="line"/>
      <point x="121" y="553" type="line"/>
      <point x="88" y="411" type="line"/>
      <point x="288" y="411" type="line"/>
      <point x="129" y="262" type="line"/>
      <point x="100" y="124" type="line"/>
      <point x="147" y="124" type="line" smooth="yes"/>
      <point x="265" y="124"/>
      <point x="283" y="72"/>
      <point x="283" y="31" type="curve" smooth="yes"/>
      <point x="283" y="15"/>
      <point x="281" y="8"/>
      <point x="277" y="-7" type="curve"/>
      <point x="247" y="37"/>
      <point x="182" y="78"/>
      <point x="95" y="78" type="curve" smooth="yes"/>
      <point x="-11" y="78"/>
      <point x="-72" y="13"/>
      <point x="-72" y="-89" type="curve" smooth="yes"/>
      <point x="-72" y="-186"/>
      <point x="5" y="-240"/>
    </contour>
    <contour>
      <point x="117" y="-110" type="curve" smooth="yes"/>
      <point x="77" y="-110"/>
      <point x="49" y="-93"/>
      <point x="49" y="-67" type="curve" smooth="yes"/>
      <point x="49" y="-43"/>
      <point x="66" y="-29"/>
      <point x="103" y="-29" type="curve" smooth="yes"/>
      <point x="143" y="-29"/>
      <point x="174" y="-52"/>
      <point x="207" y="-89" type="curve"/>
      <point x="182" y="-102"/>
      <point x="161" y="-110"/>
    </contour>
  </outline>
</glyph>
<glyph name="cstretched" format="2">
  <advance width="518"/>
  <unicode hex="0297"/>
  <anchor x="212" y="-241" name="bottom"/>
  <anchor x="371" y="553" name="top"/>
  <outline>
    <contour>
      <point x="226" y="-241" type="curve" smooth="yes"/>
      <point x="283" y="-241"/>
      <point x="346" y="-226"/>
      <point x="400" y="-198" type="curve"/>
      <point x="403" y="-47" type="line"/>
      <point x="351" y="-72"/>
      <point x="324" y="-89"/>
      <point x="277" y="-89" type="curve" smooth="yes"/>
      <point x="240" y="-89"/>
      <point x="209" y="-64"/>
      <point x="209" y="18" type="curve" smooth="yes"/>
      <point x="209" y="191"/>
      <point x="274" y="412"/>
      <point x="370" y="412" type="curve" smooth="yes"/>
      <point x="418" y="412"/>
      <point x="439" y="399"/>
      <point x="479" y="383" type="curve"/>
      <point x="541" y="523" type="line"/>
      <point x="485" y="550"/>
      <point x="438" y="562"/>
      <point x="364" y="562" type="curve" smooth="yes"/>
      <point x="166" y="562"/>
      <point x="19" y="343"/>
      <point x="19" y="25" type="curve" smooth="yes"/>
      <point x="19" y="-194"/>
      <point x="129" y="-241"/>
    </contour>
  </outline>
</glyph>
<glyph name="eopenclosed" format="2">
  <advance width="639"/>
  <unicode hex="029A"/>
  <anchor x="264" y="0" name="bottom"/>
  <anchor x="382" y="553" name="top"/>
  <outline>
    <contour>
      <point x="263" y="-10" type="curve" smooth="yes"/>
      <point x="528" y="-10"/>
      <point x="604" y="163"/>
      <point x="604" y="335" type="curve" smooth="yes"/>
      <point x="604" y="464"/>
      <point x="545" y="563"/>
      <point x="353" y="563" type="curve" smooth="yes"/>
      <point x="185" y="563"/>
      <point x="102" y="505"/>
      <point x="102" y="407" type="curve" smooth="yes"/>
      <point x="102" y="351"/>
      <point x="136" y="316"/>
      <point x="186" y="297" type="curve"/>
      <point x="186" y="293" type="line"/>
      <point x="68" y="276"/>
      <point x="34" y="230"/>
      <point x="34" y="149" type="curve" smooth="yes"/>
      <point x="34" y="48"/>
      <point x="125" y="-10"/>
    </contour>
    <contour>
      <point x="286" y="132" type="curve" smooth="yes"/>
      <point x="238" y="132"/>
      <point x="231" y="155"/>
      <point x="231" y="178" type="curve" smooth="yes"/>
      <point x="231" y="209"/>
      <point x="250" y="225"/>
      <point x="303" y="225" type="curve" smooth="yes"/>
      <point x="336" y="225" type="line"/>
      <point x="363" y="349" type="line"/>
      <point x="347" y="349" type="line" smooth="yes"/>
      <point x="294" y="349"/>
      <point x="281" y="364"/>
      <point x="281" y="386" type="curve" smooth="yes"/>
      <point x="281" y="414"/>
      <point x="305" y="425"/>
      <point x="338" y="425" type="curve" smooth="yes"/>
      <point x="385" y="425"/>
      <point x="411" y="395"/>
      <point x="411" y="336" type="curve" smooth="yes"/>
      <point x="411" y="218"/>
      <point x="368" y="132"/>
    </contour>
  </outline>
</glyph>
<glyph name="kturned" format="2">
  <advance width="597"/>
  <unicode hex="029E"/>
  <anchor x="189" y="-240" name="bottom"/>
  <anchor x="357.772" y="553" name="top"/>
  <anchor x="597" y="553" name="topright"/>
  <outline>
    <contour>
      <point x="314" y="117" type="curve" smooth="yes"/>
      <point x="239" y="-240" type="line"/>
      <point x="428" y="-240" type="line"/>
      <point x="594" y="553" type="line"/>
      <point x="405" y="553" type="line"/>
      <point x="371" y="388" type="line"/>
      <point x="326" y="362" type="line"/>
      <point x="269" y="553" type="line"/>
      <point x="54" y="553" type="line"/>
      <point x="177" y="250" type="line"/>
      <point x="-53" y="0" type="line"/>
      <point x="163" y="0" type="line"/>
      <point x="346" y="226" type="line"/>
      <point x="350" y="226" type="line"/>
      <point x="342" y="204"/>
      <point x="321" y="153"/>
    </contour>
  </outline>
</glyph>
<glyph name="qhook" format="2">
  <advance width="579"/>
  <unicode hex="02A0"/>
  <anchor x="183" y="-240" name="bottom"/>
  <anchor x="398" y="768" name="top"/>
  <outline>
    <contour>
      <point x="249" y="-97" type="curve" smooth="yes"/>
      <point x="216" y="-240" type="line"/>
      <point x="408" y="-240" type="line"/>
      <point x="578" y="566" type="line" smooth="yes"/>
      <point x="587" y="608"/>
      <point x="611" y="625"/>
      <point x="643" y="625" type="curve" smooth="yes"/>
      <point x="663" y="625"/>
      <point x="679" y="618"/>
      <point x="687" y="615" type="curve"/>
      <point x="688" y="752" type="line"/>
      <point x="677" y="758"/>
      <point x="647" y="768"/>
      <point x="602" y="768" type="curve" smooth="yes"/>
      <point x="505" y="768"/>
      <point x="431" y="725"/>
      <point x="403" y="623" type="curve" smooth="yes"/>
      <point x="400" y="612" type="line" smooth="yes"/>
      <point x="387" y="567"/>
      <point x="386" y="501"/>
      <point x="386" y="489" type="curve"/>
      <point x="382" y="489" type="line"/>
      <point x="354" y="534"/>
      <point x="331" y="563"/>
      <point x="275" y="563" type="curve" smooth="yes"/>
      <point x="110" y="563"/>
      <point x="40" y="332"/>
      <point x="40" y="195" type="curve" smooth="yes"/>
      <point x="40" y="47"/>
      <point x="110" y="-10"/>
      <point x="179" y="-10" type="curve" smooth="yes"/>
      <point x="237" y="-10"/>
      <point x="266" y="19"/>
      <point x="289" y="54" type="curve"/>
      <point x="293" y="54" type="line"/>
      <point x="282" y="25"/>
      <point x="263" y="-36"/>
    </contour>
    <contour>
      <point x="267" y="142" type="curve" smooth="yes"/>
      <point x="244" y="142"/>
      <point x="234" y="166"/>
      <point x="234" y="210" type="curve" smooth="yes"/>
      <point x="234" y="305"/>
      <point x="276" y="411"/>
      <point x="322" y="411" type="curve" smooth="yes"/>
      <point x="343" y="411"/>
      <point x="351" y="384"/>
      <point x="351" y="344" type="curve" smooth="yes"/>
      <point x="351" y="262"/>
      <point x="315" y="142"/>
    </contour>
  </outline>
</glyph>
<glyph name="circumflex" format="2">
  <advance width="530"/>
  <unicode hex="02C6"/>
  <outline>
    <contour>
      <point x="112" y="617" type="curve"/>
      <point x="112" y="606" type="line"/>
      <point x="246" y="606" type="line"/>
      <point x="285" y="632"/>
      <point x="324" y="662"/>
      <point x="359" y="691" type="curve"/>
      <point x="374" y="669"/>
      <point x="409" y="625"/>
      <point x="429" y="606" type="curve"/>
      <point x="560" y="606" type="line"/>
      <point x="560" y="617" type="line"/>
      <point x="532" y="656"/>
      <point x="496" y="722"/>
      <point x="478" y="766" type="curve"/>
      <point x="259" y="766" type="line"/>
      <point x="220" y="723"/>
      <point x="158" y="659"/>
    </contour>
  </outline>
</glyph>
<glyph name="caron" format="2">
  <advance width="530"/>
  <unicode hex="02C7"/>
  <outline>
    <contour>
      <point x="226" y="606" type="curve"/>
      <point x="446" y="606" type="line"/>
      <point x="484" y="649"/>
      <point x="542" y="713"/>
      <point x="592" y="755" type="curve"/>
      <point x="592" y="766" type="line"/>
      <point x="459" y="766" type="line"/>
      <point x="419" y="740"/>
      <point x="381" y="710"/>
      <point x="346" y="681" type="curve"/>
      <point x="330" y="703"/>
      <point x="296" y="747"/>
      <point x="275" y="766" type="curve"/>
      <point x="144" y="766" type="line"/>
      <point x="144" y="755" type="line"/>
      <point x="173" y="716"/>
      <point x="208" y="650"/>
    </contour>
  </outline>
</glyph>
<glyph name="breve" format="2">
  <advance width="464"/>
  <unicode hex="02D8"/>
  <outline>
    <contour>
      <point x="312" y="606" type="curve" smooth="yes"/>
      <point x="445" y="606"/>
      <point x="511" y="669"/>
      <point x="532" y="787" type="curve"/>
      <point x="426" y="787" type="line"/>
      <point x="408" y="735"/>
      <point x="369" y="724"/>
      <point x="331" y="724" type="curve" smooth="yes"/>
      <point x="287" y="724"/>
      <point x="254" y="745"/>
      <point x="255" y="787" type="curve"/>
      <point x="149" y="787" type="line"/>
      <point x="147" y="782"/>
      <point x="145" y="772"/>
      <point x="145" y="758" type="curve" smooth="yes"/>
      <point x="145" y="666"/>
      <point x="208" y="606"/>
    </contour>
  </outline>
</glyph>
<glyph name="dotaccent" format="2">
  <advance width="284"/>
  <unicode hex="02D9"/>
  <outline>
    <contour>
      <point x="220" y="606" type="curve" smooth="yes"/>
      <point x="305" y="606"/>
      <point x="332" y="649"/>
      <point x="332" y="709" type="curve" smooth="yes"/>
      <point x="332" y="764"/>
      <point x="283" y="777"/>
      <point x="240" y="777" type="curve" smooth="yes"/>
      <point x="169" y="777"/>
      <point x="128" y="747"/>
      <point x="128" y="674" type="curve" smooth="yes"/>
      <point x="128" y="621"/>
      <point x="167" y="606"/>
    </contour>
  </outline>
</glyph>
<glyph name="ring" format="2">
  <advance width="339"/>
  <unicode hex="02DA"/>
  <outline>
    <contour>
      <point x="264" y="604" type="curve" smooth="yes"/>
      <point x="336" y="604"/>
      <point x="392" y="652"/>
      <point x="392" y="729" type="curve" smooth="yes"/>
      <point x="392" y="805"/>
      <point x="337" y="851"/>
      <point x="267" y="851" type="curve" smooth="yes"/>
      <point x="192" y="851"/>
      <point x="139" y="803"/>
      <point x="139" y="726" type="curve" smooth="yes"/>
      <point x="139" y="650"/>
      <point x="191" y="604"/>
    </contour>
    <contour>
      <point x="265" y="686" type="curve" smooth="yes"/>
      <point x="241" y="686"/>
      <point x="226" y="703"/>
      <point x="226" y="727" type="curve" smooth="yes"/>
      <point x="226" y="752"/>
      <point x="245" y="769"/>
      <point x="266" y="769" type="curve" smooth="yes"/>
      <point x="287" y="769"/>
      <point x="306" y="752"/>
      <point x="306" y="727" type="curve" smooth="yes"/>
      <point x="306" y="703"/>
      <point x="286" y="686"/>
    </contour>
  </outline>
</glyph>
<glyph name="ogonek" format="2">
  <advance width="316"/>
  <unicode hex="02DB"/>
  <outline>
    <contour>
      <point x="70" y="-256" type="curve" smooth="yes"/>
      <point x="112" y="-256"/>
      <point x="137" y="-250"/>
      <point x="166" y="-241" type="curve"/>
      <point x="167" y="-133" type="line"/>
      <point x="148" y="-140"/>
      <point x="132" y="-145"/>
      <point x="111" y="-145" type="curve" smooth="yes"/>
      <point x="96" y="-145"/>
      <point x="88" y="-133"/>
      <point x="88" y="-120" type="curve" smooth="yes"/>
      <point x="88" y="-76"/>
      <point x="126" y="-43"/>
      <point x="177" y="0" type="curve"/>
      <point x="55" y="0" type="line"/>
      <point x="-6" y="-40"/>
      <point x="-48" y="-85"/>
      <point x="-48" y="-152" type="curve" smooth="yes"/>
      <point x="-48" y="-210"/>
      <point x="-7" y="-256"/>
    </contour>
  </outline>
</glyph>
<glyph name="tilde" format="2">
  <advance width="474"/>
  <unicode hex="02DC"/>
  <outline>
    <contour>
      <point x="110" y="604" type="curve"/>
      <point x="199" y="604" type="line"/>
      <point x="202" y="634"/>
      <point x="225" y="653"/>
      <point x="244" y="653" type="curve" smooth="yes"/>
      <point x="286" y="653"/>
      <point x="325" y="605"/>
      <point x="384" y="605" type="curve" smooth="yes"/>
      <point x="461" y="605"/>
      <point x="514" y="649"/>
      <point x="539" y="772" type="curve"/>
      <point x="449" y="772" type="line"/>
      <point x="437" y="739"/>
      <point x="416" y="723"/>
      <point x="394" y="723" type="curve" smooth="yes"/>
      <point x="350" y="723"/>
      <point x="313" y="771"/>
      <point x="261" y="771" type="curve" smooth="yes"/>
      <point x="187" y="771"/>
      <point x="133" y="725"/>
    </contour>
  </outline>
</glyph>
<glyph name="hungarumlaut" format="2">
  <advance width="548"/>
  <unicode hex="02DD"/>
  <outline>
    <contour>
      <point x="335" y="620" type="curve"/>
      <point x="335" y="606" type="line"/>
      <point x="432" y="606" type="line"/>
      <point x="482" y="641"/>
      <point x="592" y="721"/>
      <point x="610" y="756" type="curve"/>
      <point x="610" y="766" type="line"/>
      <point x="430" y="766" type="line"/>
      <point x="408" y="721"/>
      <point x="361" y="658"/>
    </contour>
    <contour>
      <point x="113" y="620" type="curve"/>
      <point x="113" y="606" type="line"/>
      <point x="210" y="606" type="line"/>
      <point x="259" y="641"/>
      <point x="374" y="721"/>
      <point x="393" y="756" type="curve"/>
      <point x="393" y="766" type="line"/>
      <point x="214" y="766" type="line"/>
      <point x="190" y="721"/>
      <point x="143" y="658"/>
    </contour>
  </outline>
</glyph>
<glyph name="rhotichookmod" format="2">
  <advance width="235"/>
  <unicode hex="02DE"/>
  <outline>
    <contour>
      <point x="108" y="165" type="curve" smooth="yes"/>
      <point x="157" y="165"/>
      <point x="195" y="184"/>
      <point x="228" y="208" type="curve"/>
      <point x="185" y="303" type="line"/>
      <point x="174" y="292"/>
      <point x="158" y="282"/>
      <point x="138" y="282" type="curve" smooth="yes"/>
      <point x="109" y="282"/>
      <point x="96" y="307"/>
      <point x="96" y="371" type="curve" smooth="yes"/>
      <point x="96" y="417" type="line"/>
      <point x="-143" y="353" type="line"/>
      <point x="-140" y="244" type="line"/>
      <point x="-10" y="277" type="line"/>
      <point x="0" y="201"/>
      <point x="47" y="165"/>
    </contour>
  </outline>
</glyph>
